<svg xmlns="http://www.w3.org/2000/svg" xmlns:xlink="http://www.w3.org/1999/xlink" width="800.159" height="799.454" viewBox="0 0 800.159 799.454">
  <defs>
    <radialGradient id="radial-gradient" cx="0.5" cy="0.5" r="0.5" gradientUnits="objectBoundingBox">
      <stop offset="0" stop-color="#fff"/>
      <stop offset="0.153" stop-color="#f9f9fa"/>
      <stop offset="0.339" stop-color="#eaebeb"/>
      <stop offset="0.542" stop-color="#d2d2d4"/>
      <stop offset="0.758" stop-color="#afb1b2"/>
      <stop offset="0.981" stop-color="#848688"/>
      <stop offset="1" stop-color="#808285"/>
    </radialGradient>
    <radialGradient id="radial-gradient-2" cx="0.5" cy="0.5" r="0.5" gradientUnits="objectBoundingBox">
      <stop offset="0" stop-color="#fff"/>
      <stop offset="0.343" stop-color="#f9fafa"/>
      <stop offset="0.759" stop-color="#eaecec"/>
      <stop offset="1" stop-color="#dfe1e2"/>
    </radialGradient>
  </defs>
  <g id="Grupo_134394" data-name="Grupo 134394" transform="translate(2677.848 7260.699)">
    <path id="Trazado_197810" data-name="Trazado 197810" d="M959.316,540V85.287C619.809,85.287,504.6,395.246,504.6,540H959.316" transform="translate(-3182.452 -7345.986)" fill="#5c7580"/>
    <path id="Trazado_197811" data-name="Trazado 197811" d="M1101.451,293.819a282.9,282.9,0,0,0-142.135-38.046V540Z" transform="translate(-3182.452 -7346.473)" fill="#ffdcab"/>
    <path id="Trazado_197812" data-name="Trazado 197812" d="M959.316,540V824.227a282.916,282.916,0,0,0,142.135-38.046Z" transform="translate(-3182.452 -7345.699)" fill="#13697f"/>
    <path id="Trazado_197813" data-name="Trazado 197813" d="M959.316,540H675.089a282.915,282.915,0,0,0,38.046,142.135Z" transform="translate(-3182.452 -7345.986)" fill="#afe1ee"/>
    <path id="Trazado_197814" data-name="Trazado 197814" d="M713.135,682.135A285.62,285.62,0,0,0,817.182,786.181L959.316,540Z" transform="translate(-3182.452 -7345.986)" fill="#18a8cc"/>
    <path id="Trazado_197815" data-name="Trazado 197815" d="M817.182,786.181a282.9,282.9,0,0,0,142.134,38.046V540Z" transform="translate(-3182.452 -7345.986)" fill="#1589a5"/>
    <path id="Trazado_197816" data-name="Trazado 197816" d="M959.316,540l142.135,246.181A285.609,285.609,0,0,0,1205.5,682.135Z" transform="translate(-3182.452 -7345.986)" fill="#30586c"/>
    <path id="Trazado_197817" data-name="Trazado 197817" d="M1205.5,397.865a285.609,285.609,0,0,0-104.046-104.046L959.316,540Z" transform="translate(-3182.452 -7345.986)" fill="#ff9a0c"/>
    <path id="Trazado_197818" data-name="Trazado 197818" d="M959.316,540h284.227A282.915,282.915,0,0,0,1205.5,397.865Z" transform="translate(-3182.452 -7345.986)" fill="#ce7d0c"/>
    <path id="Trazado_197819" data-name="Trazado 197819" d="M1205.5,682.135A282.915,282.915,0,0,0,1243.543,540H959.316Z" transform="translate(-3182.452 -7345.986)" fill="#9e610c"/>
    <circle id="Elipse_5370" data-name="Elipse 5370" cx="173.489" cy="173.489" r="173.489" transform="translate(-2396.625 -6979.476)" opacity="0.4" fill="url(#radial-gradient)" style="mix-blend-mode: multiply;isolation: isolate"/>
    <circle id="Elipse_5371" data-name="Elipse 5371" cx="165.56" cy="165.56" r="165.56" transform="translate(-2388.696 -6971.547)" fill="#bfc1bf" stroke="#707070" stroke-miterlimit="10" stroke-width="3.868" style="mix-blend-mode: multiply;isolation: isolate"/>
    <circle id="Elipse_5372" data-name="Elipse 5372" cx="156.947" cy="156.947" r="156.947" transform="translate(-2380.083 -6962.934)" fill="#fff"/>
    <circle id="Elipse_5373" data-name="Elipse 5373" cx="144.754" cy="144.754" r="144.754" transform="translate(-2367.89 -6950.74)" fill="none" stroke="#e5e7e8" stroke-miterlimit="10" stroke-width="4"/>
    <g id="Grupo_134385" data-name="Grupo 134385" transform="translate(-3182.452 -7345.986)">
      <text id="USOS" transform="translate(876.604 548.872)" fill="#57595b" font-size="72" font-family="Roboto-Bold, Roboto" font-weight="700" letter-spacing="0.001em"><tspan x="0" y="0">Usos</tspan></text>
      <text id="MANUFACTURA_ADITIVA" data-name="MANUFACTURA ADITIVA" transform="translate(882.604 574.796)" fill="#57595b" font-size="14" font-family="Roboto-Medium, Roboto" font-weight="500" letter-spacing="0.1em"><tspan x="0" y="0">Manufactura aditiva</tspan></text>
    </g>
    <circle id="Elipse_5374" data-name="Elipse 5374" cx="345.727" cy="345.727" r="345.727" transform="translate(-2569.143 -7152.699)" fill="url(#radial-gradient-2)" style="mix-blend-mode: multiply;isolation: isolate"/>
    <g id="Grupo_134386" data-name="Grupo 134386" transform="translate(-3182.452 -7345.986)">
      <path id="Trazado_197152" data-name="Trazado 197152" d="M1201.518,489.522a6,6,0,0,0,.092-1.737c0-5.3.009-10.6-.016-15.9,0-.7.223-.974.919-.939.728.036,1.459.031,2.187,0,.662-.028.873.255.871.9-.021,5.469-.016,10.937-.019,16.406,0,.561.025,1.123,0,1.683-.116,2.33-1.053,3.512-3.59,3.518-5.552.014-11.1,0-16.658.005-1.08,0-1.074,0-1.058,1.108.01.673.039,1.35-.017,2.018-.06.728.171,1,.939.975,1.6-.058,3.2,0,4.795-.039.706-.016,1.046.2.987.96a14.166,14.166,0,0,0,0,2.018c.043.686-.211.967-.913.952-1.43-.031-2.861-.009-4.291-.009q-8.875,0-17.751,0c-1.061,0-1.09-.038-1.081-1.082.006-.645.027-1.292-.011-1.935s.222-.911.876-.9c1.626.027,3.255-.026,4.879.037.813.032,1.043-.256.972-1.022a11.233,11.233,0,0,1,0-2.016c.071-.794-.174-1.085-1.018-1.08-5.637.032-11.274.019-16.91.014a3.987,3.987,0,0,1-1.776-.361,2.922,2.922,0,0,1-1.608-2.9c-.06-3.477-.02-6.955-.035-10.432,0-.6.235-.879.844-.867.785.017,1.57.011,2.356,0,.588-.007.79.3.755.85-.191,3,.021,6-.109,8.994-.032.735.392.783.967.782q13.924-.015,27.848-.007h16.578Z" fill="#fff"/>
      <path id="Trazado_197153" data-name="Trazado 197153" d="M1178.823,484.833a9.6,9.6,0,1,1,9.758-9.563A9.614,9.614,0,0,1,1178.823,484.833Zm.093-4.661q2.269,0,4.539,0c.28,0,.569.031.779-.214a3.348,3.348,0,0,0-.352-2.918,7.391,7.391,0,0,0-1.585-.933,9.474,9.474,0,0,0-6.618-.032c-1.509.529-2.409,1.343-2.338,3.059.032.767.278,1.058,1.035,1.044C1175.889,480.149,1177.4,480.169,1178.916,480.172Zm2.7-8.263c.245-1.251-1.259-2.552-2.721-2.549a2.8,2.8,0,0,0-2.737,2.581c.1,1.293,1.272,2.793,2.334,2.837A2.772,2.772,0,0,0,1181.617,471.909Z" fill="#fff"/>
      <path id="Trazado_197154" data-name="Trazado 197154" d="M1171.272,460.253q-8.916,0-17.831,0c-1.116,0-1.226-.166-1.13-1.283a2.828,2.828,0,0,1,2.834-2.648c.332.028.671-.031,1.007-.031q16.443,0,32.888,0c1.244,0,1.245.007,1.223,1.275-.01.532-.012,1.065.005,1.6.032,1-.038,1.088-1.08,1.089q-4.752,0-9.5,0Z" fill="#fff"/>
      <path id="Trazado_197155" data-name="Trazado 197155" d="M1156.615,462.251c2.664,0,5.329.021,7.992-.013.787-.011.995.266.987,1.038-.038,3.953-.028,7.908-.012,11.861,0,1-.052,1.1-1.077,1.1h-15.817c-1.053,0-1.1-.054-1.095-1.079.005-3.955.024-7.909-.016-11.863-.008-.817.225-1.072,1.046-1.058C1151.286,462.279,1153.951,462.251,1156.615,462.251Zm.019,2.007c-2.045,0-4.09.018-6.135-.01-.7-.01-.921.263-.913.948q.043,4.033,0,8.068c-.007.671.179.97.9.966q6.093-.03,12.186,0c.708,0,.912-.266.9-.952-.031-2.689-.036-5.379.005-8.068.011-.758-.261-.976-.978-.964C1160.613,464.279,1158.623,464.258,1156.634,464.258Z" fill="#fff"/>
      <path id="Trazado_197156" data-name="Trazado 197156" d="M1199.376,456.291c1.064,0,2.127-.012,3.191,0a2.733,2.733,0,0,1,2.985,2.889c.059,2.1.027,4.2.037,6.3a.67.67,0,0,1-.774.761c-.811-.006-1.624-.028-2.434.007-.637.028-.826-.252-.811-.849.033-1.315.015-2.631.029-3.946.012-1.191.01-1.2-1.218-1.2-1.511,0-3.023-.025-4.534.01-.707.016-.948-.26-.908-.945.043-.725.028-1.455,0-2.182-.023-.6.2-.87.827-.855C1196.969,456.31,1198.173,456.29,1199.376,456.291Z" fill="#fff"/>
      <path id="Trazado_197157" data-name="Trazado 197157" d="M1198.789,485.434a1.836,1.836,0,0,1-.548.871c-.449.436-.848.533-1.321-.011-.568-.653-1.207-1.243-1.805-1.87-.419-.439-.719-.355-.931.185-.144.365-.266.738-.415,1.1-.111.266-.1.679-.528.646-.374-.03-.416-.4-.533-.681a28.216,28.216,0,0,1-.982-3.029c-.346-1.166-.86-2.273-1.137-3.459-.056-.242-.214-.482-.005-.707.233-.252.52-.143.784-.055q3.266,1.092,6.528,2.194c.261.089.587.163.606.5.022.4-.344.466-.625.57-.315.117-.642.2-.962.3-.874.281-.958.651-.31,1.28C1197.344,483.987,1198.069,484.72,1198.789,485.434Z" fill="#fff"/>
      <path id="Trazado_197158" data-name="Trazado 197158" d="M1192.592,465.6c-.858.2-1.026-.238-1.031-1.016-.006-.815.279-1.056,1.08-1.063.829-.007,1.056.286,1.06,1.079C1193.7,465.424,1193.412,465.746,1192.592,465.6Z" fill="#fff"/>
      <path id="Trazado_197159" data-name="Trazado 197159" d="M1193.665,452.624c.142.824-.231,1.06-1.03,1.062s-1.077-.248-1.076-1.058.265-1.067,1.071-1.063S1193.808,451.792,1193.665,452.624Z" fill="#fff"/>
      <path id="Trazado_197160" data-name="Trazado 197160" d="M1203.067,468.622c.008-.97.155-1.058,1.21-1.082.807-.018.987.413,1.011,1.1.03.855-.488.947-1.142.936C1203.456,469.567,1202.867,469.472,1203.067,468.622Z" fill="#fff"/>
      <path id="Trazado_197161" data-name="Trazado 197161" d="M1197.552,468.6c.2.892-.326,1.026-1.039,1.049-.767.025-1.045-.311-1.034-1.054s.211-1.1,1.065-1.069C1197.342,467.552,1197.721,467.765,1197.552,468.6Z" fill="#fff"/>
      <path id="Trazado_197162" data-name="Trazado 197162" d="M1201.443,452.6c0,.917-.169,1.06-1.141,1.072-.748.01-.949-.382-.96-1.06-.011-.721.3-1.029.995-1.032C1201.242,451.577,1201.441,451.751,1201.443,452.6Z" fill="#fff"/>
      <path id="Trazado_197163" data-name="Trazado 197163" d="M1192.637,455.615c.857-.182,1.059.241,1.061,1.02s-.292,1.005-1.046,1.007c-.776,0-1.1-.187-1.1-1.036C1191.562,455.779,1191.826,455.451,1192.637,455.615Z" fill="#fff"/>
      <path id="Trazado_197164" data-name="Trazado 197164" d="M1207.907,465.6c-.828.158-1.054-.222-1.062-1.022-.008-.822.276-1.056,1.074-1.06.851-.005,1.034.356,1.028,1.115S1208.7,465.754,1207.907,465.6Z" fill="#fff"/>
      <path id="Trazado_197165" data-name="Trazado 197165" d="M1192.654,469.551c-.843.172-1.111-.176-1.093-.993.016-.737.2-1.056,1.006-1.031.728.023,1.165.118,1.132,1C1193.67,469.29,1193.512,469.757,1192.654,469.551Z" fill="#fff"/>
      <path id="Trazado_197166" data-name="Trazado 197166" d="M1207.876,461.591c-.916.2-1-.318-1.028-1.048-.037-.9.434-.946,1.139-.978.843-.037.942.366.96,1.059C1208.969,461.445,1208.675,461.774,1207.876,461.591Z" fill="#fff"/>
      <path id="Trazado_197167" data-name="Trazado 197167" d="M1207.969,455.611c.9-.169.936.37.978,1.044.056.906-.417.959-1.132.986-.856.033-.937-.385-.967-1.08C1206.81,455.666,1207.236,455.483,1207.969,455.611Z" fill="#fff"/>
      <path id="Trazado_197168" data-name="Trazado 197168" d="M1192.651,459.621c.891-.154.976.35,1,1.037.031.844-.4.934-1.091.957-.831.027-.969-.374-.974-1.077C1191.58,459.725,1191.951,459.484,1192.651,459.621Z" fill="#fff"/>
      <path id="Trazado_197169" data-name="Trazado 197169" d="M1205.088,452.646c.078.662-.185.979-.888.98-.752,0-1.03-.3-1.024-1.061.006-.783.415-.927,1.06-.936C1204.966,451.618,1205.158,452.011,1205.088,452.646Z" fill="#fff"/>
      <path id="Trazado_197170" data-name="Trazado 197170" d="M1207.954,469.526c-.79.134-1.075-.185-1.076-.955s.317-1.005,1.052-1.005c.711,0,1,.233.986.964C1208.905,469.239,1208.761,469.7,1207.954,469.526Z" fill="#fff"/>
      <path id="Trazado_197171" data-name="Trazado 197171" d="M1207.911,453.58c-.755.129-1.034-.2-1.032-.968,0-.725.27-.971.987-.972.734,0,1.066.216,1.051,1C1208.9,453.358,1208.651,453.689,1207.911,453.58Z" fill="#fff"/>
      <path id="Trazado_197172" data-name="Trazado 197172" d="M1200.428,469.537c-.706.07-.982-.242-.973-.92.009-.61.13-1.04.861-1.036.645,0,1.056.165,1.048.941C1201.356,469.216,1201.135,469.591,1200.428,469.537Z" fill="#fff"/>
      <path id="Trazado_197173" data-name="Trazado 197173" d="M1195.593,452.594c-.083-.692.225-.953.909-.948s1.009.242,1.008.976-.3.972-1,.985C1195.754,453.62,1195.505,453.279,1195.593,452.594Z" fill="#fff"/>
      <path id="Trazado_197174" data-name="Trazado 197174" d="M1178.916,480.171c-1.514,0-3.027-.022-4.54.007-.757.014-1-.277-1.035-1.044-.071-1.716.829-2.53,2.338-3.059a9.474,9.474,0,0,1,6.618.032,7.391,7.391,0,0,1,1.585.933,3.348,3.348,0,0,1,.352,2.918c-.21.245-.5.214-.779.214Z" fill="#b56f0b"/>
      <path id="Trazado_197175" data-name="Trazado 197175" d="M1181.617,471.909a2.772,2.772,0,0,1-3.124,2.869c-1.062-.044-2.229-1.544-2.334-2.837a2.8,2.8,0,0,1,2.737-2.581C1180.358,469.357,1181.862,470.658,1181.617,471.909Z" fill="#b56f0b"/>
      <path id="Trazado_197176" data-name="Trazado 197176" d="M1156.634,464.258c1.989,0,3.979.021,5.967-.011.717-.012.989.206.978.964-.041,2.689-.036,5.379-.005,8.068.008.686-.2.955-.9.952q-6.093-.031-12.186,0c-.718,0-.9-.3-.9-.966q.04-4.033,0-8.068c-.008-.685.209-.958.913-.948C1152.544,464.276,1154.589,464.258,1156.634,464.258Zm-.412,3.688v0c1.038,0,2.076-.032,3.112.01.755.031.913-.4.916-1s-.074-1.1-.905-1.086c-2.075.036-4.15.03-6.224,0-.776-.01-.877.462-.875,1.037s.084,1.072.864,1.049C1154.147,467.923,1155.185,467.946,1156.222,467.946Zm-1.273,3.966c.617,0,1.233-.009,1.849,0,.738.014.788-.51.789-1.03s-.072-1.025-.807-1.015c-1.232.018-2.465.025-3.7,0-.729-.016-.831.459-.834.991,0,.556.066,1.092.852,1.057C1153.716,471.888,1154.333,471.91,1154.949,471.912Z" fill="#b56f0b"/>
      <path id="Trazado_197177" data-name="Trazado 197177" d="M1156.222,467.946c-1.037,0-2.075-.023-3.112.008-.78.023-.862-.482-.864-1.049s.1-1.047.875-1.037c2.074.029,4.149.035,6.224,0,.831-.015.908.481.905,1.086s-.161,1.03-.916,1c-1.036-.042-2.074-.01-3.112-.01Z" fill="#fff"/>
      <path id="Trazado_197178" data-name="Trazado 197178" d="M1154.949,471.911c-.616,0-1.233-.023-1.848,0-.786.035-.855-.5-.852-1.057,0-.532.1-1.007.834-.991,1.232.026,2.465.019,3.7,0,.735-.01.807.489.807,1.015s-.051,1.044-.789,1.03C1156.182,471.9,1155.566,471.912,1154.949,471.911Z" fill="#fff"/>
    </g>
    <g id="Grupo_134387" data-name="Grupo 134387" transform="translate(-3182.452 -7345.986)">
      <path id="Trazado_197179" data-name="Trazado 197179" d="M1127.366,356.747v4.393H1123v4.48a21.867,21.867,0,0,1,10.4,3.9l3.335-3.34,3.079,3.086-3.111,3.088a21.7,21.7,0,0,1,5.927,16.825,21.127,21.127,0,0,1-7.313,14.673,21.915,21.915,0,0,1-30.465-31.453l-3.151-3.07,3.163-3.135,3.322,3.326a21.956,21.956,0,0,1,10.4-3.9V361.14h-4.366v-4.393Zm10.966,30.687a17.542,17.542,0,1,0-17.643,17.516A17.574,17.574,0,0,0,1138.332,387.434Z" fill="#fff"/>
      <path id="Trazado_197180" data-name="Trazado 197180" d="M1107.667,387.43h13.112V374.338a13.119,13.119,0,1,1-13.112,13.092Z" fill="#fff"/>
    </g>
    <g id="Grupo_134388" data-name="Grupo 134388" transform="translate(-3182.452 -7345.986)">
      <g id="Grupo_133450" data-name="Grupo 133450">
        <path id="Trazado_197181" data-name="Trazado 197181" d="M999.291,323.351a16.446,16.446,0,1,1,16.471,16.418A16.45,16.45,0,0,1,999.291,323.351Zm30.3.01a13.857,13.857,0,1,0-13.935,13.818A13.814,13.814,0,0,0,1029.594,323.361Z" fill="#255065"/>
        <path id="Trazado_197182" data-name="Trazado 197182" d="M1007.186,355.972c.419-.47.688-.816,1-1.112a1.282,1.282,0,0,1,1.784-.028,1.189,1.189,0,0,1,.176,1.7q-1.637,2-3.395,3.9a1.21,1.21,0,0,1-1.885-.1q-1.628-1.8-3.186-3.653a1.3,1.3,0,0,1,.131-1.9,1.33,1.33,0,0,1,1.844.182c.266.273.506.572.77.873.242-.238.118-.525.119-.773.009-4.465,0-8.929.009-13.394,0-.961.515-1.555,1.309-1.558s1.316.6,1.318,1.552q.011,5.053,0,10.107Z" fill="#255065"/>
        <path id="Trazado_197183" data-name="Trazado 197183" d="M1024.289,355.979V349.72c0-2.685,0-5.369,0-8.053,0-.959.52-1.555,1.314-1.554s1.311.6,1.313,1.556q.008,6.655,0,13.312v.971c.384-.423.651-.747.948-1.039a1.316,1.316,0,0,1,1.785-.135,1.269,1.269,0,0,1,.188,1.833c-1.067,1.284-2.16,2.548-3.29,3.778a1.237,1.237,0,0,1-1.95-.054q-1.628-1.8-3.185-3.653a1.293,1.293,0,0,1,.073-1.848,1.33,1.33,0,0,1,1.907.133C1023.663,355.239,1023.9,355.538,1024.289,355.979Z" fill="#255065"/>
        <path id="Trazado_197184" data-name="Trazado 197184" d="M1017.053,359.261c.42-.47.684-.822,1.005-1.112a1.255,1.255,0,0,1,1.721-.08,1.224,1.224,0,0,1,.24,1.757c-1.1,1.33-2.225,2.637-3.4,3.9a1.209,1.209,0,0,1-1.886-.1q-1.626-1.8-3.186-3.652a1.3,1.3,0,0,1,.131-1.9,1.331,1.331,0,0,1,1.844.182c.267.273.507.572.771.873.241-.239.117-.525.117-.773q.015-6.533.008-13.065a6.248,6.248,0,0,1,.009-.657,1.324,1.324,0,0,1,1.3-1.23,1.3,1.3,0,0,1,1.305,1.224c.042.572.015,1.15.015,1.725C1017.054,350.59,1017.053,354.83,1017.053,359.261Z" fill="#255065"/>
        <path id="Trazado_197185" data-name="Trazado 197185" d="M1015.711,312.1a11.223,11.223,0,1,1-11.2,11.227A11.183,11.183,0,0,1,1015.711,312.1Zm-1.313,3.864c-.379.155-.739.276-1.076.444a4.068,4.068,0,0,0-2.5,3.988,3.91,3.91,0,0,0,2.743,3.626,12.029,12.029,0,0,0,2.371.626,4.259,4.259,0,0,1,1.892.735,1.334,1.334,0,0,1,.167,2.124c-1.213,1.009-4.414,1.051-5.053-1.161a1.242,1.242,0,0,0-1.679-.872,1.315,1.315,0,0,0-.782,1.678,4.557,4.557,0,0,0,1.662,2.471,7.314,7.314,0,0,0,2.244,1.065c.083,1.327.457,1.85,1.308,1.872.883.022,1.285-.5,1.4-1.852a8.369,8.369,0,0,0,2.1-.833,3.97,3.97,0,0,0,.41-6.441,6.685,6.685,0,0,0-2.808-1.277,10.641,10.641,0,0,1-2.449-.644,1.4,1.4,0,0,1-.914-1.251,1.549,1.549,0,0,1,.844-1.4,2.78,2.78,0,0,1,3.843.981c.042.071.068.15.111.22a1.315,1.315,0,0,0,1.812.6,1.332,1.332,0,0,0,.494-1.848,5.063,5.063,0,0,0-3.458-2.842c-.089-1.369-.492-1.9-1.381-1.888C1014.846,314.106,1014.457,314.643,1014.4,315.967Z" fill="#255065"/>
      </g>
      <path id="Trazado_197186" data-name="Trazado 197186" d="M1032.884,304.538a4.258,4.258,0,0,1-3.18-2.993c-.612-1.578-.9-2.858.07-4.274.241-.354.09-.576-.179-.833-.713-.682-1.438-1.357-2.083-2.1-.465-.534-.884-.717-1.509-.3-1.16.783-2.21.572-3.515.043-1.8-.729-3.293-1.464-3.372-3.623h-4.58c-.3.782-.543,1.57-.905,2.3-.434.877-1.512.583-2.176,1.063a3.428,3.428,0,0,1-4.315.045c-.309-.214-.525-.116-.771.14-.779.81-1.565,1.614-2.388,2.378-.34.317-.435.6-.181.979.888,1.339.644,2.528.087,4.042a4.437,4.437,0,0,1-3.407,3.19c-.044.011-.08.062-.126.1v4.517a3.971,3.971,0,0,1,3.413,2.861,16.477,16.477,0,0,1,4.748-3.506,8.67,8.67,0,0,1-.168-1.741,8.422,8.422,0,0,1,16.844.1,8.511,8.511,0,0,1-.444,2.654,16.521,16.521,0,0,1,4.328,4.153,11.329,11.329,0,0,0,1.246-3.012.978.978,0,0,1,.711-.785c.741-.243,1.459-.56,2.16-.836v-4.442A2.308,2.308,0,0,0,1032.884,304.538Z" fill="#255065"/>
    </g>
    <g id="Grupo_134389" data-name="Grupo 134389" transform="translate(-3182.452 -7345.986)">
      <g id="Grupo_133452" data-name="Grupo 133452">
        <path id="Trazado_197187" data-name="Trazado 197187" d="M1142.236,671.726c.025.064.09.054.138.074a.965.965,0,0,1,.377,1.513c-.055.067-.115.129-.176.19q-4.276,4.278-8.55,8.556a.253.253,0,0,1-.33.072c-.224-.1-.458-.182-.691-.26a.242.242,0,0,1-.17-.172c-.084-.245-.174-.488-.273-.727a.2.2,0,0,1,.052-.254c.342-.33.676-.671,1.013-1.007q3.719-3.719,7.436-7.439a1.692,1.692,0,0,1,.8-.546Z" fill="#fff"/>
        <path id="Trazado_197188" data-name="Trazado 197188" d="M1123.971,688.283c.057-.025.058-.088.087-.133a.592.592,0,0,1,.625-.261.554.554,0,0,1,.442.527c.011.375,0,.752,0,1.122a.451.451,0,0,0,.266.032c.3.005.594-.005.889.008a.576.576,0,0,1,.016,1.149q-.9.02-1.8,0c-.278-.005-.425-.207-.531-.439Z" fill="#fff"/>
        <path id="Trazado_197189" data-name="Trazado 197189" d="M1123.971,678.037a.759.759,0,0,1,.805-.417c.494.024.989,0,1.484.009a.577.577,0,0,1,0,1.154c-.129.006-.259,0-.389,0h-.742c0,.334,0,.654,0,.974a1.294,1.294,0,0,1-.027.312.576.576,0,0,1-.554.413.582.582,0,0,1-.546-.4c-.009-.027,0-.063-.034-.08Z" fill="#fff"/>
        <path id="Trazado_197190" data-name="Trazado 197190" d="M1131.941,689a.532.532,0,0,1-.272-.116c-.6-.389-1.207-.771-1.8-1.166a.773.773,0,0,0-.683-.111c-.683.192-1.37.37-2.054.555a.476.476,0,0,1-.459-.045.453.453,0,0,1-.122-.537c.186-.685.363-1.372.554-2.055a.76.76,0,0,0-.1-.667c-.4-.6-.786-1.213-1.177-1.821-.243-.379-.092-.69.358-.715.7-.037,1.408-.068,2.113-.088a.8.8,0,0,0,.653-.322c.451-.573.911-1.14,1.371-1.706a.416.416,0,0,1,.613-.116.56.56,0,0,1,.162.265c.238.642.484,1.281.708,1.927a.936.936,0,0,0,.624.624c.641.222,1.273.468,1.91.7.177.064.328.149.363.353a.46.46,0,0,1-.224.455c-.556.443-1.1.9-1.665,1.334a.825.825,0,0,0-.337.683c-.019.7-.053,1.4-.086,2.095C1132.372,688.833,1132.221,689,1131.941,689Z" fill="#fff"/>
        <path id="Trazado_197191" data-name="Trazado 197191" d="M1135.921,689.553c0-.374-.007-.744,0-1.114a.568.568,0,0,1,.513-.561.576.576,0,0,1,.618.422.742.742,0,0,1,.023.2c0,.538,0,1.076,0,1.614a.579.579,0,0,1-.611.619c-.557,0-1.113.005-1.669,0a.577.577,0,0,1-.573-.505.585.585,0,0,1,.392-.623.88.88,0,0,1,.293-.031c.315,0,.63,0,.946,0A.461.461,0,0,0,1135.921,689.553Z" fill="#fff"/>
      </g>
      <path id="Trazado_197192" data-name="Trazado 197192" d="M1142.774,715.752a3.887,3.887,0,0,0-.315,1.255,8.094,8.094,0,0,1-6.945,6.1,14.97,14.97,0,0,1-1.832.107q-19.632,0-39.265-.011a8.168,8.168,0,0,1-7.36-3.818,8.361,8.361,0,0,1,6.475-12.9c.461-.04.926-.057,1.389-.057q19.523,0,39.043,0a8.4,8.4,0,0,1,7.165,3.365,8.241,8.241,0,0,1,1.533,3.943c.014.115-.058.269.112.336Zm-28.541-5.919a4.917,4.917,0,0,0-5.009,5.05,5.023,5.023,0,0,0,10.046-.027A4.916,4.916,0,0,0,1114.233,709.833Zm-15.08,0a4.947,4.947,0,0,0-5.047,5.029,5.038,5.038,0,0,0,10.076.016A4.942,4.942,0,0,0,1099.153,709.832Zm30.218,0a4.945,4.945,0,0,0-5.059,5.071,5.038,5.038,0,0,0,10.076-.012A4.944,4.944,0,0,0,1129.371,709.832Z" fill="#fff"/>
      <path id="Trazado_197193" data-name="Trazado 197193" d="M1121.069,666.175c-.12,1.088,0,2.182-.067,3.324h-13.377v5.346a5.065,5.065,0,0,1,3.1,3.3c.066.214.246.246.425.3,1.336.44,2.667.895,4.007,1.326a.85.85,0,0,1,.63.6c.57,1.778,1.172,3.547,1.787,5.393l-3.09,1.041c-.242-.161-.237-.426-.311-.642-.361-1.05-.712-2.1-1.046-3.162a.734.734,0,0,0-.537-.555c-.706-.21-1.4-.453-2.1-.681a5.118,5.118,0,0,1-9.156,0c-.745.251-1.49.519-2.248.747-.253.075-.292.25-.356.44q-.582,1.736-1.164,3.473c-.04.119-.089.236-.149.393l-3.158-1.054c.488-1.475,1.044-2.888,1.41-4.349a2.4,2.4,0,0,1,2-1.995c1.024-.227,2.005-.647,3.006-.975.2-.066.366-.125.442-.363a5.027,5.027,0,0,1,3.09-3.24v-5.31h-13.369c-.1-1.152.048-2.264-.083-3.367Z" fill="#fff"/>
      <path id="Trazado_197194" data-name="Trazado 197194" d="M1090.759,703.044v-14.4h11.07v14.4Z" fill="#fff"/>
      <path id="Trazado_197195" data-name="Trazado 197195" d="M1134.326,703.13h-9.995v-8.714h9.995Z" fill="#fff"/>
      <path id="Trazado_197196" data-name="Trazado 197196" d="M1103.889,691.366h17.37v11.673h-17.37Z" fill="#fff"/>
      <path id="Trazado_197197" data-name="Trazado 197197" d="M1115.921,714.821a1.674,1.674,0,1,1-1.653-1.659A1.667,1.667,0,0,1,1115.921,714.821Z" fill="#fff"/>
      <path id="Trazado_197198" data-name="Trazado 197198" d="M1099.148,713.162a1.67,1.67,0,1,1-1.683,1.65A1.672,1.672,0,0,1,1099.148,713.162Z" fill="#fff"/>
      <path id="Trazado_197199" data-name="Trazado 197199" d="M1131.029,714.788a1.677,1.677,0,1,1-1.706-1.625A1.681,1.681,0,0,1,1131.029,714.788Z" fill="#fff"/>
    </g>
    <path id="Trazado_197820" data-name="Trazado 197820" d="M763.311,714.229v-39.6c.19-.057.184-.241.224-.38a5.082,5.082,0,0,1,2.714-3.188c.36-.185.815-.137,1.1-.475h52.562c.037.038.069.1.111.111a5.094,5.094,0,0,1,4.174,5.161q-.012,25.179-.006,50.36a5.132,5.132,0,0,1-5.368,5.253q-21.523,0-43.046,0c-.119,0-.238,0-.357,0a5.076,5.076,0,0,1-4.974-4.661c-.07-1.045.267-1.412,1.314-1.413,2.874,0,5.75-.073,8.62.033a1.911,1.911,0,0,0,2.216-1.458c.712-1.918,1.628-3.759,2.485-5.692h-.7q-7.878,0-15.756,0a5.093,5.093,0,0,1-4.842-2.934C763.6,714.979,763.644,714.524,763.311,714.229Zm58.86-18.254v-.339q0-9.9,0-19.8a3.067,3.067,0,0,0-3.323-3.224q-25.09,0-50.179,0a3.086,3.086,0,0,0-3.327,3.342c-.005,2.338,0,4.677,0,7.016v1.817h7.588c1.281,0,1.556.281,1.556,1.583q0,11.058,0,22.117c0,.209-.069.433.055.618h11.7c-.5-1.505-.974-2.969-1.484-4.418a1.389,1.389,0,0,1,.261-1.48c1.044-1.27,2.053-2.569,3.093-3.841a.653.653,0,0,0,.082-.918c-.748-1.164-1.412-2.381-2.156-3.548a1.814,1.814,0,0,1-.116-1.89c2.01-4.531,3.988-9.076,5.974-13.618a1,1,0,0,0,.169-.535c-6.932.825-11.31,6.984-11.36,12.03.2,0,.389,0,.584,0,.951.013,1.291.346,1.294,1.284.005,1.229.011,2.458,0,3.686a1,1,0,0,1-1.057,1.108q-1.99.04-3.983,0a.975.975,0,0,1-1.022-1.019q-.033-2.02,0-4.042a.969.969,0,0,1,1.023-1.006c.331-.02.663,0,1.019,0a15.9,15.9,0,0,1,7.4-12.2h-.569c-1.823,0-3.647.009-5.47-.009a.728.728,0,0,0-.776.443,2.959,2.959,0,0,1-3.363,1.508,3.032,3.032,0,0,1-.069-5.88,2.945,2.945,0,0,1,3.425,1.479.7.7,0,0,0,.722.435q13.883-.016,27.765,0a.688.688,0,0,0,.733-.415,2.942,2.942,0,0,1,3.414-1.5,3.037,3.037,0,0,1-.083,5.9,2.992,2.992,0,0,1-3.349-1.557.642.642,0,0,0-.675-.409c-1.9.016-3.8,0-5.708.012-.139,0-.316-.087-.444.14a15.284,15.284,0,0,1,7.413,12.048h.6c1.184.006,1.469.291,1.47,1.47,0,.846,0,1.693,0,2.591h.632c2.26,0,4.519.022,6.778-.008A5.926,5.926,0,0,1,822.171,695.975ZM765.337,711.19c0,.611,0,1.165,0,1.719a3.083,3.083,0,0,0,3.326,3.34q17.359,0,34.72,0c.166,0,.356.074.462-.042V711.19ZM811,722.3c0-.778-.023-1.51.01-2.24a.822.822,0,0,0-.428-.808,5.7,5.7,0,0,1-2.58-5.284,10.029,10.029,0,0,1,1.378-4.191c1.114-2.074,2.411-4.039,3.665-6.03.612-.971,1.41-.957,2.017.031.943,1.532,1.877,3.069,2.815,4.6a19.749,19.749,0,0,1,1.532,2.871c1.4,3.467.8,5.817-2.112,8.155a.458.458,0,0,0-.214.389c.006.827,0,1.653,0,2.494h5.048v-20.2H805.95v20.2Zm-45.646-13.207h7.071V707.11H770.45v-2.034h1.971v-2.027h-4v-2.043h4.009v-2h-1.98v-2.031h1.975v-2.031h-4v-2.034h4V690.87h-1.958v-2.045h1.965v-1.961h-7.072Zm30.1-30.206c-.034.212.1.369.178.541q3,6.868,6.007,13.731a1.584,1.584,0,0,1-.1,1.619c-.763,1.225-1.479,2.479-2.241,3.7a.589.589,0,0,0,.043.822c.812.973,1.594,1.97,2.381,2.964,1.505,1.9,1.361,1.312.625,3.572-.353,1.084-.712,2.166-1.073,3.262h2.617c0-2.928,0-5.819,0-8.71a5.132,5.132,0,0,1,.691-2.841,2.155,2.155,0,0,0,.393-1.621,27.281,27.281,0,0,1-.043-4.035.968.968,0,0,1,.972-.993,3.034,3.034,0,0,0,.927-.065A12.992,12.992,0,0,0,795.451,678.885Zm7.846,46.5a1.822,1.822,0,0,0-.069-.283c-.961-2.164-1.935-4.323-2.876-6.495-.153-.351-.381-.33-.657-.33-3.961,0-7.922.006-11.883-.008a.645.645,0,0,0-.709.444c-.9,2.064-1.818,4.115-2.724,6.175-.065.147-.226.294-.1.5Zm-9.539-16.246c1.623,0,3.246-.013,4.869.01a.568.568,0,0,0,.655-.486q.618-1.976,1.312-3.929a.767.767,0,0,0-.164-.848q-1.445-1.769-2.855-3.567a.731.731,0,0,0-.647-.312q-3.176.017-6.352,0a.682.682,0,0,0-.611.265q-1.469,1.866-2.963,3.709a.643.643,0,0,0-.1.7c.459,1.344.92,2.689,1.346,4.043a.5.5,0,0,0,.581.42C790.473,709.129,792.116,709.138,793.758,709.138Zm12.205,15.244c0,.8-.056,1.531.011,2.254a2.938,2.938,0,0,0,2.981,2.8c3.4.034,6.811.028,10.216,0a2.955,2.955,0,0,0,2.8-2.016,11.05,11.05,0,0,0,.211-3.035ZM794.9,682.858l-.129.025c0,2.3.005,4.593-.006,6.89,0,.289.182.345.377.45a3.024,3.024,0,0,1-1.375,5.717,3.056,3.056,0,0,1-2.966-2.286,3.018,3.018,0,0,1,1.537-3.414.6.6,0,0,0,.4-.616c-.016-2.14-.007-4.279-.013-6.419,0-.111.087-.278-.13-.343q-2.34,5.348-4.684,10.682a.614.614,0,0,0,.074.647c.688,1.131,1.376,2.263,2.042,3.408a.649.649,0,0,0,.646.386q3.062-.024,6.122,0a.7.7,0,0,0,.692-.412c.645-1.111,1.3-2.215,1.986-3.3a.806.806,0,0,0,.055-.864c-.836-1.875-1.65-3.76-2.474-5.64Q795.983,685.311,794.9,682.858ZM772.7,727.421a2.916,2.916,0,0,0,2.993,2.023q14.382.006,28.764,0c.121,0,.277.077.374-.094a5.7,5.7,0,0,1-.639-1.382c-.076-.466-.328-.557-.777-.556q-15.066.023-30.131.011Zm33.281-27.447h16.159a2.947,2.947,0,0,0-2.88-2.978q-5.195-.051-10.39,0A2.933,2.933,0,0,0,805.976,699.974Zm8.058,6c-.538.865-1.049,1.664-1.536,2.477a22.537,22.537,0,0,0-2.056,3.93,4.293,4.293,0,0,0-.26,2.944c.691-.9,1.325-1.761,1.987-2.594a1.016,1.016,0,0,1,1.715-.106c.391.385.734.819,1.123,1.258.7-.708,1.251-1.335,1.875-1.881a.73.73,0,0,0,.164-1.1C816.048,709.294,815.066,707.671,814.034,705.978ZM811.3,717.225a4.3,4.3,0,0,0,5.165.322c1.139-.79,1.927-2.661,1.5-3.777-.694.694-1.369,1.386-2.062,2.06a1.037,1.037,0,0,1-1.656.014c-.353-.339-.672-.713-1.044-1.111Zm-30.756-24.269h-1.972v1.957h1.972Zm28.39,1.987v-2H807v2Zm4.125,25.384V722.3h1.969v-1.974Zm-36.535-43.649a1.037,1.037,0,0,0-1.015.962,1,1,0,0,0,.978,1.044.979.979,0,0,0,1.008-.948A1.014,1.014,0,0,0,776.521,676.678Zm34.5,2.006a1,1,0,0,0,.981-.985,1.039,1.039,0,0,0-1.018-1.021,1.026,1.026,0,0,0-.977,1A.987.987,0,0,0,811.024,678.684Zm-17.275,15.221a.994.994,0,0,0,1-1.02,1,1,0,0,0-1.994-.011A.99.99,0,0,0,793.749,693.905Zm10.026,27.419.079-.03V718.3h-1.422Z" transform="translate(-3182.452 -7345.986)" fill="#fff"/>
    <g id="Grupo_134390" data-name="Grupo 134390" transform="translate(-3182.452 -7345.986)">
      <g id="Grupo_133454" data-name="Grupo 133454">
        <path id="Trazado_197201" data-name="Trazado 197201" d="M1201.639,623.985h-45.495c-.069-.162-.229-.1-.346-.129a6.406,6.406,0,0,1-5.049-5.952c.007-.149.019-.3.019-.447q0-18.87,0-37.739c0-.249-.012-.5-.019-.746a6.386,6.386,0,0,1,4.963-5.928c.112-.029.281.02.333-.154h7.466v4.265h38.128Zm-4.191-42.559h-33.932v4.239h29.658v29.782h-8.43v-4.253h4.2v-8.5h-4.209v-4.262h4.212v-8.467h-12.737v4.182h-4.251v-4.187h-8.45v8.492h16.921v4.275h-4.17v8.5h4.178v4.233h-8.462V602.74h-8.5v12.738h-.567c-1.925,0-3.849-.009-5.774,0a2.1,2.1,0,0,0-2.108,1.745,2.189,2.189,0,0,0,2.311,2.507q19.859-.039,39.717-.017c.125,0,.263.047.391-.058ZM1159.2,611.2V577.157c-.629,0-1.226,0-1.823,0a2.149,2.149,0,0,0-2.391,2.4q0,15.785,0,31.569c0,.141-.056.3.088.459A11.881,11.881,0,0,1,1159.2,611.2Z" fill="#fff"/>
        <path id="Trazado_197202" data-name="Trazado 197202" d="M1150.749,617.9l-.041.008-.039-.014v-38.92a.077.077,0,0,1,.08-.006c.007.248.019.5.019.746q0,18.868,0,37.739C1150.768,617.606,1150.756,617.755,1150.749,617.9Z" fill="#fff"/>
      </g>
      <g id="Grupo_133455" data-name="Grupo 133455">
        <path id="Trazado_197203" data-name="Trazado 197203" d="M1169.7,594.079a4.847,4.847,0,0,0,.256-1.137c.289-1.485.565-2.971.847-4.457a1.085,1.085,0,0,1,.04-.127l5.822,5.676c-.634.115-1.275.233-1.917.347l-4.039.719c-.01,0-.016.026-.025.039h-.466a2.431,2.431,0,0,1-.518-.505Z" fill="#fff"/>
        <path id="Trazado_197204" data-name="Trazado 197204" d="M1193.332,578.3l-15.238,14.85-6.328-6.169L1187,572.128Z" fill="#fff"/>
        <path id="Trazado_197205" data-name="Trazado 197205" d="M1194.456,577.177l-6.356-6.2a4.864,4.864,0,0,1,2.241-1.617,2.741,2.741,0,0,1,2.547.631q1.332,1.233,2.6,2.532a2.642,2.642,0,0,1,.049,3.63C1195.207,576.519,1194.821,576.836,1194.456,577.177Z" fill="#fff"/>
        <path id="Trazado_197206" data-name="Trazado 197206" d="M1186.385,572.729l1.754-1.71,6.317,6.159-1.792,1.787Z" fill="#8c570b"/>
        <path id="Trazado_197207" data-name="Trazado 197207" d="M1170.846,588.358l.92-1.378,6.329,6.169-1.426.886Z" fill="#8c570b"/>
      </g>
    </g>
    <g id="Grupo_134391" data-name="Grupo 134391" transform="translate(-3182.452 -7345.986)">
      <path id="Trazado_197208" data-name="Trazado 197208" d="M729.957,593.808a22.9,22.9,0,0,1,12.586-16.64c.108,1.055.209,2,.3,2.952s.168,1.875.261,2.812a1.435,1.435,0,0,0,1.523,1.447,1.391,1.391,0,0,0,1.29-1.64c-.236-2.676-.509-5.348-.766-8.023-.064-.663-.15-1.326-.177-1.991a1.36,1.36,0,0,1,1.415-1.521q5.887-.02,11.774,0a1.36,1.36,0,0,1,1.409,1.583c-.149,1.857-.349,3.709-.528,5.564-.139,1.444-.295,2.887-.41,4.334a1.415,1.415,0,0,0,1.294,1.7,1.475,1.475,0,0,0,1.524-1.519q.245-2.636.5-5.271c.011-.111.046-.22.087-.412a22.852,22.852,0,0,1,12.553,16.628c.432,0,.862-.01,1.292,0a2.824,2.824,0,0,1,0,5.647c-.1,0-.2,0-.294,0H728.965a2.829,2.829,0,1,1-.359-5.646C729.055,593.794,729.505,593.808,729.957,593.808Z" fill="#255065"/>
      <path id="Trazado_197209" data-name="Trazado 197209" d="M774.907,606.994c.908,0,1.77-.006,2.631,0,.765.006,1.108.349,1.113,1.117q.011,1.707,0,3.414c-.005.767-.349,1.111-1.113,1.117-.861.008-1.722,0-2.654,0,0,1.151-.025,2.281.009,3.41a2.426,2.426,0,0,1-.795,1.936c-1.143,1.1-2.261,2.233-3.373,3.368a2.277,2.277,0,0,1-1.732.713q-5.414-.021-10.829,0a2.139,2.139,0,0,1-1.925-1.014,25.406,25.406,0,0,0-3.1-3.835c-.26-.259-.551-.488-.837-.738a7.522,7.522,0,0,0-1.458,1.336,27.321,27.321,0,0,0-2.532,3.241,2.129,2.129,0,0,1-1.927,1.01q-5.415-.023-10.829,0a2.273,2.273,0,0,1-1.73-.717q-1.707-1.746-3.453-3.455a2.226,2.226,0,0,1-.709-1.732c.023-1.154.006-2.308.006-3.523-.887,0-1.743,0-2.6,0-.84,0-1.165-.333-1.168-1.181,0-1.118-.006-2.237,0-3.355.005-.767.347-1.107,1.115-1.113.862-.007,1.723,0,2.59,0,.085-.4.134-.782.25-1.146a3.755,3.755,0,0,1,3.765-2.621q14.273,0,28.544,0,4.326,0,8.652,0A3.815,3.815,0,0,1,774.907,606.994Zm-41.472.016c0,2.821,0,5.586-.006,8.35a.716.716,0,0,0,.274.547c.7.691,1.4,1.377,2.077,2.084a.964.964,0,0,0,.768.314c2.864-.011,5.729-.016,8.593,0a.861.861,0,0,0,.8-.432,21.243,21.243,0,0,1,3.237-3.72c2.25-1.987,3.964-1.982,6.207.014a21.9,21.9,0,0,1,3.266,3.772.767.767,0,0,0,.72.362q4.326-.018,8.653,0a.958.958,0,0,0,.759-.332c.654-.678,1.316-1.348,2-2a1.015,1.015,0,0,0,.338-.817c-.014-2.57-.007-5.141-.011-7.711,0-.147.065-.314-.071-.44Z" fill="#255065"/>
    </g>
    <g id="Grupo_134392" data-name="Grupo 134392" transform="translate(-3182.452 -7345.986)">
      <path id="Trazado_197210" data-name="Trazado 197210" d="M1014.9,774.156H990.344c-1.276,0-1.6-.313-1.6-1.567q0-16.121,0-32.241c0-1.242.346-1.579,1.6-1.579h49.112c1.256,0,1.59.335,1.59,1.585q0,16.121,0,32.241c0,1.247-.321,1.561-1.6,1.561Zm-10.829-24.1a5.187,5.187,0,0,0,.491.7q10.321,10.335,20.658,20.655c.19.19.325.481.657.482.951,0,1.9,0,2.918,0l-8.882-8.871c2.613-2.612,5.164-5.164,7.812-7.81l11.067,11.07c0-.832-.02-1.672.01-2.51a1.142,1.142,0,0,0-.391-.917q-4.876-4.852-9.736-9.722c-.882-.881-1.379-.883-2.246-.017q-3.82,3.814-7.64,7.629c-.173.172-.3.408-.626.48-.147-.162-.3-.343-.463-.509q-6.336-6.337-12.676-12.672c-.762-.762-1.3-.771-2.042-.029q-5.818,5.808-11.627,11.625c-.145.145-.343.265-.344.509,0,.946,0,1.892,0,2.969Zm10.241-1.454a4.291,4.291,0,1,0,4.29-4.29A4.283,4.283,0,0,0,1014.312,748.6Z" fill="#fff"/>
      <path id="Trazado_197211" data-name="Trazado 197211" d="M1036.975,781.575H995.808c.2.477.607.719.906,1.05a1.158,1.158,0,0,1,.081,1.739,1.131,1.131,0,0,1-1.684-.156q-1.458-1.436-2.9-2.892a1.1,1.1,0,0,1-.009-1.781q1.454-1.489,2.942-2.944a1.108,1.108,0,0,1,1.684-.082,1.132,1.132,0,0,1-.113,1.683c-.308.312-.663.578-1,.864l.109.169h41.376c-.421-.4-.764-.7-1.083-1.024a1.128,1.128,0,0,1-.131-1.681,1.1,1.1,0,0,1,1.684.06q1.515,1.479,2.991,2.995a1.076,1.076,0,0,1,.008,1.682q-1.5,1.545-3.045,3.041a1.1,1.1,0,0,1-1.633.025,1.117,1.117,0,0,1,.07-1.633,4.772,4.772,0,0,1,.5-.495,6.472,6.472,0,0,1,.578-.381Z" fill="#fff"/>
      <path id="Trazado_197212" data-name="Trazado 197212" d="M1046.411,770.333V743.722l-.138-.142c-.314.359-.607.739-.948,1.07a1.127,1.127,0,1,1-1.585-1.592q1.475-1.518,2.99-3a1.113,1.113,0,0,1,1.694-.008q1.548,1.494,3.043,3.043a1.117,1.117,0,0,1,.022,1.638,1.092,1.092,0,0,1-1.629-.081c-.344-.333-.641-.715-.959-1.076l-.161.134v26.569c.42-.416.751-.758,1.1-1.083a1.127,1.127,0,1,1,1.6,1.577c-.985,1.009-1.982,2.009-3,2.99a1.1,1.1,0,0,1-1.735-.017q-1.491-1.453-2.943-2.945a1.108,1.108,0,0,1-.094-1.684,1.126,1.126,0,0,1,1.683.094C1045.683,769.53,1045.984,769.878,1046.411,770.333Z" fill="#fff"/>
      <path id="Trazado_197213" data-name="Trazado 197213" d="M1020.636,748.572a2.031,2.031,0,1,1-4.061.057,2.031,2.031,0,0,1,4.061-.057Z" fill="#fff"/>
    </g>
    <g id="Grupo_134393" data-name="Grupo 134393" transform="translate(-3182.452 -7345.986)">
      <path id="Trazado_197214" data-name="Trazado 197214" d="M878.563,767.652v-22.1a1.013,1.013,0,0,1,.228-.057c3.8.027,7.594-.129,11.386.071a15.932,15.932,0,0,1,14.4,13.034,21.217,21.217,0,0,1,.264,3.358q-.006,10.052-.006,20.1a1.54,1.54,0,0,1-.073.782h-9.546c-.149-.229-.069-.493-.07-.741q-.009-6.643,0-13.285c0-1.009-.162-1.168-1.185-1.168h-15.4Zm20.693-7.9a12.942,12.942,0,0,0-2.17-6.145,9.372,9.372,0,0,0-6.4-3.925c-.5-.081-.993-.041-1.061.594-.061.574.346.716.845.792a7.975,7.975,0,0,1,6.1,4.331,12.019,12.019,0,0,1,1.3,4.483c.052.486.24.91.818.83C899.218,760.636,899.334,760.228,899.256,759.749Z" fill="#fff"/>
      <path id="Trazado_197215" data-name="Trazado 197215" d="M929.761,777.332h-6.836a1.59,1.59,0,0,1-.074-.829q-.006-15.746-.007-31.492a13.2,13.2,0,0,0-13.28-13.364c-2.671.008-5.343,0-8.014,0a13.133,13.133,0,0,0-13.3,12.243,1.275,1.275,0,0,1-.049.18h-5.489a14.857,14.857,0,0,1,1.274-5.85c2.928-6.5,7.938-10.223,15.079-10.648a136.014,136.014,0,0,1,14.547,0,17.186,17.186,0,0,1,15.718,13.415,17.561,17.561,0,0,1,.427,3.761q0,16.062,0,32.124Z" fill="#fff"/>
      <path id="Trazado_197216" data-name="Trazado 197216" d="M893.728,769.078v13.765h-5.521a9.07,9.07,0,0,0-9.624-9.64v-4.125Z" fill="#fff"/>
      <path id="Trazado_197217" data-name="Trazado 197217" d="M879.067,789.8a7.613,7.613,0,1,1,7.762-7.35A7.617,7.617,0,0,1,879.067,789.8Zm4.985-7.624a4.847,4.847,0,0,0-9.694.036,4.847,4.847,0,1,0,9.694-.036Z" fill="#fff"/>
      <path id="Trazado_197218" data-name="Trazado 197218" d="M933.881,785.629H918.707v-2.664c.238-.164.5-.085.751-.086q4.531-.009,9.063,0a6.056,6.056,0,0,0,.632-.019.62.62,0,0,0,.6-.657.626.626,0,0,0-.583-.672,4.138,4.138,0,0,0-.63-.03q-4.531,0-9.063,0a1.5,1.5,0,0,1-.78-.081v-2.619h15.187Z" fill="#fff"/>
      <path id="Trazado_197219" data-name="Trazado 197219" d="M916.817,744.545c0,.389-.26.58-.558.742-.861.47-1.715.952-2.583,1.407a1.6,1.6,0,0,0-.723.719c-.439.85-.911,1.683-1.37,2.523-.172.314-.352.616-.778.605a.774.774,0,0,1-.715-.583,7.641,7.641,0,0,0-4.666-4.665.756.756,0,0,1-.574-.718.738.738,0,0,1,.558-.722,7.674,7.674,0,0,0,4.673-4.658.755.755,0,0,1,1.48-.024,7.7,7.7,0,0,0,4.664,4.665A.805.805,0,0,1,916.817,744.545Z" fill="#fff"/>
      <path id="Trazado_197220" data-name="Trazado 197220" d="M880.162,732.183a5.666,5.666,0,0,0-3.949,3.756,5.924,5.924,0,0,0-3.84-3.8,5.933,5.933,0,0,0,3.771-3.948,12.053,12.053,0,0,0,1.492,2.492A12.261,12.261,0,0,0,880.162,732.183Z" fill="#fff"/>
      <path id="Trazado_197221" data-name="Trazado 197221" d="M911.047,784.262a2.084,2.084,0,1,1-2.067,2.065A2.128,2.128,0,0,1,911.047,784.262Z" fill="#fff"/>
      <path id="Trazado_197222" data-name="Trazado 197222" d="M913.865,764.866a2.061,2.061,0,1,1,2.046-2.059A2.076,2.076,0,0,1,913.865,764.866Z" fill="#fff"/>
      <path id="Trazado_197223" data-name="Trazado 197223" d="M884.052,782.173a4.847,4.847,0,1,1-4.824-4.821A4.869,4.869,0,0,1,884.052,782.173Zm-1.393,0a3.455,3.455,0,0,0-6.909.045,3.455,3.455,0,1,0,6.909-.045Z" fill="#fff"/>
      <path id="Trazado_197224" data-name="Trazado 197224" d="M882.659,782.169a3.455,3.455,0,1,1-3.436-3.424A3.449,3.449,0,0,1,882.659,782.169Z" fill="#fff"/>
    </g>
    <text id="Algunas_de_las_principales_ventajas_del_proceso_de_manufactura_aditiva_son:" data-name="Algunas de las principales ventajas
del proceso de manufactura aditiva son:" transform="translate(-2507.143 -7080.081)" fill="#fff" font-size="20" font-family="Roboto-Regular, Roboto"><tspan x="0" y="21">Algunas de las </tspan><tspan x="0" y="45">principales </tspan><tspan x="0" y="69">ventajas</tspan><tspan x="0" y="93">del proceso de </tspan><tspan x="0" y="117">manufactura </tspan><tspan x="0" y="141">aditiva son:</tspan></text>
    <line id="Línea_193" data-name="Línea 193" x1="169" y2="671" transform="translate(-2305.5 -7142.5)" fill="none" stroke="#707070" stroke-width="1"/>
    <line id="Línea_194" data-name="Línea 194" y1="185" x2="659" transform="translate(-2555.5 -6900.5)" fill="none" stroke="#707070" stroke-width="1"/>
    <line id="Línea_195" data-name="Línea 195" y1="479" x2="496" transform="translate(-2469.5 -7040.5)" fill="none" stroke="#707070" stroke-width="1"/>
    <line id="Línea_196" data-name="Línea 196" x1="184" y1="754" transform="translate(-2320.5 -7225.5)" fill="none" stroke="#707070" stroke-width="1"/>
    <line id="Línea_197" data-name="Línea 197" x1="652" y1="185" transform="translate(-2548.5 -6900.5)" fill="none" stroke="#707070" stroke-width="1"/>
  </g>
</svg>
