<svg xmlns="http://www.w3.org/2000/svg" width="449" height="298.468" viewBox="0 0 449 298.468">
  <g id="Grupo_134516" data-name="Grupo 134516" transform="translate(-3384.5 7678.638)">
    <g id="Grupo_134513" data-name="Grupo 134513">
      <g id="Grupo_134487" data-name="Grupo 134487" transform="translate(-1908 -170.638)">
        <g id="Grupo_134486" data-name="Grupo 134486" transform="translate(4418.5 -8796)">
          <path id="_360_F_39969628_7VhMJmQWanuhhw6z9uxkD9V6FRTuA1M7" data-name="360_F_39969628_7VhMJmQWanuhhw6z9uxkD9V6FRTuA1M7" d="M50,0H449a0,0,0,0,1,0,0V212a50,50,0,0,1-50,50H0a0,0,0,0,1,0,0V50A50,50,0,0,1,50,0Z" transform="translate(874 1300)" fill="none"/>
          <g id="Grupo_132611" data-name="Grupo 132611" transform="translate(863.16 1288)">
            <path id="Unión_1" data-name="Unión 1" d="M8.577,22.568V13.626H0V8.809H8.577V0h5.1V8.809h9.209v4.817H13.674v8.942Z" transform="translate(407.67 236.782)" fill="#ff9500"/>
            <g id="Grupo_78297" data-name="Grupo 78297" transform="translate(20 219.465)" opacity="0.95">
              <path id="Trazado_99257" data-name="Trazado 99257" d="M416.726,103.98a1.257,1.257,0,1,1-1.257-1.2A1.23,1.23,0,0,1,416.726,103.98Z" transform="translate(-414.214 -102.779)" fill="#ff9500"/>
              <path id="Trazado_99258" data-name="Trazado 99258" d="M425.172,103.98a1.257,1.257,0,1,1-1.255-1.2A1.229,1.229,0,0,1,425.172,103.98Z" transform="translate(-411.356 -102.779)" fill="#ff9500"/>
              <ellipse id="Elipse_3975" data-name="Elipse 3975" cx="1.256" cy="1.201" rx="1.256" ry="1.201" transform="translate(0 9.611)" fill="#ff9500"/>
              <path id="Trazado_99268" data-name="Trazado 99268" d="M425.172,111.488a1.257,1.257,0,1,1-1.255-1.2A1.23,1.23,0,0,1,425.172,111.488Z" transform="translate(-411.356 -100.676)" fill="#ff9500"/>
              <path id="Trazado_99274" data-name="Trazado 99274" d="M416.726,119a1.257,1.257,0,1,1-1.257-1.2A1.23,1.23,0,0,1,416.726,119Z" transform="translate(-414.214 -98.574)" fill="#ff9500"/>
              <path id="Trazado_99275" data-name="Trazado 99275" d="M425.172,119a1.257,1.257,0,1,1-1.255-1.2A1.23,1.23,0,0,1,425.172,119Z" transform="translate(-411.356 -98.574)" fill="#ff9500"/>
              <ellipse id="Elipse_3980" data-name="Elipse 3980" cx="1.256" cy="1.201" rx="1.256" ry="1.201" transform="translate(0 28.83)" fill="#ff9500"/>
              <path id="Trazado_99285" data-name="Trazado 99285" d="M425.172,126.5a1.257,1.257,0,1,1-1.255-1.2A1.229,1.229,0,0,1,425.172,126.5Z" transform="translate(-411.356 -96.473)" fill="#ff9500"/>
              <ellipse id="Elipse_3985" data-name="Elipse 3985" cx="1.256" cy="1.201" rx="1.256" ry="1.201" transform="translate(0 38.44)" fill="#ff9500"/>
              <path id="Trazado_99291" data-name="Trazado 99291" d="M425.172,134.012a1.257,1.257,0,1,1-1.255-1.2A1.229,1.229,0,0,1,425.172,134.012Z" transform="translate(-411.356 -94.37)" fill="#ff9500"/>
            </g>
            <circle id="Elipse_4859" data-name="Elipse 4859" cx="28.391" cy="28.391" r="28.391" transform="translate(33.028 241.686)" fill="#0ca4ca" opacity="0.5"/>
            <ellipse id="Elipse_4860" data-name="Elipse 4860" cx="16.015" cy="15.651" rx="16.015" ry="15.651" transform="translate(409.81 0)" fill="#ff9500" opacity="0.5"/>
          </g>
          <g id="Grupo_133546" data-name="Grupo 133546" transform="translate(975 1307.076)">
            <path id="Trazado_197322" data-name="Trazado 197322" d="M35.31,246.109l26.3-40.756-34.935-4.319L58.036,189.39,0,153.327l58.788-8.454-24.98-24.789,62.733,6.573,89.776-55.971L169.224,98.295l58.225-17.47-36.625,65.553,40.946-.564-41.7,19.158,56.158,33.243-62.919,3.945,28.36,34.37-43.761-12.207,7.888,49.96-25.376-40.569-8.994,25.356-3.568-24.417-39.35,47.825,5.353-48.013L74.189,257.192l11.082-26.858Z" transform="translate(0 -36.212)" fill="#ff9500"/>
            <g id="Grupo_133545" data-name="Grupo 133545" transform="translate(35.309 0.924)">
              <g id="Grupo_133542" data-name="Grupo 133542" transform="translate(28.737)">
                <g id="Grupo_133535" data-name="Grupo 133535" transform="translate(1.315 20.404)">
                  <path id="Trazado_197323" data-name="Trazado 197323" d="M185.881,135.552l-15.212-27.984,14.086-5.636,6.761,33.62Z" transform="translate(-153.952 -73.759)" fill="#f68"/>
                  <path id="Trazado_197324" data-name="Trazado 197324" d="M180.8,67.766,145.3,89.921l-9.39-11.076,61.041-35.5,1.314,6.762S179.482,54.243,180.8,67.766Z" transform="translate(-135.909 -43.35)" fill="#f68"/>
                </g>
                <g id="Grupo_133539" data-name="Grupo 133539" transform="translate(63.67)">
                  <g id="Grupo_133536" data-name="Grupo 133536" transform="translate(0 1.182)">
                    <path id="Trazado_197325" data-name="Trazado 197325" d="M265.566,22.6S281.719.815,287.356,3.633,265.566,22.6,265.566,22.6Z" transform="translate(-265.566 -3.381)" fill="#0ca4ca"/>
                  </g>
                  <g id="Grupo_133537" data-name="Grupo 133537" transform="translate(3.008 13.814)">
                    <path id="Trazado_197326" data-name="Trazado 197326" d="M271.821,39.43s28.735-14.087,31.741-8.453S271.821,39.43,271.821,39.43Z" transform="translate(-271.821 -29.647)" fill="#0ca4ca"/>
                  </g>
                  <g id="Grupo_133538" data-name="Grupo 133538" transform="translate(21.79)">
                    <path id="Trazado_197327" data-name="Trazado 197327" d="M310.875,11.718s14.272-12.929,16.9-10.487S310.875,11.718,310.875,11.718Z" transform="translate(-310.875 -0.924)" fill="#0ca4ca"/>
                  </g>
                </g>
                <g id="Grupo_133541" data-name="Grupo 133541" transform="translate(0 66.975)">
                  <path id="Trazado_197328" data-name="Trazado 197328" d="M177.758,256.908l2.371,4.432,58.222-26.3L211.124,140.2s-57.1-1.5-77.949,39.065l4.036,6,15,43.278,20.81,26.132Z" transform="translate(-133.175 -140.188)" fill="#0ca4ca"/>
                  <g id="Grupo_133540" data-name="Grupo 133540" transform="translate(13.482 12.15)">
                    <path id="Trazado_197329" data-name="Trazado 197329" d="M167.053,199.75l14.582,37.074,49.4-16.512-13.75-45.879Z" transform="translate(-164.242 -170.114)" fill="#255065"/>
                    <path id="Trazado_197330" data-name="Trazado 197330" d="M168.793,237.216,229.9,212.632l-3.577-11.761-61.537,27.288Z" transform="translate(-163.066 -183.838)" fill="#0ca4ca"/>
                    <path id="Trazado_197331" data-name="Trazado 197331" d="M206.8,189.475l18.127,47.837,10.971-4.054-18.48-49.636Z" transform="translate(-184.872 -174.884)" fill="#0ca4ca"/>
                    <path id="Trazado_197332" data-name="Trazado 197332" d="M177.089,237.482l-15.881-43.276L215.2,165.453l16.309,53.056-.406.143Zm-14.775-42.854,15.311,41.722,52.78-18.4-15.739-51.2Z" transform="translate(-161.208 -165.453)" fill="#255065"/>
                  </g>
                  <path id="Trazado_197333" data-name="Trazado 197333" d="M142.071,205.812l9.756-13.26,34.6,93.011Z" transform="translate(-137.793 -167.369)" fill="#fff" opacity="0.5" style="isolation: isolate"/>
                  <path id="Trazado_197334" data-name="Trazado 197334" d="M264.407,149.215c.9,2.408-4.124,6.5-11.215,9.139s-13.569,2.828-14.465.417,4.126-6.5,11.217-9.137S263.511,146.805,264.407,149.215Z" transform="translate(-187.911 -143.996)" fill="#fff" opacity="0.5" style="isolation: isolate"/>
                </g>
              </g>
              <path id="Trazado_197335" data-name="Trazado 197335" d="M116.8,241.428l29.938,55.86C131.864,301.565,126.386,285,126.386,285s-22.892,19.543-39,33.151L73.42,322.568l11.6-17.962,32.736-26.929s-26.3-28.544-12.591-50.526c.328-.531.675-1.035,1.034-1.511,14.394-19.3,48.552,3.96,48.552,3.96l-12.583,22.535Z" transform="translate(-73.42 -113.593)" fill="#ffbfa5"/>
              <g id="Grupo_133544" data-name="Grupo 133544" transform="translate(86.962 66.466)">
                <path id="Trazado_197336" data-name="Trazado 197336" d="M254.244,169.134s17.465-34.572,37.939-29.5,33.244,67.625-14.274,96.922Z" transform="translate(-254.244 -139.13)" fill="#ffbfa5"/>
                <g id="Grupo_133543" data-name="Grupo 133543" transform="translate(4.43 4.609)">
                  <path id="Trazado_197337" data-name="Trazado 197337" d="M264.8,191.463l-1.349-3.834,33.067-38.916,2.956,2.5Z" transform="translate(-263.455 -148.713)" fill="#000d33"/>
                  <path id="Trazado_197338" data-name="Trazado 197338" d="M282,231.744l-1.545-3.912,36.06-47.264,3.078,2.349Z" transform="translate(-272.279 -165.248)" fill="#000d33"/>
                  <path id="Trazado_197339" data-name="Trazado 197339" d="M295.871,274.6l-1.326-3.458,31.325-43.972,3.153,2.247Z" transform="translate(-279.593 -189.438)" fill="#000d33"/>
                </g>
              </g>
            </g>
          </g>
        </g>
      </g>
    </g>
  </g>
</svg>
