<svg xmlns="http://www.w3.org/2000/svg" width="449" height="298.468" viewBox="0 0 449 298.468">
  <g id="Grupo_134517" data-name="Grupo 134517" transform="translate(-4413.745 7683.734)">
    <g id="Grupo_134488" data-name="Grupo 134488" transform="translate(-2534 -175)">
      <g id="Grupo_134366" data-name="Grupo 134366" transform="translate(6073.745 -8796.734)">
        <path id="_360_F_39969628_7VhMJmQWanuhhw6z9uxkD9V6FRTuA1M7" data-name="360_F_39969628_7VhMJmQWanuhhw6z9uxkD9V6FRTuA1M7" d="M50,0H449a0,0,0,0,1,0,0V212a50,50,0,0,1-50,50H0a0,0,0,0,1,0,0V50A50,50,0,0,1,50,0Z" transform="translate(874 1300)" fill="none"/>
        <g id="Grupo_132611" data-name="Grupo 132611" transform="translate(863.16 1288)">
          <path id="Unión_1" data-name="Unión 1" d="M8.577,22.568V13.626H0V8.809H8.577V0h5.1V8.809h9.209v4.817H13.674v8.942Z" transform="translate(407.67 236.782)" fill="#ff9500"/>
          <g id="Grupo_78297" data-name="Grupo 78297" transform="translate(20 219.465)" opacity="0.95">
            <path id="Trazado_99257" data-name="Trazado 99257" d="M416.726,103.98a1.257,1.257,0,1,1-1.257-1.2A1.23,1.23,0,0,1,416.726,103.98Z" transform="translate(-414.214 -102.779)" fill="#ff9500"/>
            <path id="Trazado_99258" data-name="Trazado 99258" d="M425.172,103.98a1.257,1.257,0,1,1-1.255-1.2A1.229,1.229,0,0,1,425.172,103.98Z" transform="translate(-411.356 -102.779)" fill="#ff9500"/>
            <ellipse id="Elipse_3975" data-name="Elipse 3975" cx="1.256" cy="1.201" rx="1.256" ry="1.201" transform="translate(0 9.611)" fill="#ff9500"/>
            <path id="Trazado_99268" data-name="Trazado 99268" d="M425.172,111.488a1.257,1.257,0,1,1-1.255-1.2A1.23,1.23,0,0,1,425.172,111.488Z" transform="translate(-411.356 -100.676)" fill="#ff9500"/>
            <path id="Trazado_99274" data-name="Trazado 99274" d="M416.726,119a1.257,1.257,0,1,1-1.257-1.2A1.23,1.23,0,0,1,416.726,119Z" transform="translate(-414.214 -98.574)" fill="#ff9500"/>
            <path id="Trazado_99275" data-name="Trazado 99275" d="M425.172,119a1.257,1.257,0,1,1-1.255-1.2A1.23,1.23,0,0,1,425.172,119Z" transform="translate(-411.356 -98.574)" fill="#ff9500"/>
            <ellipse id="Elipse_3980" data-name="Elipse 3980" cx="1.256" cy="1.201" rx="1.256" ry="1.201" transform="translate(0 28.83)" fill="#ff9500"/>
            <path id="Trazado_99285" data-name="Trazado 99285" d="M425.172,126.5a1.257,1.257,0,1,1-1.255-1.2A1.229,1.229,0,0,1,425.172,126.5Z" transform="translate(-411.356 -96.473)" fill="#ff9500"/>
            <ellipse id="Elipse_3985" data-name="Elipse 3985" cx="1.256" cy="1.201" rx="1.256" ry="1.201" transform="translate(0 38.44)" fill="#ff9500"/>
            <path id="Trazado_99291" data-name="Trazado 99291" d="M425.172,134.012a1.257,1.257,0,1,1-1.255-1.2A1.229,1.229,0,0,1,425.172,134.012Z" transform="translate(-411.356 -94.37)" fill="#ff9500"/>
          </g>
          <circle id="Elipse_4859" data-name="Elipse 4859" cx="28.391" cy="28.391" r="28.391" transform="translate(33.028 241.686)" fill="#0ca4ca" opacity="0.5"/>
          <ellipse id="Elipse_4860" data-name="Elipse 4860" cx="16.015" cy="15.651" rx="16.015" ry="15.651" transform="translate(409.81 0)" fill="#ff9500" opacity="0.5"/>
        </g>
        <g id="Grupo_134367" data-name="Grupo 134367" transform="translate(-5995.245 11722)">
          <g id="Grupo_133554" data-name="Grupo 133554" transform="translate(6929.54 -10449.247)">
            <path id="Trazado_197341" data-name="Trazado 197341" d="M85.835,239.457c17.934,17.457,40.434,43.612,68.314,38.933,6.4-1.075,24.2-14.328,27.522-12.558,7.271,3.877,17.161,10.8,25.9,10.8a12.884,12.884,0,0,0,7.747-2.732,63.558,63.558,0,0,0,15.4,3.237,44.054,44.054,0,0,0,34.756-11.429c17.457-16.2,15.435-44.906,1.071-62.346-14.745-17.9-42.915-23.58-49.1-48.42-2.413-9.7,13.148-10.621,13.94-23.047A144.98,144.98,0,0,0,233,106.72c-.112-9.387-1.691-15.593-.371-25.169,1.155-7.191,3.052-20.271-8.289-20.271-9.8,0-14.181,12.511-17.009,19.856-2.984,7.752-10.16,12.61-14.739,19.948-3.913,6.271-10.246,13.871-11.9,21.425-1.115,5.1.691,10.266,3.687,14.355,4.912,6.706,2.661,12.518,3.893,20.851,3.812,25.8,21.08,39.908,41.344,53.735,17.8,12.143,29.82,41.992-2.153,38-.034-11.528-15.551-15.822-23.982-19.568-3.173-4.621,2.348-16.658-2.238-24.621-4.5-7.816-13.758-12.063-21.276-16.414-4.634-2.681-9.337-5.248-13.873-8.1,2.753-5.163,4.439-11.3,5.621-16.995,2.1-10.121,1.639-21.917-4.42-30.691-5.86-8.487,5.984-15.377,6.547-25.89.479-8.929-3.831-2.963,2.212-10.694,3.576-4.575,6.733-10.072,6.914-16.063.315-10.4-12.037-19.624-19.152-25.227-4.829-16.79-32.163-19.846-45.247-12.334C104.535,50.914,98.681,67.1,92.226,81.1q-14.712,31.892-27.919,64.494c-6.56,16.257-18.592,37.985-11.866,55.79-3.305,14.6,14.684,48.855,33.395,38.079Z" transform="translate(0 0)" fill="#fff"/>
            <g id="Grupo_133553" data-name="Grupo 133553" transform="translate(56.609 45.651)">
              <path id="Trazado_197342" data-name="Trazado 197342" d="M63.888,206.31c-3.524,11.55,2.206,21.825,11.311,28.9,3.128,2.431,7.328,5.55,11.491,4.663a5.49,5.49,0,0,0,2.732-1.862c1.513-1.682,1.542-1.63,2.831-.373,9.982,9.736,20.021,19.5,30.99,28.125,6.571,5.165,14.015,10.418,22.426,11.884a36.216,36.216,0,0,0,17.875-1.4,49.407,49.407,0,0,0,19.549-13.8c2.162,1.193,4.432,2.239,6.431,3.3A196.09,196.09,0,0,0,207.2,274.3c3.485,1.43,5.867,2.493,9.183.171a14.3,14.3,0,0,0,2.659-2.631c4.928,3.132,14.032,4.161,17.326,4.534a37.438,37.438,0,0,0,29.864-9.82c9.182-8.519,11.713-20.829,9.954-32.823-1.971-13.444-9.911-23.909-20.9-31.374-12.458-8.465-25.027-14.977-33.48-27.968a44.231,44.231,0,0,1-6.761-22.07,26.209,26.209,0,0,1,.086-3.634c7.7.187,14.8-4.2,15.074-12.213a1.507,1.507,0,0,0,.064-.315c.758-7.986,1.609-15.96,1.513-23.994-.058-4.815-.644-8.633-2.988-11.5a1.48,1.48,0,0,0,.086-.259c1.085-4.773,1.83-9.63,2.609-14.46.548-3.4,2.168-8.3.386-11.531a2.792,2.792,0,0,0-2.442-1.586c-3.1-.1-5.481,3.225-7.5,7.076-2.7,5.153-4.68,10.977-6.66,16.262-3.719,1.15-6.508,4.423-8.954,8.074-4.677,6.982-8.83,14.312-13.124,21.531a1.5,1.5,0,0,0-.131.283c-.053.079-.111.147-.162.228-4.1,6.464,1.372,13.724,6.63,17.312A59.688,59.688,0,0,0,221.948,200.7c12.142,9.394,26.732,15.46,34.643,29.346,3.9,6.853,5.048,15.253,1.351,22.415-3.062,5.929-9.6,8.424-15.868,9.06a41.055,41.055,0,0,1-10.626-.606c-1.716-.277-3.841-1.186-5.824-1.66a20.636,20.636,0,0,0,.623-4.2c.056-3.158-1.321-4.543-4.09-6.184a167.5,167.5,0,0,0-17.483-8.536c-2.022-.9-4.091-1.88-6.19-2.792,3.91-7.522,6.944-15.885,2.368-23.831-3.029-5.26-10.044-8.771-15.007-11.781-6.287-3.814-12.822-7.217-19.019-11.18a24.871,24.871,0,0,1-3.086-2.262c-1.126-.994,1.415-4.253,2-5.547a71.862,71.862,0,0,0,4.887-15.069c2.106-10.147,1.286-24.145-8.141-30.621a6.932,6.932,0,0,0-2.389-1.09,122.663,122.663,0,0,0,10.492-17.319c2.259-4.713,3.825-10.133-1.77-12.533,4.15-4.522,9.867-10.175,11.993-16.231,2.407-6.853-.05-8.909-3.759-13.434-3.925-4.784-9.07-8.886-13.787-12.552-.025-.02-.053-.032-.078-.049-.362-3.32-2.24-6.467-6.18-9.157a22.04,22.04,0,0,0-16.275-3.271,1.472,1.472,0,0,0-.3-.091c-5.2-.98-9.161-.629-13.835,2.055-9.968,5.722-12.937,12.9-18.107,23.443-4.9,9.989-9.434,20.157-13.932,30.331C84.852,129.3,75.344,151.425,66.945,173.92c-3.02,8.207-6.723,17.888-4.9,26.8a26.3,26.3,0,0,0,1.848,5.587Z" transform="translate(-61.559 -51.021)" fill="#68182b"/>
              <path id="Trazado_197343" data-name="Trazado 197343" d="M74.611,253.657c12.411-35.077,29.282-69.06,48.089-101.11,2.663-4.537,4.938-.628,4.968,2.588.027,2.815-2.056,5.385-3.436,7.691-2.594,4.338-5.083,8.739-7.525,13.164-5.1,9.252-9.888,18.68-14.5,28.184-8.577,17.665-16.438,35.683-23.785,53.893a37.056,37.056,0,0,1-3.808-4.411Z" transform="translate(-67.381 -95.384)" fill="#aee0ed"/>
              <path id="Trazado_197344" data-name="Trazado 197344" d="M179.735,282.026a27.147,27.147,0,0,1-2.292,6.516c-1.9,3.752-7.642-1.968-10.918-5.888-2.253-2.7-2.556-3.21-.7-6.529,2.8-5.02,5.548-10.043,8.139-15.156C180.048,266.536,181.448,274.057,179.735,282.026Z" transform="translate(-107.522 -144.661)" fill="#ff5671"/>
              <path id="Trazado_197345" data-name="Trazado 197345" d="M171.291,361.685c-8.467-1.477-16.126-7.6-22.633-12.813-9.887-7.921-19-16.827-28.069-25.679-1.67-1.63-2.054-2.932.289-3.774,1.852-.665,3.92-.176,6.744,1.792,12.3,8.573,21.488,20.522,34.6,28.12,7.268,4.209,15.735,8.1,23.482,2.895,7.4-4.966,14.061-17.024,11.651-25.973-2.591-9.624-16.863-15.2-24.488-19.562a194.711,194.711,0,0,1-19.33-12.223A39.584,39.584,0,0,1,144,285.153a10.757,10.757,0,0,1-1.287-9.347c2.724,3.993,7.324,9.532,11.966,9.6,3.842.06,4.792-1.846,6.08-5.06,4.019-10.023,2.729-21.569-5.78-28.747l-.007-.005c.622-1.264,1.248-2.524,1.846-3.8.326-.7.68-1.42,1.049-2.162,9.392,7.331,13.688,16.824,11.269,28.851-1.121,5.573-4.928,12.1-4.009,17.9.914,5.761,9.938,8.537,14.365,10.766,9.124,4.595,21.568,11.143,24.993,21.552,2.821,8.574-4.147,18.685-11.478,26.711-5.6,6.131-13.007,11.792-21.719,10.272Z" transform="translate(-87.281 -137.822)" fill="#18a9cd"/>
              <path id="Trazado_197346" data-name="Trazado 197346" d="M240.286,440.2c6.546-3.905,12.244-10.539,16.122-17.391a4.583,4.583,0,0,0,1.079,1.715,19.343,19.343,0,0,0,2.964,2.337C255.265,432.653,248.023,437.9,240.286,440.2Z" transform="translate(-141.274 -216.843)" fill="#18a9cd"/>
              <path id="Trazado_197347" data-name="Trazado 197347" d="M352.2,97.855c2.939-4.895,4.386-3.052,3.639,2.191-.865,6.052-1.8,12.148-3.109,18.127a17.014,17.014,0,0,0-4.044-2.038,12.721,12.721,0,0,0-4.1-.8C346.314,110.845,349.415,102.5,352.2,97.855Z" transform="translate(-187.796 -70.637)" fill="#d5d5d5"/>
              <path id="Trazado_197348" data-name="Trazado 197348" d="M316.279,149.136c4.045-6.523,7.218-13.8,16.328-11.578,8.885,2.17,7.5,12.318,7.248,19.336-.132,3.663-.438,7.314-.781,10.962-3.077-4.427-9.091-7.025-13.9-8.561-4.984-1.592-10.481-1.947-15.016-.027C312.175,155.876,314.2,152.489,316.279,149.136Z" transform="translate(-172.439 -89.435)" fill="#5d7581"/>
              <path id="Trazado_197349" data-name="Trazado 197349" d="M307.109,197.979c-4.893-3.7-8.024-9.614-3.25-15.159,4.015-4.663,11.581-3.416,16.726-2,4.85,1.337,9.991,3.883,12.762,8.227a8.024,8.024,0,0,1-1.818,10.972,15.394,15.394,0,0,1-9,3.263,30.175,30.175,0,0,1,1.035-3.922c.731-2.174,1.317-3.54.79-5.817-1.059-4.575-6.6-7.265-10.864-6.21-2.952.729-4.339,3.261-5.287,6.427q-.627,2.1-1.1,4.216Z" transform="translate(-168.572 -108.339)" fill="#5d7581"/>
              <path id="Trazado_197350" data-name="Trazado 197350" d="M356.052,329.659c9.456-.961,16.675-6.869,19.009-16.086,2.937-11.6-4.863-23.693-12.979-31.165-13.055-12.02-30.088-17.87-39.886-33.475-9.008-14.346-10.5-32.772-5.006-48.627,1.813-3.567,5.74-2.392,8.289-.36,3.139,2.5,1.574,5.332.566,8.327-1.939,5.764-1.23,12.322-.068,18.155,2.393,12.016,10.173,22.34,19.54,29.908,10.861,8.778,24.938,13.836,33.376,25.375,9.059,12.386,10.84,31.021,2.02,43.868-8.351,12.163-23.384,15.61-37.15,12.806a52.206,52.206,0,0,1-8.05-2.457c-1.552-.587-4.373-1.28-4.587-3.424-.239-2.375,2.507-5.5,4.994-5.129,6.9,1.031,12.8,3.009,19.931,2.285Z" transform="translate(-174.144 -116.583)" fill="#5d7581"/>
              <path id="Trazado_197351" data-name="Trazado 197351" d="M344.256,418.851a18.579,18.579,0,0,1-.537,2.6h-.007c-3.679.467-5.952,3.1-6.923,6.592a4.724,4.724,0,0,0,1.145,4.678c-2.1,2.931-5.609,5.228-5.5-.517a24.849,24.849,0,0,1,1.033-5.7c.783-2.9,3.128-7.414,6.263-9.572,4.381-3.02,4.93-1.649,4.524,1.918Z" transform="translate(-182.374 -213.483)" fill="#ff9b0d"/>
              <path id="Trazado_197352" data-name="Trazado 197352" d="M315.055,401.158c-4.02,1.292-7.311,5.585-8.988,9.131-1.3,2.74-3.028,8.238-2.134,12.2-1.012-.419-2.11-.965-3.384-1.529-4.358-1.929-8.621-4.083-12.85-6.277-3.667-1.9-7.311-3.871-10.837-6.027-4.769-2.916-2.172-8.514.04-12.633,1.511-2.813,5.28-9.2,9.153-8,1.578.489,3.992,1.189,29,13.132Z" transform="translate(-156.391 -201.265)" fill="#ff9b0d"/>
              <path id="Trazado_197353" data-name="Trazado 197353" d="M242.948,311.93a177.851,177.851,0,0,1,16.477,10.248c3.324,2.422,5.847,5.149,7,9.236,1.6,5.678-1.61,12.174-4.313,17.214a38.985,38.985,0,0,0-5.225-1.671c-3.445-.808-6.753,3.141-8.917,6.279-.3-7.672-6.379-13.982-12.425-18.536a94.551,94.551,0,0,0-14.255-8.567c-2.731-1.387-6.6-2.787-9.567-4.755-2.462-1.631-2.619-1.707.337-4.152,2.859-2.364,5.576-4.912,8.28-7.438,2.412-2.253,5.44-4.634,7.6-7.354a7.8,7.8,0,0,0,.9.849c4.254,3.436,9.382,5.939,14.107,8.647Z" transform="translate(-127.704 -163.155)" fill="#18a9cd"/>
              <path id="Trazado_197354" data-name="Trazado 197354" d="M220.755,211.58c10.9,10.007,5.62,29.33.753,40.738-2.349,5.506-4.571,7.973-10.447,13.534-2.566,2.428-5.158,4.893-7.872,7.188-2.69,2.275-3.475,3.109-3.046.427a40.328,40.328,0,0,1,1.544-5.387,74.289,74.289,0,0,0,3.09-12.556c1.285-10.831-2.9-19.718-11.1-26.748-.574-.492-1.2-.964-1.824-1.426a205.358,205.358,0,0,1,19.619-15.283C215.158,209.592,217.285,208.4,220.755,211.58Z" transform="translate(-119.674 -121.774)" fill="#ffdbaa"/>
              <path id="Trazado_197355" data-name="Trazado 197355" d="M222.916,169.241a146.112,146.112,0,0,1-8.952,13.746,15.932,15.932,0,0,0-2.646,1.287A126.472,126.472,0,0,0,193.254,197.7c1.556-3.544,2.775-7.177,2.823-10.523s-2.4-6.525-4.939-9.191c-1.552-1.629-1.022-2.157.938-3.058,9.649-4.44,18.473-11.471,27.266-17.1,2.05-1.312,4.067-3.431,6.432-1.96,4.309,2.68-1.289,10.548-2.858,13.372Z" transform="translate(-118.95 -97.562)" fill="#18a9cd"/>
              <path id="Trazado_197356" data-name="Trazado 197356" d="M235.478,112.951c-.46,2.35-2.044,4.553-3.338,6.507-2.868,4.33-6.553,8.187-9.953,12.1a18.767,18.767,0,0,0-2.978,1.748c-3.642,2.238-7.195,4.629-10.771,6.969-6.241,4.085-12.7,8.848-19.654,11.862q3.4-7.412,6.6-14.917c1.433-3.383,1.446-6.022.614-8.36,7.255-6.455,18.612-12.06,28.162-16.619,1.876-.895,3.784-1.834,5.734-2.656C235.622,107.169,236.412,108.186,235.478,112.951Z" transform="translate(-118.304 -76.579)" fill="#ff5671"/>
              <path id="Trazado_197357" data-name="Trazado 197357" d="M195.266,57.662c4.989-2.035,10.8-1.452,15.858.829a14.432,14.432,0,0,1,5.55,4.319c2.515,3.263,3.455,5.568-.285,8.325-6.94,5.116-22.443,1.687-25.347-6.231-1.305-3.559.2-5.6,4.223-7.242Z" transform="translate(-119.107 -53.427)" fill="#18a9cd"/>
              <path id="Trazado_197358" data-name="Trazado 197358" d="M212.287,80.791a45.324,45.324,0,0,1-3.09,4.021c-5.353,6.359-13.047,6.7-20.133,3.039-7.526-3.885-8.461-11.125-4.772-17.544C186.181,80.315,202.783,85.528,212.287,80.791Z" transform="translate(-115.365 -59.623)" fill="#ff9b0d"/>
              <path id="Trazado_197359" data-name="Trazado 197359" d="M166.651,64c3.627-3.974,8.122-6.973,13.293-7.638a22.637,22.637,0,0,0-6.386,6.755c-3.8,6.821-3.061,14.292,3.962,19.592,7.99,6.031,18.91,5.317,25.457-2.193a24.636,24.636,0,0,0,5.481-9.5,10.892,10.892,0,0,0,.644-.984,79.762,79.762,0,0,1,10.351,9.37c2.323,2.62,1.722,3.2-1.513,4.47-9.993,3.913-20.521,9.081-29.352,15.509-3.721,2.708-4.811,3.661-6.79,1.357-1.367-1.593-2.988-3.194-4.638-4.986-6.074-6.6-11.5-13.969-12.986-22.715C163.5,69.093,164.225,66.659,166.651,64Z" transform="translate(-107.22 -53.403)" fill="#ffdbaa"/>
              <path id="Trazado_197360" data-name="Trazado 197360" d="M71.693,189.165c8.162-21.862,17.4-43.347,26.8-64.7,4.286-9.738,8.654-19.443,13.253-29.038,1.613-3.367,3.266-6.718,5.031-10.009.261-.488.572-1.157.916-1.84C118.98,96.1,127.79,105.8,136.313,114.719c4.9,5.122,2.051,10.27-.374,15.861-1.947,4.489-3.985,8.94-6.049,13.378-4.15,8.921-8.541,17.728-13,26.5-8.63,16.954-17.6,33.736-26.453,50.572-2.267,4.309-5.642,13.784-11.639,10.612-2.4-1.266-3.028-1.687-1.408-5.664,8.267-20.314,17.218-40.354,27.043-59.964q7.607-15.179,16.14-29.871c2.241-3.836,5.07-7.31,5.026-11.929-.018-2-1.255-5.3-3.6-5.575-3.054-.356-4.334,3.126-5.6,5.289-2.511,4.3-4.942,8.65-7.338,13.016-5.412,9.865-10.546,19.882-15.49,29.99a542.64,542.64,0,0,0-23.783,55.224,24.923,24.923,0,0,1-2.144-4.178c-3.571-9.127.886-20.211,4.049-28.809Z" transform="translate(-63.684 -65.542)" fill="#ff9500"/>
              <path id="Trazado_197361" data-name="Trazado 197361" d="M152.3,289.864c-11.055-6.329-23.911-12.629-32.024-22.775-7.859-9.829.551-19.956,5.317-28.957,2.757-5.209,7.718-16.027,10.3-21.723,1.864-4.113,4.836-9.252,1.925-13.6a31.6,31.6,0,0,0-2.272-2.967c-2.042-2.38-2.865-1.957-4.867,2.235-6.4,13.393-13.193,26.6-20.089,39.745q-8.341,15.9-16.715,31.785c-2.506,4.764-6.06,16.721-13.793,12.627a30.128,30.128,0,0,1-11.031-10.583,21.449,21.449,0,0,0,5.749,18.3,36.861,36.861,0,0,0,7.68,6.525,24.591,24.591,0,0,0,3.739,2.054c3.493,1.377,5.267-1.73,6.938-3.891,1.648-2.129,3.82-4.331,6.713-3.869,5.36.857,10.019,5.4,13.947,8.894,10.213,9.088,19.578,19.009,32.189,24.854,4.2,1.945,9.564,3.929,13.992,1.42,5.322-3.015,9.606-9.357,11.549-15.074,4.571-13.455-9.583-19.473-19.244-25Zm9.76,28.861c-1.9,3.576-5.958,5.712-11.473,4.514-9.23-2-20.47-9.948-23.6-19.234-2.719-8.064,2.828-15.145,11.588-13.3,6.249,1.318,12.652,5.064,17.583,9.875,4.66,4.545,9.5,11.385,5.9,18.142Z" transform="translate(-64.771 -116.752)" fill="#ffdbaa"/>
              <path id="Trazado_197362" data-name="Trazado 197362" d="M182.4,369.579c3.536-1.028,7.812,1.029,10.842,2.589a40.424,40.424,0,0,1,9.9,7.207c4.4,4.4,7.885,9.285,5.046,14.349a6.866,6.866,0,0,1-5.451,3.283c-3.55.463-7.357-1.31-10.385-2.9-6.049-3.166-12.528-9.005-14.759-15.62-1.445-4.287.528-7.669,4.8-8.912Z" transform="translate(-113.104 -192.98)" fill="#ff5671"/>
              <g id="Grupo_133552" data-name="Grupo 133552" transform="translate(71.479 5.107)">
                <path id="Trazado_197363" data-name="Trazado 197363" d="M214.062,306.619c-4.427-2.23-13.452-5.006-14.365-10.767-.92-5.8,2.887-12.324,4.009-17.9,1.969-9.794-.516-17.907-6.579-24.541a34.86,34.86,0,0,1,2.908,28.461c-1.643,5.113-4.291,9.665-2.927,15.194,1.022,4.14,5.691,6.252,8.968,8.285,5.143,3.189,10.551,5.928,15.711,9.091,5.694,3.491,11.459,7.6,14.036,14.006,3.224,8.008-.714,16.192-5.405,23.175,6.147-7.4,11.089-16,8.637-23.455-3.425-10.408-15.87-16.957-24.993-21.552Z" transform="translate(-193.327 -146.399)" fill="#1689a7"/>
                <path id="Trazado_197364" data-name="Trazado 197364" d="M246.478,443.772a37.462,37.462,0,0,1-6.192,4.7,41.971,41.971,0,0,0,13.463-7.115,36.365,36.365,0,0,1-7.271,2.419Z" transform="translate(-212.754 -230.223)" fill="#1689a7"/>
                <path id="Trazado_197365" data-name="Trazado 197365" d="M256.888,355.629a38.984,38.984,0,0,1,5.225,1.671c2.7-5.041,5.918-11.536,4.313-17.214,0-.006,0-.011-.006-.017a19.306,19.306,0,0,1-2.585,7.687,9.321,9.321,0,0,1-8.406,4.62c-4.359-.058-7.545-3.492-10.532-6.185a71.2,71.2,0,0,0-16.773-11.216,35.589,35.589,0,0,1-8.433-5.14,8.625,8.625,0,0,1-3.039-7.956c-1.5,1.372-3.025,2.724-4.591,4.02-2.957,2.445-2.8,2.521-.337,4.153,2.968,1.968,6.836,3.368,9.568,4.755a94.477,94.477,0,0,1,14.254,8.568c6.046,4.554,12.126,10.864,12.425,18.535,2.165-3.138,5.473-7.087,8.918-6.279Z" transform="translate(-199.183 -176.935)" fill="#1689a7"/>
                <path id="Trazado_197366" data-name="Trazado 197366" d="M215.908,196.184c2.607-3.658,5.167-7.368,7.476-11.226q-1.6,1.244-3.238,2.431c-3.8,2.755-7.452,5.757-11.453,8.221-2.1,1.293-4.644,2.815-7.2,2.335-1.663-.312-3.014-1.748-4.194-2.86a19.14,19.14,0,0,0-2.71-2.213c1.915,2.277,3.467,4.829,3.43,7.5-.047,3.347-1.268,6.98-2.823,10.524a126.475,126.475,0,0,1,18.064-13.426,15.908,15.908,0,0,1,2.645-1.287Z" transform="translate(-192.373 -115.866)" fill="#1689a7"/>
                <path id="Trazado_197367" data-name="Trazado 197367" d="M191.044,66.61c2.9,7.918,18.408,11.347,25.347,6.231,2.08-1.533,2.709-2.926,2.429-4.422-3.595,3.743-9.168,4.242-14.452,2.907C198.873,69.938,193,66.177,193.451,60.24,190.824,61.742,189.959,63.653,191.044,66.61Z" transform="translate(-190.587 -60.24)" fill="#1689a7"/>
              </g>
              <path id="Trazado_197368" data-name="Trazado 197368" d="M203.517,61.11c-4.681,1.055,2.8,5.508,3.915,6.022a22.713,22.713,0,0,0,7.106,2.034c5.32.4,7.166-2.984.963-5.8C211.717,61.642,206.181,60.509,203.517,61.11Z" transform="translate(-124.194 -55.448)" fill="#ddf3f7"/>
              <path id="Trazado_197369" data-name="Trazado 197369" d="M259.577,323.884a114.129,114.129,0,0,0-13.677-8.038c-3.389-1.684-7.088-2.589-9.56,1.229-2.288,3.534-.943,7.088,2.161,9.559a25.857,25.857,0,0,0,5.714,3.084,44.3,44.3,0,0,1,7.08,3.944c4.225,2.881,7.669,7.5,12.455,9.43,5.176,2.092,9.894-1.783,8.417-7.009-1.406-4.979-8.906-9.676-12.59-12.2Z" transform="translate(-139.002 -168.49)" fill="#ddf3f7"/>
              <path id="Trazado_197370" data-name="Trazado 197370" d="M234.955,155.869c-2.365-1.471-4.381.648-6.432,1.96-5.811,3.718-11.64,8.037-17.706,11.829,2.31-1.284,4.607-2.583,6.918-3.831a93.755,93.755,0,0,1,10.305-5.181,19.353,19.353,0,0,1,5.277-1.26,9.517,9.517,0,0,1,3.181.318,3.615,3.615,0,0,0-1.543-3.836Z" transform="translate(-128.131 -97.562)" fill="#ddf3f7"/>
              <path id="Trazado_197371" data-name="Trazado 197371" d="M148.659,408.252c6.507,5.213,14.166,11.336,22.633,12.813,5.313.926,10.135-.823,14.363-3.715-4.835,2.233-9.972,3.442-15.4,1.821-3.9-1.164-7.648-3.652-11.08-5.778a128.686,128.686,0,0,1-11.328-8.009,204.956,204.956,0,0,1-16.629-14.664c-1.766-1.714-3.5-3.458-5.227-5.211-1.679-1.7-5.044-4.17-5-6.741-.037.012-.074.017-.11.03-2.342.842-1.958,2.144-.289,3.774,9.064,8.853,18.181,17.758,28.069,25.679Z" transform="translate(-87.281 -197.202)" fill="#ddf3f7"/>
              <path id="Trazado_197372" data-name="Trazado 197372" d="M132.674,107.123a37.117,37.117,0,0,0,2.377,5.678c3.189,6.207,8.763,11.5,9.413,18.7.63,7-2.634,14.131-5.588,20.262-3.3,6.841-6.7,13.638-10.091,20.434q-11.256,22.58-23.4,44.7c-3.468,6.355-6.748,12.847-10.372,19.114a42.379,42.379,0,0,1-4.592,6.5c5.451,1.853,8.606-6.894,10.759-10.987,8.857-16.835,17.823-33.618,26.453-50.572,4.463-8.767,8.854-17.575,13-26.5,2.064-4.437,4.1-8.888,6.049-13.378,2.425-5.591,5.271-10.739.374-15.861-5.315-5.56-10.743-11.43-14.387-18.1Z" transform="translate(-74.432 -76.043)" fill="#ef6200"/>
              <path id="Trazado_197373" data-name="Trazado 197373" d="M72.858,192.615c6.589-19.491,14.309-38.645,22.6-57.47,4.31-9.788,8.809-19.5,13.69-29.018a185.548,185.548,0,0,1,9.648-17.088,31.223,31.223,0,0,1-1.082-5.461c-.344.684-.654,1.353-.916,1.84-1.766,3.291-3.418,6.642-5.031,10.009-4.6,9.595-8.967,19.3-13.253,29.038-9.4,21.353-18.639,42.838-26.8,64.7-2.664,7.242-6.227,16.245-5.156,24.36,1.708-7.075,3.977-14.021,6.307-20.91Z" transform="translate(-63.699 -65.542)" fill="#facb1a"/>
              <path id="Trazado_197374" data-name="Trazado 197374" d="M208.439,151.363c3.577-2.341,7.128-4.732,10.771-6.969a18.656,18.656,0,0,1,2.978-1.748c2.695-3.1,5.563-6.173,8.066-9.468a210.951,210.951,0,0,1-20.448,11.845c-3.477,1.753-6.864,3.663-10.331,5.437a41.83,41.83,0,0,1-6.273,2.875q-2.169,4.963-4.417,9.889C195.741,160.211,202.2,155.448,208.439,151.363Z" transform="translate(-118.304 -87.664)" fill="#df3f58"/>
              <path id="Trazado_197375" data-name="Trazado 197375" d="M201.129,392.936c-5.774,1.343-11.583-3.505-14.959-7.582-3.213-3.881-5.687-8.951-5.771-14.045-2.85,1.61-4,4.533-2.8,8.077,2.231,6.615,8.709,12.453,14.758,15.62,3.029,1.585,6.835,3.358,10.385,2.9a6.868,6.868,0,0,0,5.451-3.283c1.617-2.884,1.179-5.708-.306-8.419a8.789,8.789,0,0,1-6.757,6.736Z" transform="translate(-113.105 -193.875)" fill="#df3f58"/>
              <path id="Trazado_197376" data-name="Trazado 197376" d="M166.525,293.523c3.276,3.92,9.02,9.639,10.918,5.888a27.124,27.124,0,0,0,2.292-6.516c.082-.38.15-.758.217-1.136a8.19,8.19,0,0,1-6.558,1.017c-3.394-.835-5.752-3.959-6.662-7.438-.306.552-.6,1.106-.911,1.656-1.851,3.318-1.549,3.832.7,6.529Z" transform="translate(-107.522 -155.53)" fill="#df3f58"/>
              <path id="Trazado_197377" data-name="Trazado 197377" d="M80.377,259.091c7.347-18.21,15.208-36.227,23.785-53.893,4.615-9.5,9.4-18.932,14.5-28.184,2.442-4.426,4.931-8.827,7.525-13.165,1.379-2.306,3.462-4.877,3.436-7.691a7.245,7.245,0,0,0-.856-3.378c-.585,5.086-3.611,10.078-6.163,14.224-2.124,3.452-4.577,6.7-6.6,10.212-3.867,6.727-7.126,13.824-10.428,20.837-9.027,19.175-17.534,38.6-25.924,58.061-.217.5-.437,1-.655,1.506.452.5.9,1,1.374,1.47Z" transform="translate(-69.339 -96.408)" fill="#18a9cd"/>
              <path id="Trazado_197378" data-name="Trazado 197378" d="M235.7,109.589c-1.949.823-3.858,1.761-5.733,2.656-9.551,4.558-20.907,10.163-28.163,16.618a9.481,9.481,0,0,1,.547,3.1c6.123-4.129,12.093-8.468,18.578-12.089a83.335,83.335,0,0,1,20.618-8.506c.406-3.379-.818-3.9-5.847-1.78Z" transform="translate(-124.109 -76.58)" fill="#ff9780"/>
              <path id="Trazado_197379" data-name="Trazado 197379" d="M185.441,272.019a19.183,19.183,0,0,0-6.114-11.05c-.871,1.719-1.781,3.416-2.683,5.119,3.432.263,6.453,2.8,8.8,5.93Z" transform="translate(-112.889 -144.661)" fill="#ff9780"/>
              <path id="Trazado_197380" data-name="Trazado 197380" d="M201.688,274.676a40.308,40.308,0,0,0-1.544,5.388c-.007.046-.012.083-.018.127a43.829,43.829,0,0,0,6.365-9.9,31.541,31.541,0,0,0,2.71-17.416,24.6,24.6,0,0,0-2.77-8.34c-1.7-3.043-3.841-5.784-5.2-9.019-1.78-4.244-.275-7.87,2.254-11.067-3.975,3.043-7.846,6.227-11.629,9.5.628.461,1.249.933,1.823,1.426,8.2,7.03,12.382,15.917,11.1,26.748a74.343,74.343,0,0,1-3.091,12.556Z" transform="translate(-119.675 -128.372)" fill="#ee9e2b"/>
              <path id="Trazado_197381" data-name="Trazado 197381" d="M177.188,107.725c1.65,1.792,3.271,3.393,4.638,4.986,1.979,2.3,3.07,1.352,6.79-1.356,8.831-6.427,19.358-11.6,29.352-15.509,3.235-1.268,3.836-1.85,1.513-4.47-.881-.993-1.824-1.948-2.792-2.883a4.9,4.9,0,0,1-2.568,6.06c-2.659,1.55-5.519,2.849-8.228,4.323q-4.472,2.431-9.019,4.719c-3.573,1.808-7.221,3.907-11.246,4.434-7.131.933-13.312-7.734-16.5-13A39.4,39.4,0,0,1,164,83.211a16.344,16.344,0,0,0,.2,1.8c1.491,8.746,6.913,16.118,12.986,22.715Z" transform="translate(-107.25 -65.378)" fill="#ee9e2b"/>
              <path id="Trazado_197382" data-name="Trazado 197382" d="M82.46,369.516a33.909,33.909,0,0,0,6.125,4.923,24.591,24.591,0,0,0,3.739,2.053c3.493,1.377,5.267-1.729,6.938-3.89,1.648-2.129,3.82-4.332,6.713-3.869,5.36.857,10.019,5.4,13.947,8.893,10.213,9.088,19.578,19.009,32.189,24.855,4.2,1.945,9.564,3.929,13.992,1.419,5.322-3.014,9.606-9.357,11.549-15.074a13.135,13.135,0,0,0-.368-10.381,25.816,25.816,0,0,1-3.162,13.128c-3.029,5.9-7.572,10.311-14.563,10.061-7.426-.266-14.456-5.374-20.188-9.643a149.272,149.272,0,0,1-17.135-15.521c-4.7-4.79-13.53-16.634-21.3-10.547-3.269,2.562-5.857,7.381-10.433,7.55-2.861.105-5.816-2.034-8.042-3.958Z" transform="translate(-70.881 -190.714)" fill="#ee9e2b"/>
              <path id="Trazado_197383" data-name="Trazado 197383" d="M225.059,220.19a31.039,31.039,0,0,0-5.545,4.994,6.375,6.375,0,0,0-1.033,7.677,52.009,52.009,0,0,0,3.794,5.815,18.039,18.039,0,0,1,3.026,8.443c1.177,12.8,4.191,7.272,6.292,2.538a36.591,36.591,0,0,0,3.073-14.383,30.175,30.175,0,0,0-2.637-13.338c-1.673-3.4-2.924-4.445-6.97-1.745Z" transform="translate(-131.18 -125.79)" fill="#fff0db"/>
              <path id="Trazado_197384" data-name="Trazado 197384" d="M172.926,376.173c0-.014-.012-.029-.017-.044-2.72-8.064,2.828-15.145,11.588-13.3,6.249,1.318,12.652,5.064,17.583,9.875,3.906,3.809,7.916,9.23,7,14.863,1.563-5.885-2.769-12.864-6.8-17.218-5.93-6.4-18.736-14.339-27.03-7.807-3.139,2.472-3.987,6.842-3.29,10.572a13.65,13.65,0,0,0,.967,3.056Z" transform="translate(-110.698 -188.877)" fill="#fff0db"/>
              <path id="Trazado_197385" data-name="Trazado 197385" d="M177.245,80.269c4.935,6.56,13.657,8.431,21.055,5.906A19.2,19.2,0,0,1,182,82.71c-7.022-5.3-7.757-12.77-3.962-19.592a22.629,22.629,0,0,1,6.386-6.755,18.054,18.054,0,0,0-5.551,1.677C173.32,63.987,172.111,73.446,177.245,80.269Z" transform="translate(-111.701 -53.403)" fill="#fff0db"/>
              <path id="Trazado_197386" data-name="Trazado 197386" d="M75.549,280.241c3.027,5.45,7.824,12.014,13.661,9.287,1.923-.9,3.251-2.875,4.352-4.6,1.957-3.063,3.725-6.268,5.5-9.44,2.847-5.095,5.481-10.3,8.079-15.528,6.072-12.217,12.151-24.454,18.614-36.47,2.572-4.78,4.779-9.707,7.275-14.52a20.475,20.475,0,0,1,6.6-7.823c-.346-.443-.7-.879-1.062-1.3-2.042-2.38-2.864-1.957-4.867,2.235-6.4,13.393-13.193,26.6-20.089,39.745q-8.34,15.9-16.715,31.784c-2.506,4.765-6.06,16.721-13.793,12.627A28.13,28.13,0,0,1,75.549,280.241Z" transform="translate(-67.799 -116.752)" fill="#fff0db"/>
              <path id="Trazado_197387" data-name="Trazado 197387" d="M356.51,168.4c.342-3.648.649-7.3.781-10.962.245-6.785,1.517-16.474-6.427-19.072,2.132,3.1,2.567,7.327,2.538,11.016-.032,4.211-.769,10.095-4.149,13.14a19.616,19.616,0,0,1,7.257,5.878Z" transform="translate(-189.876 -89.977)" fill="#4d616a"/>
              <path id="Trazado_197388" data-name="Trazado 197388" d="M350.288,190.826c-2.243-3.516-6.041-5.838-9.978-7.311,2.582,1.957,4.65,4.576,4.841,7.9.158,2.76-1.6,5.034-3.775,6.828a22.3,22.3,0,0,1-.87,2.9,30.175,30.175,0,0,0-1.035,3.922,15.393,15.393,0,0,0,9-3.263,8.023,8.023,0,0,0,1.819-10.972Z" transform="translate(-185.512 -110.115)" fill="#4d616a"/>
              <path id="Trazado_197389" data-name="Trazado 197389" d="M337.633,149.081c-.651-5.262-2.772-5.148-6.724-1.631-2.663,2.369-5.344,5.381-4.544,8.211.926,3.274,6.529,4.873,9.338,3.349,2.908-1.578,2.263-7.236,1.93-9.928Z" transform="translate(-179.603 -92.914)" fill="#c6ced3"/>
              <path id="Trazado_197390" data-name="Trazado 197390" d="M303.933,430.146c-.754-3.341.358-7.764,1.5-10.714-11.039,4.314-26.293-2.913-29.238-14.393-1.973,3.921-3.6,8.667.666,11.274,3.526,2.157,7.17,4.124,10.837,6.027,4.229,2.194,8.491,4.348,12.85,6.277C301.823,429.181,302.921,429.728,303.933,430.146Z" transform="translate(-156.391 -208.919)" fill="#cf7e0d"/>
              <path id="Trazado_197391" data-name="Trazado 197391" d="M198.638,97.294c6.43,2.506,13.1,1.651,17.893-4.043a45.13,45.13,0,0,0,3.09-4.021,17.377,17.377,0,0,1-5.91,1.644,17.828,17.828,0,0,1-7.646,5.58A17.115,17.115,0,0,1,198.638,97.294Z" transform="translate(-122.699 -68.063)" fill="#cf7e0d"/>
              <path id="Trazado_197392" data-name="Trazado 197392" d="M335.242,435.217a6.13,6.13,0,0,1-1.159-2.883,16.971,16.971,0,0,0-.615,1.781,24.908,24.908,0,0,0-1.033,5.7c-.112,5.744,3.394,3.448,5.5.517a4.744,4.744,0,0,1-1.318-3.676A8.133,8.133,0,0,1,335.242,435.217Z" transform="translate(-182.373 -221.093)" fill="#cf7e0d"/>
              <path id="Trazado_197393" data-name="Trazado 197393" d="M185.054,84.834a20.385,20.385,0,0,1,1.728-9.423,11.262,11.262,0,0,1-2.483-5.1c-2.876,5.006-2.923,10.5.756,14.527Z" transform="translate(-115.372 -59.623)" fill="#fbc471"/>
              <path id="Trazado_197394" data-name="Trazado 197394" d="M322.2,248.934c9.8,15.605,26.831,21.455,39.886,33.475,7.624,7.02,14.967,18.117,13.395,29.053a19.243,19.243,0,0,0,.586-11.443c-2.908-12.775-13.411-21.248-23.828-27.979-6.269-4.051-12.673-7.892-18.3-12.836a49.622,49.622,0,0,1-13.412-19.451c-3-7.726-3.738-15.969-3.192-24.178.374-5.627,1.186-12.667,4.857-17.354a3.979,3.979,0,0,0-5,2.085c-5.494,15.855-4,34.28,5.006,48.627Z" transform="translate(-174.144 -116.584)" fill="#4d616a"/>
              <path id="Trazado_197395" data-name="Trazado 197395" d="M399.453,376.416c.073,1.643.1,3.282.057,4.908-.258,10.191-3.422,20.3-11.883,26.582-7.749,5.756-17.429,6.5-26.716,6.094-4.762-.206-12.456-.751-15.116-4.768a4.457,4.457,0,0,0-.875,2.841c.214,2.144,3.036,2.837,4.587,3.424a52.2,52.2,0,0,0,8.05,2.457c13.766,2.8,28.8-.643,37.15-12.806,5.665-8.253,6.95-18.894,4.746-28.733Z" transform="translate(-187.937 -196.153)" fill="#4d616a"/>
              <path id="Trazado_197396" data-name="Trazado 197396" d="M353.643,117.532a16.241,16.241,0,0,1,3.125,1.678c1.306-5.979,2.244-12.075,3.109-18.127a12.412,12.412,0,0,0,.088-3.758,73.916,73.916,0,0,1-3.424,13.6A40.606,40.606,0,0,1,353.643,117.532Z" transform="translate(-191.834 -71.673)" fill="#bebebe"/>
            </g>
          </g>
        </g>
      </g>
    </g>
  </g>
</svg>
