<svg xmlns="http://www.w3.org/2000/svg" xmlns:xlink="http://www.w3.org/1999/xlink" width="1057.461" height="400" viewBox="0 0 1057.461 400">
  <defs>
    <filter id="Trazado_197810" x="367.5" y="46.5" width="329.745" height="329.745" filterUnits="userSpaceOnUse">
      <feOffset dy="8" input="SourceAlpha"/>
      <feGaussianBlur stdDeviation="7.5" result="blur"/>
      <feFlood flood-opacity="0.161"/>
      <feComposite operator="in" in2="blur"/>
      <feComposite in="SourceGraphic"/>
    </filter>
    <filter id="Rectángulo_295076" x="0" y="155" width="331.349" height="110.623" filterUnits="userSpaceOnUse">
      <feOffset dy="7" input="SourceAlpha"/>
      <feGaussianBlur stdDeviation="7" result="blur-2"/>
      <feFlood flood-opacity="0.161"/>
      <feComposite operator="in" in2="blur-2"/>
      <feComposite in="SourceGraphic"/>
    </filter>
    <filter id="Trazado_197819" x="726.112" y="154.688" width="331.349" height="110.623" filterUnits="userSpaceOnUse">
      <feOffset dy="7" input="SourceAlpha"/>
      <feGaussianBlur stdDeviation="7" result="blur-3"/>
      <feFlood flood-opacity="0.161"/>
      <feComposite operator="in" in2="blur-3"/>
      <feComposite in="SourceGraphic"/>
    </filter>
  </defs>
  <g id="Grupo_134425" data-name="Grupo 134425" transform="translate(-271 -2348.895)">
    <rect id="Rectángulo_295082" data-name="Rectángulo 295082" width="1030" height="400" transform="translate(285 2348.895)" fill="none"/>
    <g transform="matrix(1, 0, 0, 1, 271, 2348.89)" filter="url(#Trazado_197810)">
      <path id="Trazado_197810-2" data-name="Trazado 197810" d="M1283.208,224.213A142.372,142.372,0,1,1,1140.836,81.841a142.372,142.372,0,0,1,142.372,142.372" transform="translate(-608.46 -20.84)" fill="#fff"/>
    </g>
    <path id="Trazado_197811" data-name="Trazado 197811" d="M853.947,175.865h-46.4v-5.278h41.138A173.08,173.08,0,0,1,1021.893,0V5.28c-92.606,0-167.946,75.34-167.946,167.946Z" transform="translate(-218.123 2378.669)" fill="#ff9500"/>
    <path id="Trazado_197812" data-name="Trazado 197812" d="M1376.132,628.373v-5.278c92.606,0,167.946-75.34,167.946-167.946V452.51h46.4v5.278h-41.138a173.08,173.08,0,0,1-173.2,170.585" transform="translate(-572.362 2096.746)" fill="#0ca4ca"/>
    <path id="Trazado_197813" data-name="Trazado 197813" d="M1087.507,638.863a2.639,2.639,0,1,1,2.639,2.639,2.637,2.637,0,0,1-2.639-2.639m-8.829,2.266a2.645,2.645,0,0,1-2.469-2.639c0-.057,0-.109.008-.17a2.638,2.638,0,0,1,5.27.177c0,.057,0,.113,0,.17a2.638,2.638,0,0,1-2.631,2.465c-.057,0-.117,0-.173,0M1067.256,640h0a2.638,2.638,0,0,1-2.292-2.624,2.575,2.575,0,0,1,.023-.339,2.639,2.639,0,0,1,5.255.358,2.537,2.537,0,0,1-.023.336,2.639,2.639,0,0,1-2.612,2.292,2.8,2.8,0,0,1-.351-.022m-11.321-1.881a2.636,2.636,0,0,1-2.122-2.571,2.543,2.543,0,0,1,.053-.531,2.634,2.634,0,0,1,3.1-2.07h0a2.637,2.637,0,0,1,2.119,2.575,2.6,2.6,0,0,1-.053.532,2.638,2.638,0,0,1-2.582,2.119,2.436,2.436,0,0,1-.52-.053m-11.177-2.628a2.638,2.638,0,0,1-1.949-2.545,2.761,2.761,0,0,1,.091-.694,2.64,2.64,0,0,1,5.187.69,2.707,2.707,0,0,1-.09.69,2.644,2.644,0,0,1-2.545,1.953,2.568,2.568,0,0,1-.694-.094m-10.974-3.366v0a2.637,2.637,0,1,1,3.5-2.481,2.758,2.758,0,0,1-.143.844,2.64,2.64,0,0,1-3.355,1.64m-10.74-4.1h0a2.649,2.649,0,0,1-1.617-2.428,2.684,2.684,0,0,1,.207-1.029,2.638,2.638,0,0,1,5.07,1.022,2.6,2.6,0,0,1-.2,1.025,2.637,2.637,0,0,1-3.457,1.41m-10.438-4.806a2.64,2.64,0,0,1-1.459-2.371,2.669,2.669,0,0,1,.283-1.172,2.64,2.64,0,0,1,5,1.2,2.669,2.669,0,0,1-.283,1.172,2.639,2.639,0,0,1-3.54,1.176m-10.1-5.488a2.634,2.634,0,0,1-1.3-2.27,2.587,2.587,0,0,1,.362-1.342,2.636,2.636,0,1,1,.939,3.612m-9.7-6.145a2.639,2.639,0,1,1,4.12-2.171,2.6,2.6,0,0,1-.456,1.474,2.639,2.639,0,0,1-3.664.7m-9.277-6.771a2.638,2.638,0,1,1,4.264-2.084,2.64,2.64,0,0,1-4.264,2.084m-8.806-7.37a2.63,2.63,0,1,1,1.757.675,2.639,2.639,0,0,1-1.757-.675m-8.3-7.928a2.64,2.64,0,1,1,1.885.792,2.634,2.634,0,0,1-1.885-.792m-7.758-8.459a2.643,2.643,0,1,1,2,.92,2.622,2.622,0,0,1-2-.92m-7.185-8.946a2.638,2.638,0,1,1,2.115,1.056,2.635,2.635,0,0,1-2.115-1.056m-6.578-9.4a2.639,2.639,0,1,1,4.422-2.88,2.594,2.594,0,0,1,.43,1.448,2.64,2.64,0,0,1-4.852,1.432m-5.937-9.813h0a2.6,2.6,0,0,1-.339-1.286,2.646,2.646,0,1,1,.339,1.286m-5.278-10.182a2.7,2.7,0,0,1-.256-1.146,2.64,2.64,0,0,1,5.021-1.127,2.632,2.632,0,0,1-1.248,3.521,2.638,2.638,0,0,1-3.517-1.248m-4.584-10.51a2.64,2.64,0,1,1,3.427,1.478,2.609,2.609,0,0,1-.973.188,2.637,2.637,0,0,1-2.454-1.666m-3.879-10.8a2.677,2.677,0,0,1-.128-.814,2.638,2.638,0,0,1,5.15-.8,2.574,2.574,0,0,1,.128.818,2.638,2.638,0,0,1-5.15.8m-3.151-11.038h0a2.59,2.59,0,0,1-.079-.626,2.638,2.638,0,0,1,5.2-.652,2.565,2.565,0,0,1,.079.626,2.643,2.643,0,0,1-2,2.575,2.707,2.707,0,0,1-.641.079,2.642,2.642,0,0,1-2.56-2m-2.405-11.223h0a2.826,2.826,0,0,1-.042-.467,2.639,2.639,0,0,1,5.236-.467,2.477,2.477,0,0,1,.041.467,2.635,2.635,0,0,1-2.171,2.6,2.835,2.835,0,0,1-.467.041,2.636,2.636,0,0,1-2.594-2.171m-1.659-11.358h0a2.75,2.75,0,0,1-.015-.3,2.639,2.639,0,0,1,5.263-.287,2.747,2.747,0,0,1,.015.3,2.643,2.643,0,0,1-2.345,2.616,2.584,2.584,0,0,1-.3.015,2.638,2.638,0,0,1-2.62-2.344m-.9-11.442c0-.045,0-.09,0-.135a2.64,2.64,0,0,1,5.278-.106c0,.045,0,.091,0,.136a2.635,2.635,0,0,1-2.518,2.624h-.121a2.637,2.637,0,0,1-2.635-2.518" transform="translate(-286.376 2083.617)" fill="#d2e1f1"/>
    <path id="Trazado_197814" data-name="Trazado 197814" d="M1539.537,165.4c0-.045,0-.09,0-.136a2.638,2.638,0,0,1,5.274-.109c0,.045,0,.09,0,.136a2.64,2.64,0,0,1-2.518,2.624c-.046,0-.083,0-.124,0a2.64,2.64,0,0,1-2.635-2.518m-.875-11.094h0a2.75,2.75,0,0,1-.015-.305,2.639,2.639,0,0,1,5.263-.283,2.728,2.728,0,0,1,.015.3,2.64,2.64,0,0,1-5.263.286m-1.6-11.011a2.475,2.475,0,0,1-.045-.467,2.639,2.639,0,0,1,5.236-.467,2.446,2.446,0,0,1,.046.467,2.643,2.643,0,0,1-2.175,2.6,2.833,2.833,0,0,1-.467.041,2.636,2.636,0,0,1-2.594-2.171m-2.333-10.88a2.6,2.6,0,0,1-.079-.63,2.638,2.638,0,0,1,5.2-.648,2.567,2.567,0,0,1,.079.626,2.642,2.642,0,0,1-2,2.575,2.689,2.689,0,0,1-.641.079,2.637,2.637,0,0,1-2.556-2m-3.053-10.7a2.67,2.67,0,0,1-.128-.818,2.641,2.641,0,1,1,.128.818m-3.763-10.476a2.58,2.58,0,0,1-.188-.965,2.64,2.64,0,0,1,5.093-.98,2.736,2.736,0,0,1,.188.965,2.65,2.65,0,0,1-1.666,2.462,2.68,2.68,0,0,1-.973.185,2.638,2.638,0,0,1-2.455-1.666m-4.445-10.186h0a2.578,2.578,0,0,1-.256-1.142,2.639,2.639,0,0,1,5.021-1.127,2.7,2.7,0,0,1,.256,1.146,2.634,2.634,0,0,1-1.5,2.371,2.6,2.6,0,0,1-1.134.26,2.642,2.642,0,0,1-2.383-1.508m-5.115-9.869a2.639,2.639,0,1,1,4.6-2.582,2.608,2.608,0,0,1,.339,1.285,2.639,2.639,0,0,1-4.942,1.3m-5.756-9.515h0a2.632,2.632,0,0,1,.769-3.649,2.638,2.638,0,1,1-.769,3.649m-6.378-9.115h0a2.638,2.638,0,1,1,2.115,1.056,2.616,2.616,0,0,1-2.115-1.056m-6.967-8.678a2.643,2.643,0,1,1,2,.92,2.622,2.622,0,0,1-2-.92m-7.524-8.2a2.64,2.64,0,1,1,1.885.792,2.627,2.627,0,0,1-1.885-.792m-8.048-7.69a2.639,2.639,0,1,1,1.757.671,2.634,2.634,0,0,1-1.757-.671m-8.538-7.144a2.638,2.638,0,1,1,3.249-4.158,2.64,2.64,0,0,1-1.628,4.72,2.614,2.614,0,0,1-1.621-.562m-8.995-6.567a2.637,2.637,0,1,1,4.12-2.168,2.6,2.6,0,0,1-.456,1.474,2.631,2.631,0,0,1-2.183,1.154,2.591,2.591,0,0,1-1.482-.46m-9.409-5.956h0a2.639,2.639,0,1,1,3.973-2.281,2.586,2.586,0,0,1-.362,1.342,2.641,2.641,0,0,1-2.277,1.3,2.6,2.6,0,0,1-1.334-.366M1446.948,23a2.641,2.641,0,0,1-1.455-2.371,2.636,2.636,0,0,1,3.818-2.349,2.639,2.639,0,0,1-2.363,4.72m-10.122-4.659a2.649,2.649,0,0,1-1.617-2.428,2.685,2.685,0,0,1,.207-1.029,2.64,2.64,0,0,1,5.074,1.018,2.689,2.689,0,0,1-.208,1.029,2.637,2.637,0,0,1-3.457,1.41m-10.408-3.977h0a2.639,2.639,0,1,1,1.715-4.991v0a2.634,2.634,0,0,1,1.779,2.507,2.56,2.56,0,0,1-.143.844,2.624,2.624,0,0,1-3.351,1.636M1415.779,11.1h0a2.638,2.638,0,0,1-1.949-2.545,2.689,2.689,0,0,1,.091-.69,2.639,2.639,0,0,1,5.187.686,2.542,2.542,0,0,1-.094.69,2.641,2.641,0,0,1-2.545,1.953,2.556,2.556,0,0,1-.689-.094m-10.834-2.548a2.637,2.637,0,0,1-2.119-2.575,2.875,2.875,0,0,1,.049-.532,2.644,2.644,0,0,1,3.11-2.07v0a2.636,2.636,0,0,1,2.119,2.571,2.533,2.533,0,0,1-.053.532,2.639,2.639,0,0,1-2.586,2.122,2.767,2.767,0,0,1-.52-.053m-10.974-1.821a2.639,2.639,0,0,1-2.3-2.628,2.54,2.54,0,0,1,.022-.336,2.639,2.639,0,0,1,5.255.354,2.555,2.555,0,0,1-.023.339,2.636,2.636,0,0,1-2.612,2.292,2.725,2.725,0,0,1-.347-.023M1382.9,5.64h0A2.639,2.639,0,0,1,1380.426,3c0-.057,0-.113.007-.17a2.638,2.638,0,0,1,5.271.177c0,.057,0,.113,0,.17a2.638,2.638,0,0,1-2.631,2.465c-.057,0-.117,0-.173-.008m-13.763-3a2.639,2.639,0,1,1,2.639,2.639,2.639,2.639,0,0,1-2.639-2.639" transform="translate(-568.001 2378.67)" fill="#d2e1f1"/>
    <rect id="Rectángulo_295075" data-name="Rectángulo 295075" width="304.428" height="83.702" transform="translate(285 2510.044)" fill="#ff9500"/>
    <g transform="matrix(1, 0, 0, 1, 271, 2348.89)" filter="url(#Rectángulo_295076)">
      <rect id="Rectángulo_295076-2" data-name="Rectángulo 295076" width="289.349" height="68.623" transform="translate(21 169)" fill="#fff"/>
    </g>
    <rect id="Rectángulo_295077" data-name="Rectángulo 295077" width="69.671" height="68.623" transform="translate(512 2517.895)" fill="#ff9500"/>
    <rect id="Rectángulo_295078" data-name="Rectángulo 295078" width="304.428" height="83.702" transform="translate(1010.572 2510.044)" fill="#0ca4ca"/>
    <g transform="matrix(1, 0, 0, 1, 271, 2348.89)" filter="url(#Trazado_197819)">
      <path id="Trazado_197819-2" data-name="Trazado 197819" d="M0,0H289.349V68.623H0Z" transform="translate(747.11 168.69)" fill="#fff"/>
    </g>
    <rect id="Rectángulo_295080" data-name="Rectángulo 295080" width="69.671" height="68.934" transform="translate(1018 2517.271)" fill="#0ca4ca"/>
    <g id="me-gusta" transform="translate(494 2526.895)">
      <g id="Grupo_134388" data-name="Grupo 134388" transform="translate(31 8.887)">
        <g id="Grupo_134387" data-name="Grupo 134387" transform="translate(0)">
          <path id="Trazado_197815" data-name="Trazado 197815" d="M73.823,113.07a4.392,4.392,0,0,0-3.272-7.324H62.021a28.4,28.4,0,0,0,1.205-7.423V96.859A5.867,5.867,0,0,0,57.367,91H55.9a1.464,1.464,0,0,0-1.421,1.109l-.8,3.192c-1.118,4.471-4.668,9.4-8.342,10.3a4.4,4.4,0,0,0-4.088-2.785H32.465A1.465,1.465,0,0,0,31,104.281v26.367a1.465,1.465,0,0,0,1.465,1.465h8.789a4.4,4.4,0,0,0,3.967-2.5l5.033,1.678a16.078,16.078,0,0,0,5.1.827H67.621a4.4,4.4,0,0,0,4.086-6.014,4.392,4.392,0,0,0,2.116-7.17,4.386,4.386,0,0,0,0-5.859Zm-31.1,14.648a1.467,1.467,0,0,1-1.465,1.465H33.93V105.746h7.324a1.467,1.467,0,0,1,1.465,1.465Zm24.9-13.184h2.93a1.465,1.465,0,1,1,0,2.93h-2.93a1.465,1.465,0,1,0,0,2.93h2.93a1.465,1.465,0,1,1,0,2.93h-2.93a1.465,1.465,0,1,0,0,2.93,1.465,1.465,0,0,1,0,2.93H55.35a13.155,13.155,0,0,1-4.17-.677l-5.531-1.844V108.537a11.8,11.8,0,0,0,6.577-4.273,21.374,21.374,0,0,0,4.3-8.251l.521-2.083h.321a2.933,2.933,0,0,1,2.93,2.93v1.464a23.18,23.18,0,0,1-1.4,7.423H55.9a1.465,1.465,0,0,0,0,2.93H70.551a1.465,1.465,0,1,1,0,2.93h-2.93a1.465,1.465,0,1,0,0,2.93Z" transform="translate(-31 -91)" fill="#12263f"/>
        </g>
      </g>
      <g id="Grupo_134390" data-name="Grupo 134390" transform="translate(37.278 41.239)">
        <g id="Grupo_134389" data-name="Grupo 134389" transform="translate(0 0)">
          <ellipse id="Elipse_5370" data-name="Elipse 5370" cx="1.046" cy="1.395" rx="1.046" ry="1.395" fill="#12263f"/>
        </g>
      </g>
      <g id="Grupo_134392" data-name="Grupo 134392" transform="translate(57.367)">
        <g id="Grupo_134391" data-name="Grupo 134391">
          <path id="Trazado_197816" data-name="Trazado 197816" d="M302.465,0A1.465,1.465,0,0,0,301,1.465V4.492a1.465,1.465,0,0,0,2.93,0V1.465A1.465,1.465,0,0,0,302.465,0Z" transform="translate(-301)" fill="#12263f"/>
        </g>
      </g>
      <g id="Grupo_134394" data-name="Grupo 134394" transform="translate(48.045 3.959)">
        <g id="Grupo_134393" data-name="Grupo 134393" transform="translate(0)">
          <path id="Trazado_197817" data-name="Trazado 197817" d="M210.113,43.042l-2.072-2.072a1.465,1.465,0,0,0-2.072,2.072l2.072,2.072a1.465,1.465,0,1,0,2.072-2.072Z" transform="translate(-205.54 -40.542)" fill="#12263f"/>
        </g>
      </g>
      <g id="Grupo_134396" data-name="Grupo 134396" transform="translate(64.618 3.959)">
        <g id="Grupo_134395" data-name="Grupo 134395">
          <path id="Trazado_197818" data-name="Trazado 197818" d="M379.819,40.971a1.465,1.465,0,0,0-2.072,0l-2.072,2.071a1.465,1.465,0,0,0,2.072,2.072l2.072-2.072A1.465,1.465,0,0,0,379.819,40.971Z" transform="translate(-375.247 -40.542)" fill="#12263f"/>
        </g>
      </g>
    </g>
    <g id="me-gusta-2" data-name="me-gusta" transform="translate(1031 2531.895)">
      <g id="Grupo_134388-2" data-name="Grupo 134388" transform="translate(0 0)">
        <g id="Grupo_134387-2" data-name="Grupo 134387">
          <path id="Trazado_197815-2" data-name="Trazado 197815" d="M32.122,110.043a4.392,4.392,0,0,0,3.272,7.324h8.529a28.4,28.4,0,0,0-1.205,7.423v1.464a5.867,5.867,0,0,0,5.859,5.859h1.465A1.464,1.464,0,0,0,51.464,131l.8-3.192c1.118-4.471,4.668-9.4,8.342-10.3a4.4,4.4,0,0,0,4.088,2.785H73.48a1.465,1.465,0,0,0,1.465-1.465V92.465A1.465,1.465,0,0,0,73.48,91H64.691a4.4,4.4,0,0,0-3.967,2.5l-5.033-1.678A16.078,16.078,0,0,0,50.6,91H38.324a4.4,4.4,0,0,0-4.086,6.014,4.392,4.392,0,0,0-2.116,7.17,4.386,4.386,0,0,0,0,5.859Zm31.1-14.648a1.467,1.467,0,0,1,1.465-1.465h7.324v23.437H64.691a1.467,1.467,0,0,1-1.465-1.465Zm-24.9,13.184h-2.93a1.465,1.465,0,1,1,0-2.93h2.93a1.465,1.465,0,1,0,0-2.93h-2.93a1.465,1.465,0,1,1,0-2.93h2.93a1.465,1.465,0,1,0,0-2.93,1.465,1.465,0,0,1,0-2.93H50.6a13.155,13.155,0,0,1,4.17.677L60.3,96.45v18.126a11.8,11.8,0,0,0-6.577,4.273,21.374,21.374,0,0,0-4.3,8.251l-.521,2.083h-.321a2.933,2.933,0,0,1-2.93-2.93V124.79a23.18,23.18,0,0,1,1.4-7.423h2.992a1.465,1.465,0,0,0,0-2.93H35.395a1.465,1.465,0,1,1,0-2.93h2.93a1.465,1.465,0,1,0,0-2.93Z" transform="translate(-31 -91)" fill="#12263f"/>
        </g>
      </g>
      <g id="Grupo_134390-2" data-name="Grupo 134390" transform="translate(35.575 5.971)">
        <g id="Grupo_134389-2" data-name="Grupo 134389" transform="translate(0 0)">
          <ellipse id="Elipse_5370-2" data-name="Elipse 5370" cx="1.046" cy="1.395" rx="1.046" ry="1.395" fill="#12263f"/>
        </g>
      </g>
    </g>
    <g id="Grupo_134398" data-name="Grupo 134398" transform="translate(3 23.582)">
      <g id="Grupo_134397" data-name="Grupo 134397" transform="translate(-307.255 1027.667)">
        <g id="Grupo_133122" data-name="Grupo 133122" transform="translate(1101.741 1409.03)">
          <path id="Trazado_196350" data-name="Trazado 196350" d="M1160.749,1516.152l2.064-1.2V1444.6l-2.064,1.2Z" transform="translate(-1095.21 -1406.765)" fill="#939598"/>
          <path id="Trazado_196351" data-name="Trazado 196351" d="M1164.438,1447.927l2.064-1.2-65.538-37.836-2.065,1.192Z" transform="translate(-1098.899 -1408.895)" fill="#e6e7e8"/>
          <path id="Trazado_196352" data-name="Trazado 196352" d="M1099.8,1411.67l-.1,68.724,63.734,36.164.353-68.141Zm2.3,10.18,9.038-4.4,53.234,30.735v46.631l-11.027,5.368-51.245-29.582Z" transform="translate(-1098.851 -1408.73)" fill="#535359"/>
          <path id="Trazado_196353" data-name="Trazado 196353" d="M1098.9,1410.02v70.351l65.539,37.843V1447.86Zm1.652,12.846,9.033-4.4,53.234,30.735v46.632l-11.027,5.367-51.24-29.582Z" transform="translate(-1098.899 -1408.828)" fill="#535359"/>
          <path id="Trazado_196354" data-name="Trazado 196354" d="M1100.458,1422.391l9.033-4.4,53.234,30.735v46.632l-11.027,5.367-51.24-29.582Z" transform="translate(-1098.806 -1408.353)" fill="#24d2c1" opacity="0.2"/>
        </g>
        <g id="Grupo_133123" data-name="Grupo 133123" transform="translate(1053.32 1410.222)">
          <path id="Trazado_196355" data-name="Trazado 196355" d="M1055.268,1507.946l-2.064-1.193V1436.4l2.064,1.2Z" transform="translate(-1053.203 -1408.447)" fill="#bcbec0"/>
          <path id="Trazado_196356" data-name="Trazado 196356" d="M1055.268,1439.168l-2.064-1.2,48.421-27.952,2.065,1.193Z" transform="translate(-1053.203 -1410.02)" fill="#e6e7e8"/>
          <path id="Trazado_196357" data-name="Trazado 196357" d="M1055.756,1439.657l.349,68.141,46.62-26.275-.1-68.728Zm44.57,32.07-34.12,19.7-11.028-5.367v-46.632l36.117-20.848,9.03,4.393Z" transform="translate(-1053.086 -1409.855)" fill="#535359"/>
          <path id="Trazado_196358" data-name="Trazado 196358" d="M1055.152,1439.1v70.351l48.422-27.951v-70.354Zm46.773,33.644-34.123,19.7-11.031-5.368v-46.634l36.12-20.848,9.034,4.392Z" transform="translate(-1053.087 -1409.953)" fill="#121214"/>
          <path id="Trazado_196359" data-name="Trazado 196359" d="M1101.834,1472.269l-34.123,19.7-11.031-5.368v-46.634l36.12-20.848,9.034,4.392Z" transform="translate(-1052.996 -1409.478)" fill="#24d2c1" opacity="0.2"/>
        </g>
        <g id="Grupo_133126" data-name="Grupo 133126" transform="translate(1055.384 1473.358)">
          <g id="Grupo_133124" data-name="Grupo 133124">
            <path id="Trazado_196360" data-name="Trazado 196360" d="M1116.565,1539.843l-61.413-35.451v-8.407l61.413,35.455Z" transform="translate(-1055.152 -1468.029)" fill="#1d374e"/>
            <path id="Trazado_196361" data-name="Trazado 196361" d="M1113.108,1539.421v-8.4l48.418-27.959v8.411Z" transform="translate(-1051.694 -1467.607)" fill="#0f2034"/>
            <path id="Trazado_196362" data-name="Trazado 196362" d="M1116.565,1533.013l-61.413-35.455,48.422-27.955,61.41,35.452Z" transform="translate(-1055.152 -1469.602)" fill="#303033"/>
          </g>
          <g id="Grupo_133125" data-name="Grupo 133125" transform="translate(5.638 2.969)">
            <path id="Trazado_196363" data-name="Trazado 196363" d="M1159.031,1503.331l-51.7-29.849h-8.158l-38.7,22.35v2.993l52.259,30.162h7.03l39.271-22.666Z" transform="translate(-1060.472 -1472.34)" fill="#121214"/>
            <path id="Trazado_196364" data-name="Trazado 196364" d="M1159.031,1502.253l-51.7-29.849h-8.158l-38.7,22.349v2.993l52.259,30.165h7.03l39.271-22.666Z" transform="translate(-1060.472 -1472.404)" fill="#535359"/>
            <path id="Trazado_196365" data-name="Trazado 196365" d="M1157.26,1503.123l-50.472-29.137h-7.254l-37.483,21.641v1.054l51.034,29.465h6.136l38.039-21.961Z" transform="translate(-1060.378 -1472.31)" fill="#121214" opacity="0.3"/>
          </g>
        </g>
        <g id="Grupo_133140" data-name="Grupo 133140" transform="translate(1084.776 1482.585)">
          <path id="Trazado_196366" data-name="Trazado 196366" d="M1134.049,1508.415l-2.388-1.366a1.966,1.966,0,0,0,.007-.211,4.624,4.624,0,0,0-2.108-3.63,1.455,1.455,0,0,0-1.491-.139l-.573.335v0c-.014.01-.032.01-.047.025l-1.028.6-.356-.2a3.59,3.59,0,0,0,1.37-2.627,1.163,1.163,0,0,0-.409-.99l-13.07-11.746a1.121,1.121,0,0,0-.855-.22,2.227,2.227,0,0,0-1.455-.644,1.108,1.108,0,0,0-.149-.27.852.852,0,0,0-.253-.21h.008l-5.24-3.036a.862.862,0,0,0-.38-.118,2.21,2.21,0,0,0-1-.584.919.919,0,0,0-.118-.253c-.006-.014-.011-.029-.024-.035l-3.143-3.46a.582.582,0,0,0-.495-.211,3.259,3.259,0,0,0-2.161,1.343.7.7,0,0,0-.1.723l2,4.25a.087.087,0,0,0,.024.027,1.1,1.1,0,0,0,1.026.52,1.409,1.409,0,0,0,.21-.011l.114-.015a3.791,3.791,0,0,0,.172.367,2.189,2.189,0,0,0,1.42,1.043.842.842,0,0,0,.238.217l4.84,2.8-.562.32a2.057,2.057,0,0,0-1.325-.484.813.813,0,0,0-.364-.5h0l-5.25-3.04a.69.69,0,0,0-.362-.092,2.059,2.059,0,0,0-.911-.57.88.88,0,0,0-.193-.569h.007l-4.8-4.862c-.538-.6-2.8,1.167-2.354,1.907l3.71,5.734.006,0a.99.99,0,0,0,1.047.38,2.447,2.447,0,0,0,.184.424,2.068,2.068,0,0,0,1.374.982.76.76,0,0,0,.235.22l4.908,2.841-.492.285a2.1,2.1,0,0,0-1.352-.505.805.805,0,0,0-.37-.5l-5.24-3.036a.723.723,0,0,0-.367-.1,1.974,1.974,0,0,0-.826-.545.886.886,0,0,0-.157-.643h0l-5.011-5.852c-.505-.633-2.865,1.015-2.452,1.78l3.872,6.67.007-.006a1,1,0,0,0,1.032.434,2.141,2.141,0,0,0,.231.605,2.071,2.071,0,0,0,1.374.982.769.769,0,0,0,.235.22l4.936,2.858-.562.324a2.084,2.084,0,0,0-1.328-.484.8.8,0,0,0-.367-.5l-5.239-3.04a.735.735,0,0,0-.371-.1,2.04,2.04,0,0,0-1.064-.609.949.949,0,0,0-.288-.815l.006,0-5.168-3.923c-.623-.524-2.612,1.559-2.054,2.221l4.218,4.948h0a.934.934,0,0,0,.878.264,2.2,2.2,0,0,0,.164.362,2.073,2.073,0,0,0,1.378.982.792.792,0,0,0,.231.222l5.24,3.032a.84.84,0,0,0,.647.064,1.951,1.951,0,0,0,.445.527,4.229,4.229,0,0,0-.1.791,1.442,1.442,0,0,0,.6,1.31l7.617,4.121-3.911.339h0a.784.784,0,0,0-.453.21,1.88,1.88,0,0,0-.545-.078.888.888,0,0,0-.412-.463v-.007l-6.023-2.427c-.726-.338-2.1,2.185-1.4,2.684l5.368,3.665h.007a.917.917,0,0,0,.932.021,2.067,2.067,0,0,0,2.477.41.732.732,0,0,0,.391.074h0l4.139-.352a.81.81,0,0,0,.545-.3,2.057,2.057,0,0,0,1.715-.163,1.21,1.21,0,0,1,1.432-.057l1.1-.641,3.712,2.011h0a1.122,1.122,0,0,0,1.136-.118l2.748-1.595,1.058.6c0,.057-.011.115-.011.178a4.668,4.668,0,0,0,2.106,3.638,1.462,1.462,0,0,0,1.5.128l.641-.364.989-.576,3.307,1.9a.791.791,0,0,0,.851-.063l5.531-3.2a2.567,2.567,0,0,0,1.149-2.014A.814.814,0,0,0,1134.049,1508.415Z" transform="translate(-1082.889 -1478.244)" opacity="0.3"/>
          <path id="Trazado_196367" data-name="Trazado 196367" d="M1097.425,1484.865a2.067,2.067,0,1,0,2.823.751A2.076,2.076,0,0,0,1097.425,1484.865Z" transform="translate(-1082.083 -1477.936)" fill="#939598"/>
          <path id="Trazado_196368" data-name="Trazado 196368" d="M1095.7,1487.207l.006-.006a1.036,1.036,0,0,0,1.146.362,3.458,3.458,0,0,0,2.378-2.032,1.086,1.086,0,0,0-.093-1.107h.007l-4.8-4.862c-.538-.6-2.8,1.167-2.354,1.908Z" transform="translate(-1082.349 -1478.243)" fill="#fff"/>
          <g id="Grupo_133127" data-name="Grupo 133127" transform="translate(15.77 7.313)">
            <path id="Trazado_196369" data-name="Trazado 196369" d="M1100.255,1485.312l5.25,3.033-2.061,3.552-5.246-3.04a1.006,1.006,0,0,1-.427-.932,3.224,3.224,0,0,1,1.462-2.516A1,1,0,0,1,1100.255,1485.312Z" transform="translate(-1097.771 -1485.212)" fill="#fff"/>
            <path id="Trazado_196370" data-name="Trazado 196370" d="M1104.181,1488.273a3.184,3.184,0,0,0-1.453,2.512c-.006.926.638,1.3,1.439.843a3.2,3.2,0,0,0,1.465-2.512C1105.629,1488.187,1104.982,1487.817,1104.181,1488.273Z" transform="translate(-1097.475 -1485.041)" fill="#535359"/>
          </g>
          <path id="Trazado_196371" data-name="Trazado 196371" d="M1104.489,1488.916a2.069,2.069,0,1,0,2.823.755A2.071,2.071,0,0,0,1104.489,1488.916Z" transform="translate(-1081.662 -1477.694)" fill="#939598"/>
          <path id="Trazado_196372" data-name="Trazado 196372" d="M1101.947,1482.248a2.066,2.066,0,1,0,2.819.751A2.064,2.064,0,0,0,1101.947,1482.248Z" transform="translate(-1081.813 -1478.092)" fill="#939598"/>
          <path id="Trazado_196373" data-name="Trazado 196373" d="M1099.834,1484.409l.007,0a1.027,1.027,0,0,0,1.106.459,3.439,3.439,0,0,0,2.548-1.818,1.106,1.106,0,0,0,0-1.118h0l-3.154-3.467c-.495-.643-2.9.926-2.5,1.7Z" transform="translate(-1081.999 -1478.31)" fill="#fff"/>
          <g id="Grupo_133128" data-name="Grupo 133128" transform="translate(20.561 4.535)">
            <path id="Trazado_196374" data-name="Trazado 196374" d="M1107.962,1489.276l-5.243-3.033a1.033,1.033,0,0,1-.427-.946,3.228,3.228,0,0,1,1.459-2.514,1.016,1.016,0,0,1,1.029-.092l5.243,3.033Z" transform="translate(-1102.292 -1482.59)" fill="#fff"/>
            <path id="Trazado_196375" data-name="Trazado 196375" d="M1108.7,1485.653a3.2,3.2,0,0,0-1.459,2.509c0,.928.644,1.307,1.448.851a3.227,3.227,0,0,0,1.459-2.513C1110.151,1485.567,1109.5,1485.2,1108.7,1485.653Z" transform="translate(-1101.997 -1482.419)" fill="#535359"/>
          </g>
          <path id="Trazado_196376" data-name="Trazado 196376" d="M1109.011,1486.3a2.069,2.069,0,1,0,2.822.754A2.074,2.074,0,0,0,1109.011,1486.3Z" transform="translate(-1081.392 -1477.85)" fill="#939598"/>
          <path id="Trazado_196377" data-name="Trazado 196377" d="M1093.082,1487.354a2.066,2.066,0,1,0,2.823.751A2.069,2.069,0,0,0,1093.082,1487.354Z" transform="translate(-1082.342 -1477.787)" fill="#939598"/>
          <path id="Trazado_196378" data-name="Trazado 196378" d="M1091.334,1489.511l.007,0a1.032,1.032,0,0,0,1.118.424,3.427,3.427,0,0,0,2.491-1.894,1.094,1.094,0,0,0-.029-1.118h0l-5.011-5.851c-.505-.634-2.865,1.011-2.452,1.773Z" transform="translate(-1082.619 -1478.154)" fill="#fff"/>
          <g id="Grupo_133129" data-name="Grupo 133129" transform="translate(11.164 9.946)">
            <path id="Trazado_196379" data-name="Trazado 196379" d="M1095.912,1487.8l5.243,3.032-2.058,3.553-5.242-3.037a1.025,1.025,0,0,1-.431-.939,3.229,3.229,0,0,1,1.467-2.514A1,1,0,0,1,1095.912,1487.8Z" transform="translate(-1093.424 -1487.697)" fill="#fff"/>
            <path id="Trazado_196380" data-name="Trazado 196380" d="M1099.841,1490.759a3.207,3.207,0,0,0-1.462,2.508c0,.929.643,1.3,1.448.848a3.2,3.2,0,0,0,1.459-2.509C1101.294,1490.673,1100.639,1490.3,1099.841,1490.759Z" transform="translate(-1093.128 -1487.526)" fill="#535359"/>
          </g>
          <path id="Trazado_196381" data-name="Trazado 196381" d="M1100.147,1491.4a2.068,2.068,0,1,0,2.822.758A2.068,2.068,0,0,0,1100.147,1491.4Z" transform="translate(-1081.921 -1477.546)" fill="#939598"/>
          <path id="Trazado_196382" data-name="Trazado 196382" d="M1088.719,1489.91a2.068,2.068,0,1,0,2.819.754A2.074,2.074,0,0,0,1088.719,1489.91Z" transform="translate(-1082.603 -1477.635)" fill="#939598"/>
          <path id="Trazado_196383" data-name="Trazado 196383" d="M1082.986,1487.438l4.218,4.94h0a1.041,1.041,0,0,0,1.185.2,3.442,3.442,0,0,0,2.064-2.354,1.065,1.065,0,0,0-.255-1.081l.006-.007-5.168-3.915C1084.417,1484.693,1082.428,1486.775,1082.986,1487.438Z" transform="translate(-1082.889 -1477.903)" fill="#fff"/>
          <g id="Grupo_133130" data-name="Grupo 133130" transform="translate(6.544 12.657)">
            <path id="Trazado_196384" data-name="Trazado 196384" d="M1091.556,1490.354l5.239,3.036-2.058,3.552-5.246-3.036a1.038,1.038,0,0,1-.427-.943,3.242,3.242,0,0,1,1.463-2.513A1.026,1.026,0,0,1,1091.556,1490.354Z" transform="translate(-1089.064 -1490.255)" fill="#fff"/>
            <path id="Trazado_196385" data-name="Trazado 196385" d="M1095.474,1493.318a3.194,3.194,0,0,0-1.452,2.509c-.007.929.644,1.3,1.445.848a3.215,3.215,0,0,0,1.459-2.51C1096.934,1493.24,1096.279,1492.862,1095.474,1493.318Z" transform="translate(-1088.768 -1490.084)" fill="#535359"/>
          </g>
          <path id="Trazado_196386" data-name="Trazado 196386" d="M1095.786,1493.96a2.068,2.068,0,1,0,2.82.759A2.078,2.078,0,0,0,1095.786,1493.96Z" transform="translate(-1082.181 -1477.393)" fill="#939598"/>
          <g id="Grupo_133131" data-name="Grupo 133131" transform="translate(13.199 8.662)">
            <path id="Trazado_196387" data-name="Trazado 196387" d="M1095.947,1499.854l16.7,9.044,13.679-10.407-13.112-11.778a1.33,1.33,0,0,0-1.559.047l-14.292,8.279a4.507,4.507,0,0,0-2.019,3.51A1.437,1.437,0,0,0,1095.947,1499.854Z" transform="translate(-1095.345 -1486.484)" fill="#fff"/>
            <path id="Trazado_196388" data-name="Trazado 196388" d="M1125.745,1498.786a3.529,3.529,0,0,1-1.595,2.769l-11.315,6.56c-.883.519-1.605.1-1.605-.919a3.553,3.553,0,0,1,1.595-2.781l11.315-6.556C1125.03,1497.349,1125.742,1497.761,1125.745,1498.786Z" transform="translate(-1094.397 -1485.819)" fill="#939598"/>
          </g>
          <g id="Grupo_133132" data-name="Grupo 133132" transform="translate(22.319 24.101)">
            <path id="Trazado_196389" data-name="Trazado 196389" d="M1106.606,1505.516a4.525,4.525,0,0,1-1.449-2.5l-.666-1.15,1.182-.687a1.4,1.4,0,0,1,1.385.139,4.339,4.339,0,0,1,1.968,3.392,1.381,1.381,0,0,1-.576,1.275h0l-1.178.676Z" transform="translate(-1103.919 -1501.054)" fill="#bcbec0"/>
            <path id="Trazado_196390" data-name="Trazado 196390" d="M1107.874,1505.357a4.322,4.322,0,0,0-1.965-3.389c-1.083-.626-1.966-.115-1.958,1.132a4.328,4.328,0,0,0,1.969,3.392C1107,1507.122,1107.88,1506.609,1107.874,1505.357Z" transform="translate(-1103.951 -1501.016)" fill="#535359"/>
          </g>
          <path id="Trazado_196391" data-name="Trazado 196391" d="M1103.885,1503.036a2.066,2.066,0,1,0,2.823.755A2.07,2.07,0,0,0,1103.885,1503.036Z" transform="translate(-1081.698 -1476.852)" fill="#939598"/>
          <g id="Grupo_133133" data-name="Grupo 133133" transform="translate(16.486 26.132)">
            <path id="Trazado_196392" data-name="Trazado 196392" d="M1103.9,1507.068l-4.139.356-.349-4.093,4.139-.356a1.025,1.025,0,0,1,.89.526,3.235,3.235,0,0,1,.246,2.9A1.009,1.009,0,0,1,1103.9,1507.068Z" transform="translate(-1098.389 -1502.971)" fill="#fff"/>
            <path id="Trazado_196393" data-name="Trazado 196393" d="M1100.6,1506.727a3.211,3.211,0,0,0-.243-2.883.889.889,0,0,0-1.675.136,3.23,3.23,0,0,0,.245,2.9A.886.886,0,0,0,1100.6,1506.727Z" transform="translate(-1098.446 -1502.951)" fill="#535359"/>
          </g>
          <path id="Trazado_196394" data-name="Trazado 196394" d="M1097.537,1503.709a2.068,2.068,0,1,0,2.822.755A2.061,2.061,0,0,0,1097.537,1503.709Z" transform="translate(-1082.076 -1476.812)" fill="#939598"/>
          <path id="Trazado_196395" data-name="Trazado 196395" d="M1096.458,1507.056l.007,0a1.026,1.026,0,0,0,1.189-.125,3.426,3.426,0,0,0,1.381-2.808,1.071,1.071,0,0,0-.527-.979v0l-6.023-2.438c-.726-.335-2.1,2.192-1.4,2.684Z" transform="translate(-1082.411 -1476.977)" fill="#fff"/>
          <g id="Grupo_133134" data-name="Grupo 133134" transform="translate(33.289 22.796)">
            <path id="Trazado_196396" data-name="Trazado 196396" d="M1125.2,1501.852l-7.14,6.058-3.41-1.954a.825.825,0,0,1-.341-.751,2.572,2.572,0,0,1,1.16-2.018l5.521-3.2a.8.8,0,0,1,.789-.1Z" transform="translate(-1114.304 -1499.823)" fill="#bcbec0"/>
            <path id="Trazado_196397" data-name="Trazado 196397" d="M1117.5,1507.038a2.569,2.569,0,0,1,1.156-2.014l5.521-3.2c.641-.37,1.164-.074,1.168.67a2.579,2.579,0,0,1-1.161,2.014l-5.527,3.2C1118.021,1508.078,1117.5,1507.779,1117.5,1507.038Z" transform="translate(-1114.113 -1499.713)" fill="#939598"/>
          </g>
          <g id="Grupo_133135" data-name="Grupo 133135" transform="translate(35.432 23.346)">
            <path id="Trazado_196398" data-name="Trazado 196398" d="M1127.049,1500.625a4.627,4.627,0,0,1,2.108,3.63,1.5,1.5,0,0,1-.6,1.361l-.641.37-2.933-5.165.573-.33A1.462,1.462,0,0,1,1127.049,1500.625Z" transform="translate(-1115.81 -1500.343)" fill="#a7a9ac"/>
            <path id="Trazado_196399" data-name="Trazado 196399" d="M1126.88,1500.968a4.615,4.615,0,0,1,2.1,3.63,1.461,1.461,0,0,1-.6,1.353l-7.879,4.57-3-5.125,7.883-4.564A1.469,1.469,0,0,1,1126.88,1500.968Z" transform="translate(-1116.256 -1500.322)" fill="#121214"/>
            <path id="Trazado_196400" data-name="Trazado 196400" d="M1119.029,1505.278a4.632,4.632,0,0,1,2.108,3.634,1.489,1.489,0,0,1-.6,1.353l-.649.37-2.933-5.157.577-.338A1.461,1.461,0,0,1,1119.029,1505.278Z" transform="translate(-1116.288 -1500.065)" fill="#a7a9ac"/>
            <path id="Trazado_196401" data-name="Trazado 196401" d="M1118.425,1505.63c-1.159-.669-2.1-.121-2.1,1.217a4.657,4.657,0,0,0,2.106,3.635c1.16.658,2.1.118,2.1-1.222A4.628,4.628,0,0,0,1118.425,1505.63Z" transform="translate(-1116.326 -1500.044)" fill="#e6e7e8"/>
            <path id="Trazado_196402" data-name="Trazado 196402" d="M1117.654,1506.32c-.344.078-.566.412-.566.932a2.945,2.945,0,0,0,1.328,2.292.839.839,0,0,0,1.089-.036,1.127,1.127,0,0,1-.765-.152,2.934,2.934,0,0,1-1.32-2.3A1.083,1.083,0,0,1,1117.654,1506.32Z" transform="translate(-1116.281 -1499.986)" fill="#a7a9ac"/>
            <path id="Trazado_196403" data-name="Trazado 196403" d="M1118.39,1506.484a1.069,1.069,0,0,0-.755-.163,1.083,1.083,0,0,0-.234.74,2.934,2.934,0,0,0,1.32,2.3,1.127,1.127,0,0,0,.765.152,1.084,1.084,0,0,0,.235-.733A2.932,2.932,0,0,0,1118.39,1506.484Z" transform="translate(-1116.262 -1499.987)" fill="#bcbec0"/>
          </g>
          <g id="Grupo_133136" data-name="Grupo 133136" transform="translate(40.28 26.815)">
            <path id="Trazado_196404" data-name="Trazado 196404" d="M1131.792,1505.644l-7.137,6.058-3.413-1.957a.813.813,0,0,1-.341-.751,2.561,2.561,0,0,1,1.16-2.014l5.52-3.2a.828.828,0,0,1,.787-.1Z" transform="translate(-1120.901 -1503.616)" fill="#bcbec0"/>
            <path id="Trazado_196405" data-name="Trazado 196405" d="M1124.1,1510.83a2.563,2.563,0,0,1,1.161-2.014l5.52-3.2c.637-.371,1.161-.072,1.161.669a2.585,2.585,0,0,1-1.149,2.019l-5.531,3.2C1124.618,1511.874,1124.1,1511.574,1124.1,1510.83Z" transform="translate(-1120.71 -1503.506)" fill="#939598"/>
          </g>
          <g id="Grupo_133137" data-name="Grupo 133137" transform="translate(19.336 12.289)">
            <path id="Trazado_196406" data-name="Trazado 196406" d="M1102.532,1497.725c-.89-.51-1.381-1.129-1.388-1.645l-.007-.584.292-.029a.782.782,0,0,1,.175-.125l7.9-4.573c.883-.513,2.734-.278,4.13.534a3.2,3.2,0,0,1,1.209,1.089l.178-.033v.588a.8.8,0,0,1-.462.733l-7.894,4.57C1105.771,1498.764,1103.927,1498.529,1102.532,1497.725Z" transform="translate(-1101.136 -1489.873)" fill="#939598"/>
            <path id="Trazado_196407" data-name="Trazado 196407" d="M1102.528,1497.133c-1.4-.807-1.812-1.871-.925-2.381l7.894-4.574c.886-.513,2.737-.274,4.133.534s1.811,1.865.921,2.378l-7.89,4.57C1105.771,1498.172,1103.927,1497.937,1102.528,1497.133Z" transform="translate(-1101.136 -1489.908)" fill="#bcbec0"/>
          </g>
          <g id="Grupo_133138" data-name="Grupo 133138" transform="translate(33.495 16.389)">
            <path id="Trazado_196408" data-name="Trazado 196408" d="M1115.894,1497.529c-.889-.512-1.381-1.132-1.4-1.64l0-.587.295-.03a.805.805,0,0,1,.172-.127l.869-.505c.889-.51,2.74-.278,4.136.527a3.332,3.332,0,0,1,1.21,1.089l.171-.026v.591a.819.819,0,0,1-.463.729l-.868.505C1119.136,1498.568,1117.289,1498.33,1115.894,1497.529Z" transform="translate(-1114.498 -1493.741)" fill="#939598"/>
            <path id="Trazado_196409" data-name="Trazado 196409" d="M1115.887,1496.938c-1.4-.809-1.8-1.872-.919-2.385l.869-.505c.889-.512,2.733-.276,4.136.528s1.808,1.871.918,2.384l-.868.505C1119.139,1497.977,1117.286,1497.742,1115.887,1496.938Z" transform="translate(-1114.498 -1493.777)" fill="#bcbec0"/>
          </g>
          <g id="Grupo_133139" data-name="Grupo 133139" transform="translate(26.468 18.922)">
            <path id="Trazado_196410" data-name="Trazado 196410" d="M1109.259,1501.451c-.886-.505-1.378-1.124-1.388-1.645v-.577l.288-.035a1.011,1.011,0,0,1,.178-.128l3.524-2.037c.883-.516,2.733-.273,4.133.528a3.3,3.3,0,0,1,1.213,1.088l.178-.028,0,.59a.819.819,0,0,1-.469.733l-3.52,2.04C1112.5,1502.494,1110.655,1502.255,1109.259,1501.451Z" transform="translate(-1107.867 -1496.132)" fill="#939598"/>
            <path id="Trazado_196411" data-name="Trazado 196411" d="M1109.259,1500.86c-1.4-.8-1.812-1.869-.925-2.378l3.531-2.046c.879-.51,2.734-.274,4.129.53s1.8,1.865.918,2.385l-3.527,2.035C1112.505,1501.9,1110.655,1501.664,1109.259,1500.86Z" transform="translate(-1107.867 -1496.167)" fill="#bcbec0"/>
          </g>
        </g>
        <g id="Grupo_133146" data-name="Grupo 133146" transform="translate(1091.305 1411.414)">
          <g id="Grupo_133141" data-name="Grupo 133141" transform="translate(10.927 44.613)">
            <path id="Trazado_196412" data-name="Trazado 196412" d="M1101.392,1472.609l-2.029-1.175v-17.327l2.029,1.171Z" transform="translate(-1099.363 -1453.196)" fill="#a7a9ac"/>
            <path id="Trazado_196413" data-name="Trazado 196413" d="M1101.278,1472.594l1.573-.911v-17.33l-1.573.911Z" transform="translate(-1099.249 -1453.182)" fill="#939598"/>
            <path id="Trazado_196414" data-name="Trazado 196414" d="M1101.392,1455.33l1.573-.911-2.029-1.171-1.573.911Z" transform="translate(-1099.363 -1453.247)" fill="#bcbec0"/>
          </g>
          <g id="Grupo_133142" data-name="Grupo 133142" transform="translate(10.179 36.64)">
            <path id="Trazado_196415" data-name="Trazado 196415" d="M1101.526,1456.172l-2.869-1.658v-7.575l2.869,1.662Z" transform="translate(-1098.657 -1445.651)" fill="#1d374e"/>
            <path id="Trazado_196416" data-name="Trazado 196416" d="M1101.365,1456.151l2.235-1.289v-7.574l-2.235,1.292Z" transform="translate(-1098.496 -1445.63)" fill="#0f2034"/>
            <path id="Trazado_196417" data-name="Trazado 196417" d="M1101.526,1448.674l2.235-1.292-2.876-1.659-2.228,1.288Z" transform="translate(-1098.657 -1445.723)" fill="#2a4e68"/>
          </g>
          <g id="Grupo_133143" data-name="Grupo 133143" transform="translate(7.617 40.242)">
            <path id="Trazado_196418" data-name="Trazado 196418" d="M1101.228,1450.339v3.321l-2.887,1.662V1452Z" transform="translate(-1096.113 -1449.05)" fill="#0f2034"/>
            <path id="Trazado_196419" data-name="Trazado 196419" d="M1101.354,1450.411l-2.228-1.288-2.887,1.669,2.228,1.285Z" transform="translate(-1096.239 -1449.123)" fill="#2a4e68"/>
            <path id="Trazado_196420" data-name="Trazado 196420" d="M1098.467,1451.983l-2.228-1.285v3.317l2.228,1.285Z" transform="translate(-1096.239 -1449.029)" fill="#1d374e"/>
          </g>
          <g id="Grupo_133144" data-name="Grupo 133144" transform="translate(0 42.314)">
            <path id="Trazado_196421" data-name="Trazado 196421" d="M1098.592,1452.092v2.784l-7.781,4.495v-2.783Z" transform="translate(-1088.946 -1451.017)" fill="#939598"/>
            <path id="Trazado_196422" data-name="Trazado 196422" d="M1098.7,1452.153l-1.865-1.075-7.781,4.492,1.865,1.078Z" transform="translate(-1089.051 -1451.078)" fill="#bcbec0"/>
            <path id="Trazado_196423" data-name="Trazado 196423" d="M1090.916,1456.4l-1.865-1.078v2.783l1.865,1.078Z" transform="translate(-1089.051 -1450.825)" fill="#a7a9ac"/>
          </g>
          <g id="Grupo_133145" data-name="Grupo 133145" transform="translate(10.927)">
            <path id="Trazado_196424" data-name="Trazado 196424" d="M1101.392,1450.255l-2.029-1.171V1412l2.029,1.171Z" transform="translate(-1099.363 -1411.095)" fill="#a7a9ac"/>
            <path id="Trazado_196425" data-name="Trazado 196425" d="M1101.278,1450.24l1.573-.911v-37.081l-1.573.911Z" transform="translate(-1099.249 -1411.08)" fill="#939598"/>
            <path id="Trazado_196426" data-name="Trazado 196426" d="M1101.392,1413.224l1.573-.911-2.029-1.167-1.573.908Z" transform="translate(-1099.363 -1411.146)" fill="#bcbec0"/>
          </g>
        </g>
        <g id="Grupo_133152" data-name="Grupo 133152" transform="translate(1150.683 1445.695)">
          <g id="Grupo_133147" data-name="Grupo 133147" transform="translate(10.927 44.613)">
            <path id="Trazado_196427" data-name="Trazado 196427" d="M1157.427,1504.96l-2.029-1.171v-17.331l2.029,1.171Z" transform="translate(-1155.398 -1485.547)" fill="#a7a9ac"/>
            <path id="Trazado_196428" data-name="Trazado 196428" d="M1157.312,1504.945l1.577-.911V1486.7l-1.577.911Z" transform="translate(-1155.283 -1485.532)" fill="#939598"/>
            <path id="Trazado_196429" data-name="Trazado 196429" d="M1157.427,1487.68l1.577-.911-2.032-1.171-1.573.911Z" transform="translate(-1155.398 -1485.598)" fill="#bcbec0"/>
          </g>
          <g id="Grupo_133148" data-name="Grupo 133148" transform="translate(10.176 36.644)">
            <path id="Trazado_196430" data-name="Trazado 196430" d="M1157.562,1488.526l-2.873-1.659v-7.574l2.873,1.659Z" transform="translate(-1154.689 -1478.005)" fill="#1d374e"/>
            <path id="Trazado_196431" data-name="Trazado 196431" d="M1157.4,1488.506l2.232-1.288v-7.578l-2.232,1.292Z" transform="translate(-1154.527 -1477.984)" fill="#0f2034"/>
            <path id="Trazado_196432" data-name="Trazado 196432" d="M1157.562,1481.025l2.232-1.292-2.873-1.655-2.232,1.288Z" transform="translate(-1154.689 -1478.077)" fill="#2a4e68"/>
          </g>
          <g id="Grupo_133149" data-name="Grupo 133149" transform="translate(7.617 40.246)">
            <path id="Trazado_196433" data-name="Trazado 196433" d="M1157.267,1482.689v3.321l-2.89,1.666v-3.318Z" transform="translate(-1152.148 -1481.404)" fill="#0f2034"/>
            <path id="Trazado_196434" data-name="Trazado 196434" d="M1157.392,1482.761l-2.235-1.285-2.883,1.666,2.228,1.288Z" transform="translate(-1152.274 -1481.476)" fill="#2a4e68"/>
            <path id="Trazado_196435" data-name="Trazado 196435" d="M1154.5,1484.337l-2.228-1.288v3.317l2.228,1.289Z" transform="translate(-1152.274 -1481.383)" fill="#1d374e"/>
          </g>
          <g id="Grupo_133150" data-name="Grupo 133150" transform="translate(0 42.314)">
            <path id="Trazado_196436" data-name="Trazado 196436" d="M1154.627,1484.446v2.783l-7.781,4.488v-2.78Z" transform="translate(-1144.981 -1483.367)" fill="#939598"/>
            <path id="Trazado_196437" data-name="Trazado 196437" d="M1154.732,1484.507l-1.865-1.079-7.781,4.492,1.865,1.079Z" transform="translate(-1145.086 -1483.428)" fill="#bcbec0"/>
            <path id="Trazado_196438" data-name="Trazado 196438" d="M1146.951,1488.746l-1.865-1.078v2.78l1.865,1.078Z" transform="translate(-1145.086 -1483.175)" fill="#a7a9ac"/>
          </g>
          <g id="Grupo_133151" data-name="Grupo 133151" transform="translate(10.927)">
            <path id="Trazado_196439" data-name="Trazado 196439" d="M1157.427,1482.609l-2.029-1.175v-37.081l2.029,1.174Z" transform="translate(-1155.398 -1443.445)" fill="#a7a9ac"/>
            <path id="Trazado_196440" data-name="Trazado 196440" d="M1157.312,1482.594l1.577-.911V1444.6l-1.577.911Z" transform="translate(-1155.283 -1443.43)" fill="#939598"/>
            <path id="Trazado_196441" data-name="Trazado 196441" d="M1157.427,1445.578l1.577-.911-2.032-1.171-1.573.907Z" transform="translate(-1155.398 -1443.496)" fill="#bcbec0"/>
          </g>
        </g>
        <g id="Grupo_133173" data-name="Grupo 133173" transform="translate(1083.087 1457.529)">
          <g id="Grupo_133153" data-name="Grupo 133153">
            <path id="Trazado_196442" data-name="Trazado 196442" d="M1091.57,1456.046v3.78l-7.88,4.549V1460.6Z" transform="translate(-1081.152 -1454.583)" fill="#0f2034"/>
            <path id="Trazado_196443" data-name="Trazado 196443" d="M1091.713,1456.128l-2.534-1.463-7.884,4.552,2.538,1.463Z" transform="translate(-1081.295 -1454.665)" fill="#2a4e68"/>
            <path id="Trazado_196444" data-name="Trazado 196444" d="M1083.833,1460.424l-2.538-1.463v3.777l2.538,1.463Z" transform="translate(-1081.295 -1454.409)" fill="#1d374e"/>
          </g>
          <g id="Grupo_133154" data-name="Grupo 133154" transform="translate(7.176 3.033)">
            <path id="Trazado_196445" data-name="Trazado 196445" d="M1088.066,1458.776l2.161-1.249,17.092,9.866-2.164,1.246Z" transform="translate(-1088.066 -1457.527)" fill="#bcbec0"/>
            <path id="Trazado_196446" data-name="Trazado 196446" d="M1088.066,1458.706v1.94l17.089,9.859v-1.936Z" transform="translate(-1088.066 -1457.457)" fill="#a7a9ac"/>
            <path id="Trazado_196447" data-name="Trazado 196447" d="M1104.193,1468.084v1.936l2.164-1.246v-1.936Z" transform="translate(-1087.104 -1456.972)" fill="#939598"/>
          </g>
          <g id="Grupo_133155" data-name="Grupo 133155" transform="translate(3.616 5.094)">
            <path id="Trazado_196448" data-name="Trazado 196448" d="M1084.708,1460.718l2.16-1.246,17.089,9.863-2.161,1.249Z" transform="translate(-1084.708 -1459.472)" fill="#bcbec0"/>
            <path id="Trazado_196449" data-name="Trazado 196449" d="M1084.708,1460.647v1.936l17.088,9.867v-1.937Z" transform="translate(-1084.708 -1459.402)" fill="#a7a9ac"/>
            <path id="Trazado_196450" data-name="Trazado 196450" d="M1100.834,1470.029v1.937l2.161-1.249v-1.937Z" transform="translate(-1083.746 -1458.917)" fill="#939598"/>
          </g>
          <g id="Grupo_133165" data-name="Grupo 133165" transform="translate(25.574 16.548)">
            <g id="Grupo_133157" data-name="Grupo 133157" transform="translate(2.958 11.849)">
              <g id="Grupo_133156" data-name="Grupo 133156" transform="translate(0.258 2.361)">
                <path id="Trazado_196451" data-name="Trazado 196451" d="M1108.566,1484.035a.55.55,0,0,0,.495,0,.152.152,0,0,0,0-.285.55.55,0,0,0-.495,0A.151.151,0,0,0,1108.566,1484.035Z" transform="translate(-1108.464 -1483.691)" fill="#9c251f"/>
              </g>
              <path id="Trazado_196452" data-name="Trazado 196452" d="M1109.476,1481.806v2.363h-.006a.323.323,0,0,1-.178.256,1.025,1.025,0,0,1-.89,0,.322.322,0,0,1-.178-.256v-2.363Z" transform="translate(-1108.22 -1481.443)" fill="#121214"/>
              <path id="Trazado_196453" data-name="Trazado 196453" d="M1108.4,1482.083a1.009,1.009,0,0,0,.89,0,.272.272,0,0,0,0-.513.984.984,0,0,0-.89,0A.272.272,0,0,0,1108.4,1482.083Z" transform="translate(-1108.22 -1481.463)" fill="#5c5c5c"/>
            </g>
            <g id="Grupo_133158" data-name="Grupo 133158" transform="translate(1.749 10.547)">
              <path id="Trazado_196454" data-name="Trazado 196454" d="M1110.752,1481.228v.534h-.011a.918.918,0,0,1-.534.747,2.862,2.862,0,0,1-2.591,0,.923.923,0,0,1-.537-.747v-.534Z" transform="translate(-1107.079 -1480.175)" fill="#ba6000"/>
              <path id="Trazado_196455" data-name="Trazado 196455" d="M1107.616,1482.042a2.888,2.888,0,0,0,2.591,0,.79.79,0,0,0,0-1.495,2.842,2.842,0,0,0-2.591,0A.789.789,0,0,0,1107.616,1482.042Z" transform="translate(-1107.079 -1480.234)" fill="#ff9d26"/>
            </g>
            <g id="Grupo_133159" data-name="Grupo 133159" transform="translate(2.254 7.803)">
              <path id="Trazado_196456" data-name="Trazado 196456" d="M1110.221,1478.373v2.918h-.011a.676.676,0,0,1-.388.537,2.049,2.049,0,0,1-1.875,0,.674.674,0,0,1-.391-.537v-2.918Z" transform="translate(-1107.556 -1477.602)" fill="#121214"/>
              <path id="Trazado_196457" data-name="Trazado 196457" d="M1107.947,1478.957a2.067,2.067,0,0,0,1.875,0,.57.57,0,0,0,0-1.082,2.028,2.028,0,0,0-1.875,0C1107.423,1478.174,1107.431,1478.655,1107.947,1478.957Z" transform="translate(-1107.556 -1477.645)" fill="#5c5c5c"/>
            </g>
            <g id="Grupo_133160" data-name="Grupo 133160" transform="translate(0.753 6.755)">
              <path id="Trazado_196458" data-name="Trazado 196458" d="M1111.808,1478.2v.812h-.015a1.406,1.406,0,0,1-.829,1.153,4.394,4.394,0,0,1-4,0,1.4,1.4,0,0,1-.827-1.153v-.812Z" transform="translate(-1106.139 -1476.564)" fill="#ba6000"/>
              <path id="Trazado_196459" data-name="Trazado 196459" d="M1106.968,1479.443a4.414,4.414,0,0,0,4,0,1.217,1.217,0,0,0,0-2.306,4.394,4.394,0,0,0-4,0A1.217,1.217,0,0,0,1106.968,1479.443Z" transform="translate(-1106.14 -1476.656)" fill="#ff9d26"/>
            </g>
            <g id="Grupo_133161" data-name="Grupo 133161" transform="translate(1.453 4.608)">
              <path id="Trazado_196460" data-name="Trazado 196460" d="M1111.064,1475.787v2.352h-.015a1.061,1.061,0,0,1-.626.865,3.318,3.318,0,0,1-3,0,1.061,1.061,0,0,1-.626-.865v-2.352Z" transform="translate(-1106.8 -1474.56)" fill="#121214"/>
              <path id="Trazado_196461" data-name="Trazado 196461" d="M1107.426,1476.724a3.317,3.317,0,0,0,3,0,.914.914,0,0,0,0-1.737,3.317,3.317,0,0,0-3,0A.918.918,0,0,0,1107.426,1476.724Z" transform="translate(-1106.8 -1474.63)" fill="#5c5c5c"/>
            </g>
            <g id="Grupo_133162" data-name="Grupo 133162" transform="translate(0 2.324)">
              <path id="Trazado_196462" data-name="Trazado 196462" d="M1112.6,1474.419v1.036h-.021a1.764,1.764,0,0,1-1.043,1.452,5.6,5.6,0,0,1-5.054,0,1.774,1.774,0,0,1-1.05-1.452v-1.036Z" transform="translate(-1105.429 -1472.358)" fill="#ba6000"/>
              <path id="Trazado_196463" data-name="Trazado 196463" d="M1106.479,1476a5.6,5.6,0,0,0,5.054,0c1.391-.808,1.391-2.111,0-2.922a5.636,5.636,0,0,0-5.054,0C1105.077,1473.884,1105.08,1475.187,1106.479,1476Z" transform="translate(-1105.429 -1472.474)" fill="#ff9d26"/>
            </g>
            <g id="Grupo_133163" data-name="Grupo 133163" transform="translate(0.804 0.571)">
              <path id="Trazado_196464" data-name="Trazado 196464" d="M1111.752,1472.327v1.95h-.018a1.368,1.368,0,0,1-.808,1.129,4.357,4.357,0,0,1-3.926,0,1.366,1.366,0,0,1-.812-1.129v-1.95Z" transform="translate(-1106.188 -1470.73)" fill="#ba6000"/>
              <path id="Trazado_196465" data-name="Trazado 196465" d="M1107,1473.549a4.337,4.337,0,0,0,3.926,0,1.2,1.2,0,0,0,0-2.264,4.383,4.383,0,0,0-3.926,0A1.2,1.2,0,0,0,1107,1473.549Z" transform="translate(-1106.188 -1470.82)" fill="#ff9d26"/>
            </g>
            <g id="Grupo_133164" data-name="Grupo 133164" transform="translate(1.239)">
              <path id="Trazado_196466" data-name="Trazado 196466" d="M1111.289,1471.561v.669h-.011a1.163,1.163,0,0,1-.687.961,3.65,3.65,0,0,1-3.3,0,1.161,1.161,0,0,1-.691-.961v-.669Z" transform="translate(-1106.598 -1470.205)" fill="#ba6000"/>
              <path id="Trazado_196467" data-name="Trazado 196467" d="M1107.289,1472.591a3.65,3.65,0,0,0,3.3,0,1.01,1.01,0,0,0,0-1.915,3.649,3.649,0,0,0-3.3,0A1.01,1.01,0,0,0,1107.289,1472.591Z" transform="translate(-1106.598 -1470.281)" fill="#ff9d26"/>
            </g>
          </g>
          <g id="Grupo_133166" data-name="Grupo 133166" transform="translate(19.466 11.241)">
            <path id="Trazado_196468" data-name="Trazado 196468" d="M1118.361,1471.517v3.777l-7.88,4.549v-3.773Z" transform="translate(-1099.02 -1464.9)" fill="#bcbec0"/>
            <path id="Trazado_196469" data-name="Trazado 196469" d="M1119.006,1471.889l-11.461-6.617-7.88,4.556,11.461,6.613Z" transform="translate(-1099.665 -1465.273)" fill="#fff"/>
            <path id="Trazado_196470" data-name="Trazado 196470" d="M1111.126,1476.186l-11.461-6.613v3.773l11.461,6.613Z" transform="translate(-1099.665 -1465.016)" fill="#e6e7e8"/>
          </g>
          <g id="Grupo_133167" data-name="Grupo 133167" transform="translate(35.569 19.423)">
            <path id="Trazado_196471" data-name="Trazado 196471" d="M1114.861,1474.244l2.157-1.249,30.084,17.366-2.164,1.249Z" transform="translate(-1114.861 -1472.995)" fill="#bcbec0"/>
            <path id="Trazado_196472" data-name="Trazado 196472" d="M1114.861,1474.174v1.937l30.077,17.37v-1.94Z" transform="translate(-1114.861 -1472.925)" fill="#a7a9ac"/>
            <path id="Trazado_196473" data-name="Trazado 196473" d="M1143.245,1490.633v1.94l2.164-1.249v-1.94Z" transform="translate(-1113.168 -1472.017)" fill="#939598"/>
          </g>
          <g id="Grupo_133168" data-name="Grupo 133168" transform="translate(32.009 21.485)">
            <path id="Trazado_196474" data-name="Trazado 196474" d="M1111.5,1476.186l2.161-1.246,30.08,17.362-2.164,1.246Z" transform="translate(-1111.502 -1474.94)" fill="#bcbec0"/>
            <path id="Trazado_196475" data-name="Trazado 196475" d="M1111.5,1476.116v1.936l30.077,17.37v-1.943Z" transform="translate(-1111.502 -1474.87)" fill="#a7a9ac"/>
            <path id="Trazado_196476" data-name="Trazado 196476" d="M1139.886,1492.571v1.943l2.164-1.253v-1.937Z" transform="translate(-1109.809 -1473.963)" fill="#939598"/>
          </g>
          <g id="Grupo_133169" data-name="Grupo 133169" transform="translate(59.381 34.284)">
            <path id="Trazado_196477" data-name="Trazado 196477" d="M1147.6,1488.4v3.773l-7.88,4.549v-3.773Z" transform="translate(-1137.19 -1486.937)" fill="#0f2034"/>
            <path id="Trazado_196478" data-name="Trazado 196478" d="M1147.748,1488.485l-2.534-1.466-7.88,4.549,2.534,1.467Z" transform="translate(-1137.333 -1487.019)" fill="#2a4e68"/>
            <path id="Trazado_196479" data-name="Trazado 196479" d="M1139.867,1492.778l-2.534-1.467v3.777l2.534,1.463Z" transform="translate(-1137.333 -1486.763)" fill="#1d374e"/>
          </g>
          <g id="Grupo_133172" data-name="Grupo 133172" transform="translate(25.545 9.399)">
            <g id="Grupo_133170" data-name="Grupo 133170" transform="translate(0 3.236)">
              <path id="Trazado_196480" data-name="Trazado 196480" d="M1112.632,1468.558v2.117a1.816,1.816,0,0,1-1.057,1.474,5.666,5.666,0,0,1-5.119,0,1.81,1.81,0,0,1-1.053-1.474v-2.117Z" transform="translate(-1105.401 -1466.47)" fill="#303033"/>
              <path id="Trazado_196481" data-name="Trazado 196481" d="M1106.455,1470.149a5.665,5.665,0,0,0,5.119,0c1.409-.812,1.409-2.136,0-2.948a5.647,5.647,0,0,0-5.119,0C1105.05,1468.013,1105.05,1469.338,1106.455,1470.149Z" transform="translate(-1105.401 -1466.588)" fill="#535359"/>
            </g>
            <g id="Grupo_133171" data-name="Grupo 133171" transform="translate(0.399)">
              <path id="Trazado_196482" data-name="Trazado 196482" d="M1112.207,1465.286v3.275a1.6,1.6,0,0,1-.94,1.32,5,5,0,0,1-4.546,0,1.6,1.6,0,0,1-.943-1.32v-3.275Z" transform="translate(-1105.778 -1463.43)" fill="#303033"/>
              <path id="Trazado_196483" data-name="Trazado 196483" d="M1106.721,1466.7a4.992,4.992,0,0,0,4.546,0c1.26-.723,1.26-1.9,0-2.624a5.063,5.063,0,0,0-4.546,0C1105.465,1464.8,1105.465,1465.974,1106.721,1466.7Z" transform="translate(-1105.778 -1463.534)" fill="#535359"/>
            </g>
          </g>
        </g>
        <g id="Grupo_133179" data-name="Grupo 133179" transform="translate(1054.636 1438.458)">
          <g id="Grupo_133174" data-name="Grupo 133174" transform="translate(0.748 44.613)">
            <path id="Trazado_196484" data-name="Trazado 196484" d="M1057.188,1498.131l-2.036-1.171v-17.334l2.036,1.171Z" transform="translate(-1055.152 -1478.718)" fill="#a7a9ac"/>
            <path id="Trazado_196485" data-name="Trazado 196485" d="M1057.073,1498.116l1.573-.911v-17.327l-1.573.9Z" transform="translate(-1055.037 -1478.703)" fill="#939598"/>
            <path id="Trazado_196486" data-name="Trazado 196486" d="M1057.188,1480.848l1.573-.9-2.029-1.175-1.58.908Z" transform="translate(-1055.152 -1478.769)" fill="#bcbec0"/>
          </g>
          <g id="Grupo_133175" data-name="Grupo 133175" transform="translate(5.62 24.314)">
            <path id="Trazado_196487" data-name="Trazado 196487" d="M1084.678,1460.631v2.78l-23.164,13.372V1474Z" transform="translate(-1059.645 -1459.552)" fill="#939598"/>
            <path id="Trazado_196488" data-name="Trazado 196488" d="M1084.783,1460.691l-1.872-1.078-23.161,13.372,1.869,1.075Z" transform="translate(-1059.75 -1459.613)" fill="#bcbec0"/>
            <path id="Trazado_196489" data-name="Trazado 196489" d="M1061.619,1473.307l-1.869-1.075v2.78l1.869,1.078Z" transform="translate(-1059.75 -1458.86)" fill="#a7a9ac"/>
          </g>
          <g id="Grupo_133176" data-name="Grupo 133176" transform="translate(2.556 37.295)">
            <path id="Trazado_196490" data-name="Trazado 196490" d="M1061.844,1473.079v3.31l-2.883,1.67v-3.318Z" transform="translate(-1056.733 -1471.791)" fill="#0f2034"/>
            <path id="Trazado_196491" data-name="Trazado 196491" d="M1061.969,1473.151l-2.224-1.288-2.887,1.666,2.228,1.285Z" transform="translate(-1056.858 -1471.863)" fill="#2a4e68"/>
            <path id="Trazado_196492" data-name="Trazado 196492" d="M1059.086,1474.72l-2.228-1.285v3.317l2.228,1.285Z" transform="translate(-1056.858 -1471.769)" fill="#1d374e"/>
          </g>
          <g id="Grupo_133177" data-name="Grupo 133177" transform="translate(0 36.64)">
            <path id="Trazado_196493" data-name="Trazado 196493" d="M1057.322,1481.694l-2.876-1.655v-7.578l2.876,1.658Z" transform="translate(-1054.446 -1471.172)" fill="#1d374e"/>
            <path id="Trazado_196494" data-name="Trazado 196494" d="M1057.16,1481.673l2.228-1.285v-7.578l-2.228,1.288Z" transform="translate(-1054.284 -1471.151)" fill="#0f2034"/>
            <path id="Trazado_196495" data-name="Trazado 196495" d="M1057.322,1474.192l2.228-1.288-2.876-1.659-2.228,1.289Z" transform="translate(-1054.446 -1471.245)" fill="#2a4e68"/>
          </g>
          <g id="Grupo_133178" data-name="Grupo 133178" transform="translate(0.748)">
            <path id="Trazado_196496" data-name="Trazado 196496" d="M1057.188,1475.776l-2.036-1.171v-37.078l2.036,1.167Z" transform="translate(-1055.152 -1436.616)" fill="#a7a9ac"/>
            <path id="Trazado_196497" data-name="Trazado 196497" d="M1057.073,1475.761l1.573-.911v-37.078l-1.573.908Z" transform="translate(-1055.037 -1436.602)" fill="#939598"/>
            <path id="Trazado_196498" data-name="Trazado 196498" d="M1057.188,1438.746l1.573-.908-2.029-1.171-1.58.911Z" transform="translate(-1055.152 -1436.667)" fill="#bcbec0"/>
          </g>
        </g>
        <g id="Grupo_133185" data-name="Grupo 133185" transform="translate(1114.014 1472.739)">
          <g id="Grupo_133180" data-name="Grupo 133180" transform="translate(0.755 44.617)">
            <path id="Trazado_196499" data-name="Trazado 196499" d="M1113.222,1530.485l-2.029-1.175v-17.334l2.029,1.175Z" transform="translate(-1111.193 -1511.072)" fill="#a7a9ac"/>
            <path id="Trazado_196500" data-name="Trazado 196500" d="M1113.108,1530.47l1.573-.911v-17.334l-1.573.911Z" transform="translate(-1111.079 -1511.057)" fill="#939598"/>
            <path id="Trazado_196501" data-name="Trazado 196501" d="M1113.222,1513.2l1.573-.911-2.029-1.167-1.573.9Z" transform="translate(-1111.193 -1511.123)" fill="#bcbec0"/>
          </g>
          <g id="Grupo_133181" data-name="Grupo 133181" transform="translate(5.624 24.314)">
            <path id="Trazado_196502" data-name="Trazado 196502" d="M1140.713,1492.985v2.78l-23.165,13.373v-2.78Z" transform="translate(-1115.683 -1491.903)" fill="#939598"/>
            <path id="Trazado_196503" data-name="Trazado 196503" d="M1140.818,1493.046l-1.872-1.082-23.157,13.372,1.865,1.082Z" transform="translate(-1115.788 -1491.964)" fill="#bcbec0"/>
            <path id="Trazado_196504" data-name="Trazado 196504" d="M1117.653,1505.665l-1.865-1.082v2.78l1.865,1.082Z" transform="translate(-1115.788 -1491.211)" fill="#a7a9ac"/>
          </g>
          <g id="Grupo_133182" data-name="Grupo 133182" transform="translate(2.556 37.295)">
            <path id="Trazado_196505" data-name="Trazado 196505" d="M1117.886,1505.426v3.318l-2.89,1.666v-3.317Z" transform="translate(-1112.767 -1504.141)" fill="#0f2034"/>
            <path id="Trazado_196506" data-name="Trazado 196506" d="M1118.011,1505.5l-2.232-1.285-2.887,1.662,2.228,1.289Z" transform="translate(-1112.893 -1504.214)" fill="#2a4e68"/>
            <path id="Trazado_196507" data-name="Trazado 196507" d="M1115.121,1507.071l-2.228-1.288v3.321l2.228,1.285Z" transform="translate(-1112.893 -1504.12)" fill="#1d374e"/>
          </g>
          <g id="Grupo_133183" data-name="Grupo 133183" transform="translate(0 36.644)">
            <path id="Trazado_196508" data-name="Trazado 196508" d="M1113.357,1514.048l-2.876-1.659v-7.574l2.876,1.659Z" transform="translate(-1110.481 -1503.526)" fill="#1d374e"/>
            <path id="Trazado_196509" data-name="Trazado 196509" d="M1113.2,1514.027l2.228-1.288v-7.574l-2.228,1.288Z" transform="translate(-1110.319 -1503.506)" fill="#0f2034"/>
            <path id="Trazado_196510" data-name="Trazado 196510" d="M1113.357,1506.546l2.228-1.288-2.869-1.659-2.235,1.288Z" transform="translate(-1110.481 -1503.599)" fill="#2a4e68"/>
          </g>
          <g id="Grupo_133184" data-name="Grupo 133184" transform="translate(0.755)">
            <path id="Trazado_196511" data-name="Trazado 196511" d="M1113.222,1508.13l-2.029-1.175v-37.078l2.029,1.171Z" transform="translate(-1111.193 -1468.967)" fill="#a7a9ac"/>
            <path id="Trazado_196512" data-name="Trazado 196512" d="M1113.108,1508.116l1.573-.911v-37.081l-1.573.911Z" transform="translate(-1111.079 -1468.952)" fill="#939598"/>
            <path id="Trazado_196513" data-name="Trazado 196513" d="M1113.222,1471.1l1.573-.911-2.029-1.171-1.573.911Z" transform="translate(-1111.193 -1469.018)" fill="#bcbec0"/>
          </g>
        </g>
        <g id="Grupo_133186" data-name="Grupo 133186" transform="translate(1116.797 1446.865)">
          <path id="Trazado_196514" data-name="Trazado 196514" d="M1115.172,1542.526l-2.064-1.193v-70.351l2.064,1.192Z" transform="translate(-1113.108 -1443.028)" fill="#bcbec0"/>
          <path id="Trazado_196515" data-name="Trazado 196515" d="M1115.172,1473.749l-2.064-1.192,48.418-27.956,2.064,1.2Z" transform="translate(-1113.108 -1444.601)" fill="#e6e7e8"/>
          <path id="Trazado_196516" data-name="Trazado 196516" d="M1161.97,1447.974l-48.419,27.951v67.055l48.419-27.955Zm-1.652,58.3-33.08,19.1-4.795-6.072.029-1.068-1.59-.914-5.709,3.292v-46.632l36.113-20.851,9.034,4.4Z" transform="translate(-1113.081 -1444.4)" fill="#535359"/>
          <path id="Trazado_196517" data-name="Trazado 196517" d="M1163.475,1445.73l-48.419,27.952v70.351l48.419-27.948,1.032-15.191V1451.23Zm-1.649,61.6-33.088,19.1-6.357-8.065-5.709,3.3V1475.03l36.114-20.854,9.04,4.4Z" transform="translate(-1112.992 -1444.534)" fill="#939598"/>
          <path id="Trazado_196518" data-name="Trazado 196518" d="M1161.735,1506.853l-33.088,19.1-6.357-8.065-5.709,3.3v-46.628l36.114-20.854,9.04,4.4Z" transform="translate(-1112.901 -1444.058)" fill="#24d2c1" opacity="0.2"/>
        </g>
        <g id="Grupo_133188" data-name="Grupo 133188" transform="translate(1051.255 1438.174)">
          <path id="Trazado_196519" data-name="Trazado 196519" d="M1113.108,1543.655l2.064-1.2v-70.351l-2.064,1.193Z" transform="translate(-1047.565 -1434.269)" fill="#939598"/>
          <path id="Trazado_196520" data-name="Trazado 196520" d="M1116.8,1475.431l2.064-1.193-65.542-37.84-2.064,1.2Z" transform="translate(-1051.255 -1436.399)" fill="#e6e7e8"/>
          <path id="Trazado_196521" data-name="Trazado 196521" d="M1052.157,1439.18l-.1,68.724,63.735,36.161.349-68.141Zm2.3,10.173,9.03-4.4,53.234,30.735v46.634l-11.027,5.361-38.591-22.278v-30.294l-12.646-17.491Z" transform="translate(-1051.207 -1436.233)" fill="#535359"/>
          <path id="Trazado_196522" data-name="Trazado 196522" d="M1051.255,1437.527v70.351l65.543,37.84v-70.354Zm1.652,12.843,9.037-4.392,53.235,30.731v46.631l-11.031,5.371-38.59-22.285-.036-30.269-12.614-17.509Z" transform="translate(-1051.255 -1436.332)" fill="#bcbec0"/>
          <g id="Grupo_133187" data-name="Grupo 133187" transform="translate(2.951 40.349)">
            <path id="Trazado_196523" data-name="Trazado 196523" d="M1062.885,1500.04l-8.845-5.111v-20.452l8.845,5.111Z" transform="translate(-1054.04 -1474.476)" opacity="0.1"/>
            <path id="Trazado_196524" data-name="Trazado 196524" d="M1061.509,1487.688l-6.243-3.6V1477l6.243,3.6Z" transform="translate(-1053.967 -1474.326)" fill="#24d2c1"/>
            <path id="Trazado_196525" data-name="Trazado 196525" d="M1056.7,1487.823l-1.438-.829v-1.634l1.438.826Z" transform="translate(-1053.967 -1473.827)" fill="#24d2c1"/>
            <path id="Trazado_196526" data-name="Trazado 196526" d="M1056.7,1490.6l-1.438-.829v-1.634l1.438.833Z" transform="translate(-1053.967 -1473.661)" fill="#24d2c1"/>
            <path id="Trazado_196527" data-name="Trazado 196527" d="M1056.7,1493.385l-1.438-.833v-1.63l1.438.826Z" transform="translate(-1053.967 -1473.495)" fill="#24d2c1"/>
            <path id="Trazado_196528" data-name="Trazado 196528" d="M1058.934,1489.113l-1.438-.833v-1.637l1.438.833Z" transform="translate(-1053.834 -1473.751)" fill="#24d2c1"/>
            <path id="Trazado_196529" data-name="Trazado 196529" d="M1058.934,1491.891l-1.438-.83v-1.637l1.438.833Z" transform="translate(-1053.834 -1473.585)" fill="#24d2c1"/>
            <path id="Trazado_196530" data-name="Trazado 196530" d="M1058.934,1494.675l-1.438-.833v-1.637l1.438.833Z" transform="translate(-1053.834 -1473.419)" fill="#ff9d26"/>
            <path id="Trazado_196531" data-name="Trazado 196531" d="M1061.239,1490.439l-1.438-.83v-1.63l1.438.825Z" transform="translate(-1053.696 -1473.671)" fill="#24d2c1"/>
            <path id="Trazado_196532" data-name="Trazado 196532" d="M1061.239,1493.217l-1.438-.826v-1.63l1.438.825Z" transform="translate(-1053.696 -1473.505)" fill="#24d2c1"/>
            <path id="Trazado_196533" data-name="Trazado 196533" d="M1061.239,1496.005l-1.438-.833v-1.637l1.438.833Z" transform="translate(-1053.696 -1473.34)" fill="#e31b25"/>
          </g>
        </g>
        <g id="Grupo_133189" data-name="Grupo 133189" transform="translate(1051.255 1406.645)">
          <path id="Trazado_196534" data-name="Trazado 196534" d="M1051.255,1435.277v2.385L1116.8,1475.5v-2.385Z" transform="translate(-1051.255 -1404.937)" fill="#bcbec0"/>
          <path id="Trazado_196535" data-name="Trazado 196535" d="M1113.108,1472.691v2.385l52.547-30.34v-2.385Z" transform="translate(-1047.565 -1404.515)" fill="#939598"/>
          <path id="Trazado_196536" data-name="Trazado 196536" d="M1167.252,1444.39l-64.076-37.107-50.2,29.614,63.447,37.035Zm-10.841-2.589-.706,10.023-39.369,22.723-29.775-17.187.869-12.234,37.38-21.57Z" transform="translate(-1051.152 -1406.607)" fill="#535359"/>
          <path id="Trazado_196537" data-name="Trazado 196537" d="M1169.345,1444.481l-65.538-37.836-52.551,30.34,65.543,37.836ZM1156.513,1440l-.706,10.023-39.369,22.72-29.846-17.228.869-12.234,37.374-21.573Z" transform="translate(-1051.255 -1406.645)" fill="#e6e7e8"/>
          <path id="Trazado_196538" data-name="Trazado 196538" d="M1154.524,1439.152l-.706,10.023-39.369,22.72-29.846-17.228.869-12.234,37.374-21.573Z" transform="translate(-1049.266 -1405.797)" fill="#24d2c1" opacity="0.2"/>
        </g>
      </g>
      <path id="Trazado_197827" data-name="Trazado 197827" d="M14.684-13.887H9.563V0H5.449V-13.887H.422v-3.176H14.684ZM21.328.234a6.518,6.518,0,0,1-4.723-1.74,6.009,6.009,0,0,1-1.8-4.529v-.328A7.787,7.787,0,0,1,15.521-9.8a5.274,5.274,0,0,1,2.1-2.3,6.35,6.35,0,0,1,3.281-.814,5.489,5.489,0,0,1,4.219,1.658,6.516,6.516,0,0,1,1.547,4.623V-5.1H18.82a2.846,2.846,0,0,0,.926,1.676,2.755,2.755,0,0,0,1.852.609,3.549,3.549,0,0,0,2.93-1.312l1.8,2.133A5.045,5.045,0,0,1,24.24-.369,7.069,7.069,0,0,1,21.328.234Zm-.445-10.1q-1.734,0-2.062,2.3H22.8v-.3a1.956,1.956,0,0,0-.48-1.471A1.912,1.912,0,0,0,20.883-9.867ZM33.621-2.812a1.756,1.756,0,0,0,1.289-.451,1.654,1.654,0,0,0,.445-1.26h3.7A4.384,4.384,0,0,1,37.564-1.1,5.558,5.558,0,0,1,33.715.234,5.627,5.627,0,0,1,29.355-1.5a6.834,6.834,0,0,1-1.594-4.8v-.164a7.723,7.723,0,0,1,.709-3.393,5.162,5.162,0,0,1,2.045-2.262,6.1,6.1,0,0,1,3.164-.791,5.488,5.488,0,0,1,3.926,1.371,4.863,4.863,0,0,1,1.453,3.715h-3.7a2.168,2.168,0,0,0-.48-1.512,1.658,1.658,0,0,0-1.289-.527q-1.535,0-1.793,1.957A13.809,13.809,0,0,0,31.711-6.2a5.424,5.424,0,0,0,.457,2.648A1.582,1.582,0,0,0,33.621-2.812ZM44.355-12.68l.129,1.488a4.3,4.3,0,0,1,3.621-1.723,3.618,3.618,0,0,1,2.959,1.184,5.635,5.635,0,0,1,1.014,3.563V0H48.117V-8a2.14,2.14,0,0,0-.387-1.412,1.789,1.789,0,0,0-1.406-.451,1.883,1.883,0,0,0-1.723.914V0H40.652V-12.68Zm9.41,6.223A7.484,7.484,0,0,1,54.5-9.838a5.28,5.28,0,0,1,2.121-2.279,6.388,6.388,0,0,1,3.246-.8,5.83,5.83,0,0,1,4.488,1.764A6.768,6.768,0,0,1,66-6.352v.141a6.566,6.566,0,0,1-1.646,4.705A5.846,5.846,0,0,1,59.895.234a5.912,5.912,0,0,1-4.348-1.623,6.348,6.348,0,0,1-1.77-4.4Zm3.949.246a4.718,4.718,0,0,0,.551,2.578,1.835,1.835,0,0,0,1.629.82q2.109,0,2.156-3.246v-.4q0-3.41-2.18-3.41-1.98,0-2.145,2.941ZM71.906,0H67.945V-18h3.961ZM73.84-6.457a7.484,7.484,0,0,1,.738-3.381A5.28,5.28,0,0,1,76.7-12.117a6.388,6.388,0,0,1,3.246-.8,5.83,5.83,0,0,1,4.488,1.764,6.768,6.768,0,0,1,1.641,4.8v.141a6.566,6.566,0,0,1-1.646,4.705A5.846,5.846,0,0,1,79.969.234a5.912,5.912,0,0,1-4.348-1.623,6.348,6.348,0,0,1-1.77-4.4Zm3.949.246a4.718,4.718,0,0,0,.551,2.578,1.835,1.835,0,0,0,1.629.82q2.109,0,2.156-3.246v-.4q0-3.41-2.18-3.41-1.98,0-2.145,2.941Zm9.563-.223a8.561,8.561,0,0,1,.633-3.4A5.094,5.094,0,0,1,89.8-12.111a4.788,4.788,0,0,1,2.754-.8,3.807,3.807,0,0,1,3.094,1.336l.141-1.1h3.586V-.48A5.346,5.346,0,0,1,98.6,2.432a5,5,0,0,1-2.256,1.9,8.292,8.292,0,0,1-3.422.662,7.153,7.153,0,0,1-2.7-.527,4.876,4.876,0,0,1-2-1.371L89.871.773a3.621,3.621,0,0,0,2.906,1.3q2.625,0,2.625-2.7v-.4A3.708,3.708,0,0,1,92.531.234a4.583,4.583,0,0,1-3.75-1.775,7.356,7.356,0,0,1-1.43-4.752Zm3.961.246A4.511,4.511,0,0,0,91.9-3.721a1.849,1.849,0,0,0,1.641.908A2.1,2.1,0,0,0,95.4-3.668V-9a2.045,2.045,0,0,0-1.84-.867,1.861,1.861,0,0,0-1.652.943A5.144,5.144,0,0,0,91.313-6.187ZM105.926,0h-3.973V-12.68h3.973Zm-1.477-17.766h4.172l-3.258,3.68-3.223-.006ZM115.605,0a4.459,4.459,0,0,1-.375-1.137A3.672,3.672,0,0,1,112.184.234,4.5,4.5,0,0,1,109.137-.85a3.45,3.45,0,0,1-1.254-2.725,3.546,3.546,0,0,1,1.523-3.117,7.761,7.761,0,0,1,4.43-1.055h1.219v-.671q0-1.755-1.512-1.755a1.236,1.236,0,0,0-1.406,1.39h-3.949a3.54,3.54,0,0,1,1.564-2.985,6.575,6.575,0,0,1,3.99-1.147,5.764,5.764,0,0,1,3.832,1.184,4.115,4.115,0,0,1,1.441,3.246v5.613A5.748,5.748,0,0,0,119.555-.2V0Zm-2.473-2.578a2.2,2.2,0,0,0,1.225-.316,1.983,1.983,0,0,0,.7-.715V-5.637h-1.148q-2.062,0-2.062,1.852a1.131,1.131,0,0,0,.363.873A1.315,1.315,0,0,0,113.133-2.578ZM138.105-6.8h-6.633V0h-4.113V-17.062h11.414v3.176h-7.3v3.926h6.633Zm13.125,0H144.6V0h-4.113V-17.062H151.9v3.176h-7.3v3.926h6.633Zm13.125,0h-6.633V0h-4.113V-17.062h11.414v3.176h-7.3v3.926h6.633Z" transform="translate(718 2617.895)" fill="#12263f"/>
    </g>
    <path id="Trazado_197828" data-name="Trazado 197828" d="M7.91-4.641l3.4-12.422H15.9L10.16,0H5.66l-5.7-17.062H4.523ZM22.582.234a6.518,6.518,0,0,1-4.723-1.74,6.009,6.009,0,0,1-1.8-4.529v-.328A7.787,7.787,0,0,1,16.775-9.8a5.274,5.274,0,0,1,2.1-2.3,6.35,6.35,0,0,1,3.281-.814,5.489,5.489,0,0,1,4.219,1.658,6.516,6.516,0,0,1,1.547,4.623V-5.1H20.074A2.846,2.846,0,0,0,21-3.422a2.755,2.755,0,0,0,1.852.609,3.549,3.549,0,0,0,2.93-1.312l1.8,2.133A5.045,5.045,0,0,1,25.494-.369,7.069,7.069,0,0,1,22.582.234Zm-.445-10.1q-1.734,0-2.062,2.3h3.984v-.3a1.956,1.956,0,0,0-.48-1.471A1.912,1.912,0,0,0,22.137-9.867Zm11-2.812.129,1.488a4.3,4.3,0,0,1,3.621-1.723A3.618,3.618,0,0,1,39.85-11.73a5.635,5.635,0,0,1,1.014,3.563V0H36.9V-8a2.14,2.14,0,0,0-.387-1.412,1.789,1.789,0,0,0-1.406-.451,1.883,1.883,0,0,0-1.723.914V0H29.438V-12.68Zm14.508-3.152v3.152h2.086v2.742H47.648v5.8a1.481,1.481,0,0,0,.258,1,1.383,1.383,0,0,0,1.02.281,5.793,5.793,0,0,0,.984-.07V-.105a7.288,7.288,0,0,1-2.227.34,4.137,4.137,0,0,1-3.012-.961A3.939,3.939,0,0,1,43.7-3.645V-9.937H42.082V-12.68H43.7v-3.152ZM58.43,0a4.459,4.459,0,0,1-.375-1.137A3.672,3.672,0,0,1,55.008.234,4.5,4.5,0,0,1,51.961-.85a3.45,3.45,0,0,1-1.254-2.725A3.546,3.546,0,0,1,52.23-6.691a7.761,7.761,0,0,1,4.43-1.055h1.219v-.671q0-1.755-1.512-1.755a1.236,1.236,0,0,0-1.406,1.39H51.012a3.54,3.54,0,0,1,1.564-2.985,6.575,6.575,0,0,1,3.99-1.147A5.764,5.764,0,0,1,60.4-11.73,4.115,4.115,0,0,1,61.84-8.484v5.613A5.748,5.748,0,0,0,62.379-.2V0ZM55.957-2.578a2.2,2.2,0,0,0,1.225-.316,1.983,1.983,0,0,0,.7-.715V-5.637H56.73q-2.062,0-2.062,1.852a1.131,1.131,0,0,0,.363.873A1.315,1.315,0,0,0,55.957-2.578Zm12.316-10.1V.434A4.6,4.6,0,0,1,66.984,3.9a4.952,4.952,0,0,1-3.562,1.219,8.411,8.411,0,0,1-1.863-.2V1.934a7.556,7.556,0,0,0,1.113.105A1.445,1.445,0,0,0,64.313.41V-12.68Zm-4.254-3.27a1.763,1.763,0,0,1,.609-1.383,2.3,2.3,0,0,1,1.582-.539,2.3,2.3,0,0,1,1.582.539,1.763,1.763,0,0,1,.609,1.383,1.763,1.763,0,0,1-.609,1.383,2.3,2.3,0,0,1-1.582.539,2.3,2.3,0,0,1-1.582-.539A1.763,1.763,0,0,1,64.02-15.949ZM77.648,0a4.459,4.459,0,0,1-.375-1.137A3.672,3.672,0,0,1,74.227.234,4.5,4.5,0,0,1,71.18-.85a3.45,3.45,0,0,1-1.254-2.725,3.546,3.546,0,0,1,1.523-3.117,7.761,7.761,0,0,1,4.43-1.055H77.1v-.671q0-1.755-1.512-1.755a1.236,1.236,0,0,0-1.406,1.39H70.23a3.54,3.54,0,0,1,1.564-2.985,6.575,6.575,0,0,1,3.99-1.147,5.764,5.764,0,0,1,3.832,1.184,4.115,4.115,0,0,1,1.441,3.246v5.613A5.748,5.748,0,0,0,81.6-.2V0ZM75.176-2.578A2.2,2.2,0,0,0,76.4-2.895a1.983,1.983,0,0,0,.7-.715V-5.637H75.949q-2.062,0-2.062,1.852a1.131,1.131,0,0,0,.363.873A1.315,1.315,0,0,0,75.176-2.578Zm14.707-.984a.912.912,0,0,0-.527-.809,8.021,8.021,0,0,0-2-.633,9.138,9.138,0,0,1-2.437-.861A4.083,4.083,0,0,1,83.449-7.16a3.092,3.092,0,0,1-.5-1.746,3.5,3.5,0,0,1,1.441-2.877,5.938,5.938,0,0,1,3.773-1.131,6.579,6.579,0,0,1,4.031,1.137,3.555,3.555,0,0,1,1.523,2.988H89.754q0-1.523-1.605-1.523a1.591,1.591,0,0,0-1.043.346,1.07,1.07,0,0,0-.422.861.982.982,0,0,0,.516.855,4.872,4.872,0,0,0,1.646.539,14.228,14.228,0,0,1,1.986.5q2.859.984,2.859,3.527A3.321,3.321,0,0,1,92.15-.855,6.758,6.758,0,0,1,88.16.234a6.9,6.9,0,0,1-2.906-.586,4.86,4.86,0,0,1-1.992-1.594,3.609,3.609,0,0,1-.715-2.121h3.691a1.526,1.526,0,0,0,.586,1.283,2.41,2.41,0,0,0,1.441.4,1.9,1.9,0,0,0,1.213-.328A1.05,1.05,0,0,0,89.883-3.562Z" transform="translate(355 2560.895)" fill="#12263f"/>
    <path id="Trazado_197826" data-name="Trazado 197826" d="M1.289,0V-17.062h5.5a8.085,8.085,0,0,1,4.066,1.025,7.208,7.208,0,0,1,2.818,2.895A8.739,8.739,0,0,1,14.7-8.953v.785a8.79,8.79,0,0,1-.99,4.2,7.239,7.239,0,0,1-2.789,2.906A7.907,7.907,0,0,1,6.9,0ZM5.4-13.887V-3.164h1.43a3.2,3.2,0,0,0,2.719-1.26A6.173,6.173,0,0,0,10.5-8.168v-.738a6.123,6.123,0,0,0-.949-3.727,3.256,3.256,0,0,0-2.766-1.254ZM22.758.234a6.518,6.518,0,0,1-4.723-1.74,6.009,6.009,0,0,1-1.8-4.529v-.328A7.787,7.787,0,0,1,16.951-9.8a5.274,5.274,0,0,1,2.1-2.3,6.35,6.35,0,0,1,3.281-.814,5.489,5.489,0,0,1,4.219,1.658A6.516,6.516,0,0,1,28.1-6.633V-5.1H20.25a2.846,2.846,0,0,0,.926,1.676,2.755,2.755,0,0,0,1.852.609,3.549,3.549,0,0,0,2.93-1.312l1.8,2.133A5.045,5.045,0,0,1,25.67-.369,7.069,7.069,0,0,1,22.758.234Zm-.445-10.1q-1.734,0-2.062,2.3h3.984v-.3a1.956,1.956,0,0,0-.48-1.471A1.912,1.912,0,0,0,22.313-9.867Zm14.016,6.3a.912.912,0,0,0-.527-.809A8.021,8.021,0,0,0,33.8-5a9.138,9.138,0,0,1-2.437-.861A4.083,4.083,0,0,1,29.895-7.16a3.092,3.092,0,0,1-.5-1.746,3.5,3.5,0,0,1,1.441-2.877,5.938,5.938,0,0,1,3.773-1.131,6.579,6.579,0,0,1,4.031,1.137A3.555,3.555,0,0,1,40.16-8.789H36.2q0-1.523-1.605-1.523a1.591,1.591,0,0,0-1.043.346,1.07,1.07,0,0,0-.422.861.982.982,0,0,0,.516.855,4.872,4.872,0,0,0,1.646.539,14.228,14.228,0,0,1,1.986.5q2.859.984,2.859,3.527A3.321,3.321,0,0,1,38.6-.855a6.758,6.758,0,0,1-3.99,1.09A6.9,6.9,0,0,1,31.7-.352a4.86,4.86,0,0,1-1.992-1.594,3.609,3.609,0,0,1-.715-2.121h3.691a1.526,1.526,0,0,0,.586,1.283,2.41,2.41,0,0,0,1.441.4,1.9,1.9,0,0,0,1.213-.328A1.05,1.05,0,0,0,36.328-3.562ZM47.039-4.7l2-7.98H53.2L49.066,0H45.035L40.9-12.68H45.07ZM60.363.234a6.518,6.518,0,0,1-4.723-1.74,6.009,6.009,0,0,1-1.8-4.529v-.328A7.787,7.787,0,0,1,54.557-9.8a5.274,5.274,0,0,1,2.1-2.3,6.35,6.35,0,0,1,3.281-.814,5.489,5.489,0,0,1,4.219,1.658,6.516,6.516,0,0,1,1.547,4.623V-5.1H57.855a2.846,2.846,0,0,0,.926,1.676,2.755,2.755,0,0,0,1.852.609,3.549,3.549,0,0,0,2.93-1.312l1.8,2.133A5.045,5.045,0,0,1,63.275-.369,7.069,7.069,0,0,1,60.363.234Zm-.445-10.1q-1.734,0-2.062,2.3H61.84v-.3a1.956,1.956,0,0,0-.48-1.471A1.912,1.912,0,0,0,59.918-9.867Zm11-2.812.129,1.488a4.3,4.3,0,0,1,3.621-1.723,3.618,3.618,0,0,1,2.959,1.184,5.635,5.635,0,0,1,1.014,3.563V0H74.684V-8A2.14,2.14,0,0,0,74.3-9.416a1.789,1.789,0,0,0-1.406-.451,1.883,1.883,0,0,0-1.723.914V0H67.219V-12.68ZM85.43-15.832v3.152h2.086v2.742H85.43v5.8a1.481,1.481,0,0,0,.258,1,1.383,1.383,0,0,0,1.02.281,5.793,5.793,0,0,0,.984-.07V-.105a7.288,7.288,0,0,1-2.227.34,4.137,4.137,0,0,1-3.012-.961,3.939,3.939,0,0,1-.973-2.918V-9.937H79.863V-12.68H81.48v-3.152ZM96.211,0a4.459,4.459,0,0,1-.375-1.137A3.672,3.672,0,0,1,92.789.234,4.5,4.5,0,0,1,89.742-.85a3.45,3.45,0,0,1-1.254-2.725,3.546,3.546,0,0,1,1.523-3.117,7.761,7.761,0,0,1,4.43-1.055H95.66v-.671q0-1.755-1.512-1.755a1.236,1.236,0,0,0-1.406,1.39H88.793a3.54,3.54,0,0,1,1.564-2.985,6.575,6.575,0,0,1,3.99-1.147A5.764,5.764,0,0,1,98.18-11.73a4.115,4.115,0,0,1,1.441,3.246v5.613A5.748,5.748,0,0,0,100.16-.2V0ZM93.738-2.578a2.2,2.2,0,0,0,1.225-.316,1.983,1.983,0,0,0,.7-.715V-5.637H94.512q-2.062,0-2.062,1.852a1.131,1.131,0,0,0,.363.873A1.315,1.315,0,0,0,93.738-2.578Zm12.316-10.1V.434A4.6,4.6,0,0,1,104.766,3.9,4.952,4.952,0,0,1,101.2,5.121a8.411,8.411,0,0,1-1.863-.2V1.934a7.556,7.556,0,0,0,1.113.105A1.445,1.445,0,0,0,102.094.41V-12.68Zm-4.254-3.27a1.763,1.763,0,0,1,.609-1.383,2.3,2.3,0,0,1,1.582-.539,2.3,2.3,0,0,1,1.582.539,1.763,1.763,0,0,1,.609,1.383,1.763,1.763,0,0,1-.609,1.383,2.3,2.3,0,0,1-1.582.539,2.3,2.3,0,0,1-1.582-.539A1.763,1.763,0,0,1,101.8-15.949ZM115.43,0a4.459,4.459,0,0,1-.375-1.137A3.672,3.672,0,0,1,112.008.234,4.5,4.5,0,0,1,108.961-.85a3.45,3.45,0,0,1-1.254-2.725,3.546,3.546,0,0,1,1.523-3.117,7.761,7.761,0,0,1,4.43-1.055h1.219v-.671q0-1.755-1.512-1.755a1.236,1.236,0,0,0-1.406,1.39h-3.949a3.54,3.54,0,0,1,1.564-2.985,6.575,6.575,0,0,1,3.99-1.147A5.764,5.764,0,0,1,117.4-11.73a4.115,4.115,0,0,1,1.441,3.246v5.613A5.748,5.748,0,0,0,119.379-.2V0Zm-2.473-2.578a2.2,2.2,0,0,0,1.225-.316,1.983,1.983,0,0,0,.7-.715V-5.637H113.73q-2.062,0-2.062,1.852a1.131,1.131,0,0,0,.363.873A1.315,1.315,0,0,0,112.957-2.578Zm14.707-.984a.912.912,0,0,0-.527-.809,8.021,8.021,0,0,0-2-.633,9.138,9.138,0,0,1-2.437-.861A4.083,4.083,0,0,1,121.23-7.16a3.092,3.092,0,0,1-.5-1.746,3.5,3.5,0,0,1,1.441-2.877,5.938,5.938,0,0,1,3.773-1.131,6.579,6.579,0,0,1,4.031,1.137A3.555,3.555,0,0,1,131.5-8.789h-3.961q0-1.523-1.605-1.523a1.591,1.591,0,0,0-1.043.346,1.07,1.07,0,0,0-.422.861.982.982,0,0,0,.516.855,4.872,4.872,0,0,0,1.646.539,14.228,14.228,0,0,1,1.986.5q2.859.984,2.859,3.527a3.321,3.321,0,0,1-1.541,2.824,6.758,6.758,0,0,1-3.99,1.09,6.9,6.9,0,0,1-2.906-.586,4.86,4.86,0,0,1-1.992-1.594,3.609,3.609,0,0,1-.715-2.121h3.691a1.526,1.526,0,0,0,.586,1.283,2.41,2.41,0,0,0,1.441.4,1.9,1.9,0,0,0,1.213-.328A1.05,1.05,0,0,0,127.664-3.562Z" transform="translate(1132 2560.895)" fill="#12263f"/>
  </g>
</svg>
