<svg xmlns="http://www.w3.org/2000/svg" width="529.692" height="270.716" viewBox="0 0 529.692 270.716">
  <g id="Grupo_134407" data-name="Grupo 134407" transform="translate(16559.285 11661.819)">
    <g id="Grupo_134108" data-name="Grupo 134108" transform="translate(-16148.988 -11445.213)">
      <g id="Grupo_134106" data-name="Grupo 134106">
        <path id="Trazado_197684" data-name="Trazado 197684" d="M1847.276,1263.449h-14.628a.509.509,0,0,1-.509-.509v-14.628a.508.508,0,0,1,.509-.509h14.628a.509.509,0,0,1,.509.509v14.628A.509.509,0,0,1,1847.276,1263.449Zm-14.119-1.018h13.61v-13.611h-13.61Z" transform="translate(-1832.139 -1247.803)" fill="#a7b2d9"/>
      </g>
      <g id="Grupo_134107" data-name="Grupo 134107" transform="translate(2.251 2.251)">
        <path id="Trazado_197685" data-name="Trazado 197685" d="M1845.475,1266.776a.509.509,0,0,1-.371-.16l-4-4.251a.509.509,0,0,1,.741-.7l3.587,3.812,6.512-8.645a.509.509,0,1,1,.813.612l-6.876,9.127a.506.506,0,0,1-.379.2Z" transform="translate(-1840.965 -1256.633)" fill="#a7b2d9"/>
      </g>
    </g>
    <g id="Grupo_134314" data-name="Grupo 134314" transform="translate(-16464.525 -11656.411)">
      <path id="Trazado_197800" data-name="Trazado 197800" d="M595.292,448.346a.585.585,0,0,1-.584-.584V424.418a.583.583,0,0,1,.476-.574l22.728-4.278a.584.584,0,0,1,.693.574v23.179a.582.582,0,0,1-.473.573L595.4,448.334A.529.529,0,0,1,595.292,448.346Zm.584-23.443v22.149l21.559-4.215V420.844Z" transform="translate(-594.708 -419.556)" fill="#cdd6ec"/>
    </g>
    <g id="Grupo_134315" data-name="Grupo 134315" transform="translate(-16478.111 -11661.819)">
      <path id="Trazado_197801" data-name="Trazado 197801" d="M555.6,409.2a.581.581,0,0,1-.279-.071l-13.585-7.367a.584.584,0,0,1,.212-1.094l20.282-2.319a.6.6,0,0,1,.253.027l16.031,5.408a.584.584,0,0,1-.374,1.107l-15.907-5.366-18.311,2.093L555.88,408.1a.584.584,0,0,1-.278,1.1Z" transform="translate(-541.432 -398.346)" fill="#cdd6ec"/>
    </g>
    <g id="Grupo_134316" data-name="Grupo 134316" transform="translate(-16478.111 -11659.501)">
      <path id="Trazado_197802" data-name="Trazado 197802" d="M555.6,439.319a.589.589,0,0,1-.283-.073l-13.585-7.533a.584.584,0,0,1-.3-.511V408.023a.584.584,0,0,1,1.168,0v22.834l13.283,7.367a.584.584,0,0,1-.283,1.1Z" transform="translate(-541.433 -407.439)" fill="#cdd6ec"/>
    </g>
    <g id="Grupo_134109" data-name="Grupo 134109" transform="translate(-16546.852 -11509.444)">
      <path id="Trazado_197686" data-name="Trazado 197686" d="M287,1011.554H272.371a.509.509,0,0,1-.509-.509V996.417a.509.509,0,0,1,.509-.509H287a.508.508,0,0,1,.509.509v14.628A.509.509,0,0,1,287,1011.554Zm-14.12-1.018h13.611V996.925H272.88Z" transform="translate(-271.862 -995.908)" fill="#a7b2d9"/>
    </g>
    <g id="Grupo_134110" data-name="Grupo 134110" transform="translate(-16544.602 -11507.193)">
      <path id="Trazado_197687" data-name="Trazado 197687" d="M285.2,1014.881a.509.509,0,0,1-.37-.16l-4-4.251a.509.509,0,0,1,.742-.7l3.587,3.812,6.512-8.645a.509.509,0,1,1,.813.612l-6.876,9.127a.506.506,0,0,1-.379.2Z" transform="translate(-280.688 -1004.737)" fill="#a7b2d9"/>
    </g>
    <path id="Trazado_197688" data-name="Trazado 197688" d="M238.123,1407.195a.562.562,0,0,1-.247-.06l-5.291-2.784-5.292,2.784a.533.533,0,0,1-.555-.041.522.522,0,0,1-.21-.514l1.008-5.895-4.279-4.174a.524.524,0,0,1,.292-.9l5.917-.86,2.646-5.362a.548.548,0,0,1,.946,0l2.646,5.362,5.917.86a.524.524,0,0,1,.292.9l-4.279,4.174,1.008,5.895a.522.522,0,0,1-.21.514A.508.508,0,0,1,238.123,1407.195Zm-5.538-3.964a.56.56,0,0,1,.247.06l4.592,2.415-.876-5.115a.516.516,0,0,1,.152-.465l3.716-3.623-5.135-.747a.528.528,0,0,1-.4-.288l-2.3-4.654-2.3,4.654a.528.528,0,0,1-.4.288l-5.135.747,3.716,3.623a.515.515,0,0,1,.152.465l-.876,5.115,4.592-2.415A.56.56,0,0,1,232.585,1403.23Z" transform="translate(-16782.381 -12798.298)" fill="#a7b2d9"/>
    <g id="Grupo_134074" data-name="Grupo 134074" transform="translate(-16056.197 -11436.686)">
      <path id="Trazado_197666" data-name="Trazado 197666" d="M2215.9,1313.2h-13.147v-1a14.149,14.149,0,0,0-3.606-9.142,13.263,13.263,0,0,1,7.3-21.509,14.177,14.177,0,0,1,2.878-.3,13.32,13.32,0,0,1,13.3,13.3,13.138,13.138,0,0,1-3.493,8.92,12.783,12.783,0,0,0-3.238,8.717Zm-12.076-1.072h11a13.821,13.821,0,0,1,3.522-9.385,12.078,12.078,0,0,0,3.208-8.2,12.247,12.247,0,0,0-12.233-12.233,12.855,12.855,0,0,0-2.656.281,12.183,12.183,0,0,0-9.351,9.556,12.023,12.023,0,0,0,2.644,10.207A15.222,15.222,0,0,1,2203.829,1312.128Z" transform="translate(-2196.031 -1281.243)" fill="#cdd6ec"/>
    </g>
    <g id="Grupo_134075" data-name="Grupo 134075" transform="translate(-16052.144 -11405.801)">
      <path id="Trazado_197667" data-name="Trazado 197667" d="M2228.819,1407.987h-14.793a2.1,2.1,0,0,1-2.1-2.1v-1.429a2.1,2.1,0,0,1,2.1-2.1h14.793a2.1,2.1,0,0,1,2.1,2.1v1.429A2.1,2.1,0,0,1,2228.819,1407.987Zm-14.793-4.552a1.027,1.027,0,0,0-1.025,1.025v1.429a1.027,1.027,0,0,0,1.025,1.026h14.793a1.027,1.027,0,0,0,1.025-1.026v-1.429a1.027,1.027,0,0,0-1.025-1.025Z" transform="translate(-2211.929 -1402.363)" fill="#cdd6ec"/>
    </g>
    <g id="Grupo_134076" data-name="Grupo 134076" transform="translate(-16049.471 -11401.248)">
      <path id="Trazado_197668" data-name="Trazado 197668" d="M2229.952,1427.128h-1.738a5.81,5.81,0,0,1-5.8-5.8v-1.109h13.344v1.109A5.81,5.81,0,0,1,2229.952,1427.128Zm-6.469-5.841v.038a4.736,4.736,0,0,0,4.731,4.732h1.738a4.737,4.737,0,0,0,4.732-4.732v-.038Z" transform="translate(-2222.411 -1420.215)" fill="#cdd6ec"/>
    </g>
    <g id="Grupo_134077" data-name="Grupo 134077" transform="translate(-16040.066 -11419.561)">
      <path id="Trazado_197669" data-name="Trazado 197669" d="M2259.825,1363.033h-.027a.541.541,0,0,1-.506-.578l1.088-13.562a.544.544,0,0,1,.575-.492.536.536,0,0,1,.492.576l-1.088,13.562A.537.537,0,0,1,2259.825,1363.033Z" transform="translate(-2259.29 -1348.401)" fill="#cdd6ec"/>
    </g>
    <g id="Grupo_134078" data-name="Grupo 134078" transform="translate(-16047.689 -11419.561)">
      <path id="Trazado_197670" data-name="Trazado 197670" d="M2231.021,1363.034a.537.537,0,0,1-.534-.494l-1.088-13.562a.536.536,0,0,1,.492-.576.571.571,0,0,1,.575.492l1.088,13.562a.536.536,0,0,1-.492.575Z" transform="translate(-2229.397 -1348.401)" fill="#cdd6ec"/>
    </g>
    <g id="Grupo_134079" data-name="Grupo 134079" transform="translate(-16046.155 -11418.532)">
      <path id="Trazado_197671" data-name="Trazado 197671" d="M2238.175,1355.51a.534.534,0,0,1-.358-.138l-2.227-2.005a.535.535,0,0,1,.716-.8l1.842,1.658,1.5-1.555a.585.585,0,0,1,.418-.166.538.538,0,0,1,.4.214l1.338,1.781a.537.537,0,1,1-.858.645l-.958-1.279-1.421,1.476A.528.528,0,0,1,2238.175,1355.51Z" transform="translate(-2235.412 -1352.435)" fill="#cdd6ec"/>
    </g>
  </g>
</svg>
