<svg xmlns="http://www.w3.org/2000/svg" width="46.039" height="64.435" viewBox="0 0 46.039 64.435">
  <g id="Grupo_134571" data-name="Grupo 134571" transform="translate(14747.631 11570.05)">
    <g id="Grupo_134392" data-name="Grupo 134392" transform="translate(-14747.631 -11570.05)">
      <g id="Grupo_134304" data-name="Grupo 134304" transform="translate(0.378 0.378)">
        <path id="Trazado_197795" data-name="Trazado 197795" d="M1980.126,897.28l45.283,32.41-21.707,5.044-14.775,17.019Z" transform="translate(-1980.126 -897.28)" fill="#fff"/>
      </g>
      <g id="Grupo_134305" data-name="Grupo 134305" transform="translate(17.78 32.316)">
        <rect id="Rectángulo_295043" data-name="Rectángulo 295043" width="7.722" height="32.337" transform="translate(0 3.946) rotate(-30.731)" fill="#fff"/>
      </g>
      <g id="Grupo_134306" data-name="Grupo 134306">
        <path id="Trazado_197796" data-name="Trazado 197796" d="M2012.947,960.233a.377.377,0,0,1-.32-.177l-13.857-22.1-10.657,12.935a.383.383,0,0,1-.391.124.377.377,0,0,1-.274-.3l-8.8-54.473a.378.378,0,0,1,.594-.366l19.586,14.169a.377.377,0,0,1-.443.612l-18.847-13.635,8.521,52.749,10.459-12.7a.351.351,0,0,1,.317-.136.379.379,0,0,1,.295.176l13.94,22.233,3.661-2.186a.378.378,0,0,1,.386.649l-3.979,2.375A.373.373,0,0,1,2012.947,960.233Z" transform="translate(-1978.643 -895.798)" fill="#251d1b"/>
      </g>
      <g id="Grupo_134307" data-name="Grupo 134307" transform="translate(26.996 19.934)">
        <path id="Trazado_197797" data-name="Trazado 197797" d="M2094.973,1008.276a.378.378,0,0,1-.323-.182l-10.084-16.673a.378.378,0,0,1,.234-.563l17.49-4.209-16.594-12a.378.378,0,0,1,.442-.612l17.259,12.477a.378.378,0,0,1-.133.673l-17.787,4.28,9.818,16.231a.378.378,0,0,1-.323.573Z" transform="translate(-2084.511 -973.971)" fill="#251d1b"/>
      </g>
    </g>
  </g>
</svg>
