<svg xmlns="http://www.w3.org/2000/svg" width="449" height="298.468" viewBox="0 0 449 298.468">
  <g id="Grupo_134519" data-name="Grupo 134519" transform="translate(-6933 7678.638)">
    <g id="Grupo_134490" data-name="Grupo 134490" transform="translate(-14.745 -1065.638)">
      <g id="Grupo_134369" data-name="Grupo 134369" transform="translate(6073.745 -7901)">
        <path id="_360_F_39969628_7VhMJmQWanuhhw6z9uxkD9V6FRTuA1M7" data-name="360_F_39969628_7VhMJmQWanuhhw6z9uxkD9V6FRTuA1M7" d="M50,0H449a0,0,0,0,1,0,0V212a50,50,0,0,1-50,50H0a0,0,0,0,1,0,0V50A50,50,0,0,1,50,0Z" transform="translate(874 1300)" fill="none"/>
        <g id="Grupo_132611" data-name="Grupo 132611" transform="translate(863.16 1288)">
          <path id="Unión_1" data-name="Unión 1" d="M8.577,22.568V13.626H0V8.809H8.577V0h5.1V8.809h9.209v4.817H13.674v8.942Z" transform="translate(407.67 236.782)" fill="#ff9500"/>
          <g id="Grupo_78297" data-name="Grupo 78297" transform="translate(20 219.465)" opacity="0.95">
            <path id="Trazado_99257" data-name="Trazado 99257" d="M416.726,103.98a1.257,1.257,0,1,1-1.257-1.2A1.23,1.23,0,0,1,416.726,103.98Z" transform="translate(-414.214 -102.779)" fill="#ff9500"/>
            <path id="Trazado_99258" data-name="Trazado 99258" d="M425.172,103.98a1.257,1.257,0,1,1-1.255-1.2A1.229,1.229,0,0,1,425.172,103.98Z" transform="translate(-411.356 -102.779)" fill="#ff9500"/>
            <ellipse id="Elipse_3975" data-name="Elipse 3975" cx="1.256" cy="1.201" rx="1.256" ry="1.201" transform="translate(0 9.611)" fill="#ff9500"/>
            <path id="Trazado_99268" data-name="Trazado 99268" d="M425.172,111.488a1.257,1.257,0,1,1-1.255-1.2A1.23,1.23,0,0,1,425.172,111.488Z" transform="translate(-411.356 -100.676)" fill="#ff9500"/>
            <path id="Trazado_99274" data-name="Trazado 99274" d="M416.726,119a1.257,1.257,0,1,1-1.257-1.2A1.23,1.23,0,0,1,416.726,119Z" transform="translate(-414.214 -98.574)" fill="#ff9500"/>
            <path id="Trazado_99275" data-name="Trazado 99275" d="M425.172,119a1.257,1.257,0,1,1-1.255-1.2A1.23,1.23,0,0,1,425.172,119Z" transform="translate(-411.356 -98.574)" fill="#ff9500"/>
            <ellipse id="Elipse_3980" data-name="Elipse 3980" cx="1.256" cy="1.201" rx="1.256" ry="1.201" transform="translate(0 28.83)" fill="#ff9500"/>
            <path id="Trazado_99285" data-name="Trazado 99285" d="M425.172,126.5a1.257,1.257,0,1,1-1.255-1.2A1.229,1.229,0,0,1,425.172,126.5Z" transform="translate(-411.356 -96.473)" fill="#ff9500"/>
            <ellipse id="Elipse_3985" data-name="Elipse 3985" cx="1.256" cy="1.201" rx="1.256" ry="1.201" transform="translate(0 38.44)" fill="#ff9500"/>
            <path id="Trazado_99291" data-name="Trazado 99291" d="M425.172,134.012a1.257,1.257,0,1,1-1.255-1.2A1.229,1.229,0,0,1,425.172,134.012Z" transform="translate(-411.356 -94.37)" fill="#ff9500"/>
          </g>
          <circle id="Elipse_4859" data-name="Elipse 4859" cx="28.391" cy="28.391" r="28.391" transform="translate(33.028 241.686)" fill="#0ca4ca" opacity="0.5"/>
          <ellipse id="Elipse_4860" data-name="Elipse 4860" cx="16.015" cy="15.651" rx="16.015" ry="15.651" transform="translate(409.81 0)" fill="#ff9500" opacity="0.5"/>
        </g>
        <g id="Grupo_134371" data-name="Grupo 134371" transform="translate(-5943.064 10813.644)">
          <g id="Shapes" transform="translate(6864.747 -9561.429)">
            <g id="Grupo_133607" data-name="Grupo 133607" transform="translate(47.747 65.436)">
              <g id="Grupo_133570" data-name="Grupo 133570">
                <path id="Trazado_197494" data-name="Trazado 197494" d="M193.6,68.948a21.715,21.715,0,0,0-18.232-2.555,21.723,21.723,0,0,0-23.977,16.044,21.676,21.676,0,0,0-3.247,8.477,74.372,74.372,0,0,0-31.632-4.894,21.86,21.86,0,0,0-17.07,3.345A74.239,74.239,0,0,0,72.422,215.4L61.353,258.448a23.126,23.126,0,0,0,14.911,27.559c1.48.506,2.978.968,4.484,1.419a142.809,142.809,0,0,0,41.128,6.137,123.914,123.914,0,0,0,66.945-19.024c36.113,9.773,107.412,5.355,107.923-32.607.332-2.577.3-138.533.3-138.8C297.048,65.856,229.88,61.025,193.6,68.948Z" transform="translate(-47.747 -65.436)" fill="#fff"/>
              </g>
              <g id="Grupo_133606" data-name="Grupo 133606" transform="translate(21.115 21.188)">
                <g id="Grupo_133593" data-name="Grupo 133593" transform="translate(0.776 0.149)">
                  <g id="Grupo_133572" data-name="Grupo 133572" transform="translate(0 20.198)">
                    <g id="Grupo_133571" data-name="Grupo 133571">
                      <path id="Trazado_197495" data-name="Trazado 197495" d="M187.064,211.582c-9.618,18.714-37.48,32.632-63.509,26.3-44.1-10.695-53.1-70.012-16.36-94.178,20.582-13.677,45.633-10.926,64.262,3.977,10,8.044,15.486,18.378,18.559,30.7C192.758,189.408,192.245,201.49,187.064,211.582Z" transform="translate(-84.319 -134.828)" fill="#ff9b0d"/>
                    </g>
                  </g>
                  <g id="Grupo_133574" data-name="Grupo 133574" transform="translate(5.945 25.7)">
                    <g id="Grupo_133573" data-name="Grupo 133573">
                      <path id="Trazado_197496" data-name="Trazado 197496" d="M191.051,215.272c-9.618,18.714-37.48,32.632-63.509,26.3-14.161-3.434-26.9-13.015-33.291-26.09a57.591,57.591,0,0,0,13.829-3.525c21.493-8.382,35.611-27.272,46.154-47.783,3.405-6.6,6.478-13.346,9.491-20.155a60.716,60.716,0,0,1,11.719,7.351c10,8.044,15.486,18.378,18.559,30.7C196.745,193.1,196.232,205.18,191.051,215.272Z" transform="translate(-94.251 -144.021)" fill="#cf7e0d"/>
                    </g>
                  </g>
                  <g id="Grupo_133583" data-name="Grupo 133583" transform="translate(106.126)">
                    <g id="Grupo_133580" data-name="Grupo 133580" transform="translate(0 12.415)">
                      <g id="Grupo_133575" data-name="Grupo 133575" transform="translate(0.233 125.962)">
                        <path id="Trazado_197497" data-name="Trazado 197497" d="M361.675,348.628c0,9.038-22.324,16.36-49.831,16.36-27.536,0-49.83-7.322-49.83-16.36a4.221,4.221,0,0,1,.12-1.054c1.627-8.556,23.259-15.305,49.711-15.305,26.422,0,48.084,6.749,49.71,15.305A4.194,4.194,0,0,1,361.675,348.628Z" transform="translate(-262.014 -332.269)" fill="#8366d8"/>
                      </g>
                      <g id="Grupo_133577" data-name="Grupo 133577" transform="translate(0.015)">
                        <g id="Grupo_133576" data-name="Grupo 133576">
                          <path id="Trazado_197498" data-name="Trazado 197498" d="M361.74,127.73c-.127,142.521.3,133.558-.332,135.362a5.867,5.867,0,0,1-5.573,3.977H267.561a5.9,5.9,0,0,1-5.9-5.875c.032-141.812-.081-133.6.09-134.459a5.893,5.893,0,0,1,5.814-4.91h88.274A5.927,5.927,0,0,1,361.74,127.73Z" transform="translate(-261.649 -121.825)" fill="#c6ced3"/>
                        </g>
                      </g>
                      <g id="Grupo_133579" data-name="Grupo 133579" transform="translate(0 10.544)">
                        <g id="Grupo_133578" data-name="Grupo 133578">
                          <path id="Trazado_197499" data-name="Trazado 197499" d="M361.4,270.164a4.194,4.194,0,0,1,.12,1.054c0,9.038-22.324,16.36-49.831,16.36-27.536,0-49.83-7.322-49.83-16.36a4.222,4.222,0,0,1,.12-1.054c-.619-1.773-.209-.461-.331-32.6a203.959,203.959,0,0,0,21.15-13.828c31.164-23.108,55.431-53.659,78.934-84.3C361.6,276.585,362.03,268.36,361.4,270.164Z" transform="translate(-261.624 -139.441)" fill="#5d7581"/>
                        </g>
                      </g>
                    </g>
                    <g id="Grupo_133582" data-name="Grupo 133582" transform="translate(0.028)">
                      <g id="Grupo_133581" data-name="Grupo 133581">
                        <ellipse id="Elipse_5343" data-name="Elipse 5343" cx="50.083" cy="16.363" rx="50.083" ry="16.363" fill="#e7eaec"/>
                      </g>
                    </g>
                  </g>
                  <g id="Grupo_133589" data-name="Grupo 133589" transform="translate(12.084 56.231)">
                    <g id="Grupo_133585" data-name="Grupo 133585">
                      <g id="Grupo_133584" data-name="Grupo 133584">
                        <path id="Trazado_197500" data-name="Trazado 197500" d="M233.389,278.267c-32.442,42.849-80.966,55.7-127.528,39.805a1.991,1.991,0,0,1-1.292-2.371l30.656-119.192a1.983,1.983,0,0,1,3.226-.989c34.841,30.206,58.542,51.625,94.576,79.991A1.991,1.991,0,0,1,233.389,278.267Z" transform="translate(-104.507 -195.028)" fill="#18a9cd"/>
                      </g>
                    </g>
                    <g id="Grupo_133587" data-name="Grupo 133587" transform="translate(5.098 47.27)">
                      <g id="Grupo_133586" data-name="Grupo 133586">
                        <path id="Trazado_197501" data-name="Trazado 197501" d="M236.808,309.971C206.3,350.265,160.722,365.3,113.025,350.96c14.125-2.45,27.538-9.068,38.831-18.012,19.625-15.533,32.743-37,43.992-58.946,12.348,10.474,25.245,21.127,40.6,33.212A1.991,1.991,0,0,1,236.808,309.971Z" transform="translate(-113.025 -274.002)" fill="#1689a7"/>
                      </g>
                    </g>
                    <g id="Grupo_133588" data-name="Grupo 133588" transform="translate(30.55 0.481)">
                      <path id="Trazado_197502" data-name="Trazado 197502" d="M210.615,313.6l-2.1-3.989a.65.65,0,0,1,1.152-.6l2.1,3.984A.649.649,0,0,1,210.615,313.6Zm-5.7-10.9q-1.8-3.462-3.566-6.934a.649.649,0,0,1,1.156-.588q1.773,3.466,3.561,6.923A.649.649,0,0,1,204.917,302.7Zm-7.09-13.885q-1.753-3.481-3.484-6.971a.649.649,0,0,1,1.161-.578q1.731,3.488,3.484,6.967A.65.65,0,0,1,197.827,288.816ZM190.9,274.851q-1.712-3.5-3.409-7.01a.65.65,0,0,1,1.172-.563q1.689,3.5,3.4,7A.649.649,0,0,1,190.9,274.851Zm-6.774-14.034q-1.674-3.519-3.33-7.047a.65.65,0,0,1,1.177-.553q1.655,3.527,3.324,7.043a.649.649,0,0,1-1.171.558ZM177.506,246.7q-1.639-3.537-3.251-7.085a.649.649,0,0,1,1.182-.538q1.613,3.542,3.246,7.076a.649.649,0,1,1-1.177.548Zm-6.459-14.189q-1.594-3.556-3.168-7.123a.648.648,0,0,1,1.187-.523q1.575,3.561,3.168,7.114a.65.65,0,0,1-1.187.532Zm-6.3-14.257q-1.556-3.576-3.089-7.157a.649.649,0,0,1,1.192-.512q1.534,3.58,3.089,7.152a.65.65,0,0,1-1.192.518Zm-6.138-14.331q-1.514-3.59-3.007-7.192a.648.648,0,0,1,1.2-.5q1.495,3.595,3.008,7.182a.65.65,0,0,1-1.2.507Z" transform="translate(-155.548 -195.832)" fill="#3c1347"/>
                    </g>
                  </g>
                  <g id="Grupo_133590" data-name="Grupo 133590" transform="translate(185.541 28.727)">
                    <path id="Trazado_197503" data-name="Trazado 197503" d="M395.078,282.816a.649.649,0,0,1-.649-.649l-.007-7.791a.649.649,0,0,1,1.3,0l.008,7.791A.649.649,0,0,1,395.078,282.816Zm-.015-15.582a.649.649,0,0,1-.649-.649l-.008-7.791a.649.649,0,1,1,1.3,0l.007,7.791A.649.649,0,0,1,395.063,267.234Zm-.016-15.581A.649.649,0,0,1,394.4,251l-.008-7.79a.649.649,0,1,1,1.3,0L395.7,251A.649.649,0,0,1,395.047,251.653Zm-.015-15.581a.649.649,0,0,1-.649-.649l-.008-7.79a.649.649,0,1,1,1.3,0l.007,7.79A.649.649,0,0,1,395.032,236.072Zm-.016-15.581a.649.649,0,0,1-.649-.649l-.008-7.791a.649.649,0,0,1,1.3,0l.008,7.791A.649.649,0,0,1,395.017,220.491ZM395,204.91a.649.649,0,0,1-.649-.649l-.007-7.791a.649.649,0,1,1,1.3,0l.008,7.791A.649.649,0,0,1,395,204.91Zm-.013-15.581a.649.649,0,0,1-.649-.649l-.008-7.79a.649.649,0,0,1,1.3,0l.007,7.79A.649.649,0,0,1,394.989,189.329Zm-.016-15.581a.649.649,0,0,1-.649-.649l-.008-7.791a.649.649,0,0,1,1.3,0l.008,7.791A.649.649,0,0,1,394.974,173.748Zm-.015-15.582a.649.649,0,0,1-.649-.649l-.007-7.791a.649.649,0,0,1,1.3,0l.008,7.791A.649.649,0,0,1,394.959,158.166Z" transform="translate(-394.302 -149.078)" fill="#3c1347"/>
                  </g>
                  <g id="Grupo_133591" data-name="Grupo 133591" transform="translate(0.741 40.682)">
                    <path id="Trazado_197504" data-name="Trazado 197504" d="M190.177,191.97a.649.649,0,0,1-.523-.264,45.746,45.746,0,0,0-5.064-5.764.644.644,0,0,1-.018-.916.652.652,0,0,1,.916-.02,46.877,46.877,0,0,1,5.212,5.929.649.649,0,0,1-.523,1.035ZM85.849,187.585c1.567-1.057,3.076-2.046,4.542-2.977a.649.649,0,0,1,.695,1.1c-1.456.925-2.954,1.909-4.512,2.957A.649.649,0,0,1,85.849,187.585Zm11.247-7c2.415-1.352,4.7-2.51,6.992-3.543a.648.648,0,0,1,.533,1.182c-2.255,1.017-4.509,2.161-6.891,3.492A.648.648,0,0,1,97.1,180.584Zm81.923.617a.642.642,0,0,1-.37-.117,54.5,54.5,0,0,0-6.614-3.928.65.65,0,1,1,.584-1.161,55.658,55.658,0,0,1,6.771,4.025.649.649,0,0,1-.37,1.182Zm-67.625-7.014c2.406-.8,4.876-1.489,7.552-2.11a.648.648,0,0,1,.294,1.263c-2.635.614-5.067,1.293-7.435,2.079A.65.65,0,0,1,111.394,174.186Zm53.77,0a.647.647,0,0,1-.215-.038,65.481,65.481,0,0,0-7.413-2.118.65.65,0,0,1-.492-.776.64.64,0,0,1,.776-.492,66.858,66.858,0,0,1,7.56,2.163.649.649,0,0,1-.215,1.261Zm-38.534-3.609c2.2-.358,4.483-.68,6.971-.989l.773-.091a.6.6,0,0,1,.715.573.646.646,0,0,1-.573.715l-.753.091c-2.475.307-4.74.629-6.926.984A.65.65,0,0,1,126.63,170.575Zm23.366.2a.331.331,0,0,1-.071-.005,70.793,70.793,0,0,0-7.661-.416.67.67,0,0,1-.672-.649.631.631,0,0,1,.627-.649,71.7,71.7,0,0,1,7.849.426A.649.649,0,0,1,150,170.77Z" transform="translate(-85.557 -169.05)" fill="#010101"/>
                  </g>
                  <g id="Grupo_133592" data-name="Grupo 133592" transform="translate(17.572 19.852)">
                    <path id="Trazado_197505" data-name="Trazado 197505" d="M116.2,229.019c-.538-2.541-1-5.136-1.365-7.715a.648.648,0,0,1,1.283-.183c.365,2.549.819,5.115,1.349,7.629a.648.648,0,1,1-1.268.269Zm-1.56-14.9a.649.649,0,0,1-.646-.6c-.193-2.6-.3-5.232-.315-7.826a.649.649,0,0,1,.645-.654h0a.651.651,0,0,1,.649.646c.015,2.564.119,5.169.309,7.738a.647.647,0,0,1-.6.695A.329.329,0,0,1,114.638,214.117Zm-.086-15.566a.235.235,0,0,1-.041,0,.646.646,0,0,1-.606-.687c.162-2.582.418-5.206.761-7.8a.649.649,0,0,1,1.288.167c-.337,2.564-.591,5.158-.755,7.71A.647.647,0,0,1,114.552,198.551Zm1.413-16.21c.52-2.553,1.134-5.118,1.823-7.62a.65.65,0,0,1,1.253.345c-.682,2.475-1.288,5.011-1.8,7.535A.65.65,0,0,1,115.965,182.341Zm4.152-15.094c1.39-3.982,2.639-6.841,2.828-7.307a.65.65,0,0,1,1.2.508c-.108.265-1.332,3.025-2.8,7.225C121.233,167.991,119.835,168.06,120.116,167.247Zm6.129-14.412c1.164-2.3,2.432-4.608,3.771-6.865a.649.649,0,0,1,1.116.664c-1.324,2.23-2.579,4.514-3.731,6.789A.649.649,0,0,1,126.245,152.836Zm8.016-13.449c1.149-1.658,2.358-3.3,3.588-4.879a.649.649,0,0,1,1.025.8c-1.217,1.562-2.409,3.186-3.548,4.824A.649.649,0,0,1,134.262,139.387Z" transform="translate(-113.677 -134.25)" fill="#010101"/>
                  </g>
                </g>
                <g id="Grupo_133595" data-name="Grupo 133595" transform="translate(100.182 7.023)">
                  <g id="Grupo_133594" data-name="Grupo 133594">
                    <path id="Trazado_197506" data-name="Trazado 197506" d="M253.627,116.469l-3.013-2.762a.65.65,0,0,1,.877-.959l3.013,2.762A.65.65,0,0,1,253.627,116.469Z" transform="translate(-250.396 -112.569)"/>
                  </g>
                </g>
                <g id="Grupo_133597" data-name="Grupo 133597" transform="translate(102.942 0.75)">
                  <g id="Grupo_133596" data-name="Grupo 133596">
                    <path id="Trazado_197507" data-name="Trazado 197507" d="M255.129,103.11a.65.65,0,0,1,1.075-.73l4.268,6.276a.652.652,0,0,1-.172.9C259.453,110.136,259.361,109.15,255.129,103.11Z" transform="translate(-255.008 -102.089)"/>
                  </g>
                </g>
                <g id="Grupo_133599" data-name="Grupo 133599" transform="translate(111.485)">
                  <g id="Grupo_133598" data-name="Grupo 133598">
                    <path id="Trazado_197508" data-name="Trazado 197508" d="M269.293,105.645l.754-4.268a.649.649,0,1,1,1.278.223l-.753,4.268A.649.649,0,0,1,269.293,105.645Z" transform="translate(-269.28 -100.836)"/>
                  </g>
                </g>
                <g id="Grupo_133601" data-name="Grupo 133601" transform="translate(106.28 15.783)">
                  <g id="Grupo_133600" data-name="Grupo 133600">
                    <path id="Trazado_197509" data-name="Trazado 197509" d="M314.138,144.507a160.077,160.077,0,0,1-35.42-4.547,40.529,40.529,0,0,1-10.428-3.736,17.129,17.129,0,0,1-7.651-8.122.65.65,0,0,1,1.2-.492,15.847,15.847,0,0,0,7.085,7.484,39.373,39.373,0,0,0,10.1,3.6,156.158,156.158,0,0,0,35.121,4.512.649.649,0,0,1-.01,1.3Z" transform="translate(-260.584 -127.204)"/>
                  </g>
                </g>
                <g id="Grupo_133603" data-name="Grupo 133603" transform="translate(44.642 55.746)">
                  <g id="Grupo_133602" data-name="Grupo 133602">
                    <path id="Trazado_197510" data-name="Trazado 197510" d="M231.983,257.845C153.67,191.326,157.1,195.078,157.849,194.2a.655.655,0,0,1,.915-.073c24.833,21.087,50.505,42.724,74.061,62.733A.649.649,0,0,1,231.983,257.845Z" transform="translate(-157.606 -193.971)"/>
                  </g>
                </g>
                <g id="Grupo_133605" data-name="Grupo 133605" transform="translate(0 52.474)">
                  <g id="Grupo_133604" data-name="Grupo 133604">
                    <path id="Trazado_197511" data-name="Trazado 197511" d="M106.7,253.584c-21.927-14.214-29.252-43.189-19.331-64.7a.649.649,0,0,1,1.179.543c-9.609,20.846-2.6,49.158,18.857,63.067a.649.649,0,1,1-.705,1.091Z" transform="translate(-83.023 -188.504)"/>
                  </g>
                </g>
              </g>
            </g>
          </g>
        </g>
      </g>
    </g>
  </g>
</svg>
