<svg xmlns="http://www.w3.org/2000/svg" width="449" height="298.468" viewBox="0 0 449 298.468">
  <g id="Grupo_134518" data-name="Grupo 134518" transform="translate(-5562.745 7683.734)">
    <g id="Grupo_134489" data-name="Grupo 134489" transform="translate(-1385 -613.734)">
      <g id="Grupo_134368" data-name="Grupo 134368" transform="translate(6073.745 -8358)">
        <path id="_360_F_39969628_7VhMJmQWanuhhw6z9uxkD9V6FRTuA1M7" data-name="360_F_39969628_7VhMJmQWanuhhw6z9uxkD9V6FRTuA1M7" d="M50,0H449a0,0,0,0,1,0,0V212a50,50,0,0,1-50,50H0a0,0,0,0,1,0,0V50A50,50,0,0,1,50,0Z" transform="translate(874 1300)" fill="none"/>
        <g id="Grupo_132611" data-name="Grupo 132611" transform="translate(863.16 1288)">
          <path id="Unión_1" data-name="Unión 1" d="M8.577,22.568V13.626H0V8.809H8.577V0h5.1V8.809h9.209v4.817H13.674v8.942Z" transform="translate(407.67 236.782)" fill="#ff9500"/>
          <g id="Grupo_78297" data-name="Grupo 78297" transform="translate(20 219.465)" opacity="0.95">
            <path id="Trazado_99257" data-name="Trazado 99257" d="M416.726,103.98a1.257,1.257,0,1,1-1.257-1.2A1.23,1.23,0,0,1,416.726,103.98Z" transform="translate(-414.214 -102.779)" fill="#ff9500"/>
            <path id="Trazado_99258" data-name="Trazado 99258" d="M425.172,103.98a1.257,1.257,0,1,1-1.255-1.2A1.229,1.229,0,0,1,425.172,103.98Z" transform="translate(-411.356 -102.779)" fill="#ff9500"/>
            <ellipse id="Elipse_3975" data-name="Elipse 3975" cx="1.256" cy="1.201" rx="1.256" ry="1.201" transform="translate(0 9.611)" fill="#ff9500"/>
            <path id="Trazado_99268" data-name="Trazado 99268" d="M425.172,111.488a1.257,1.257,0,1,1-1.255-1.2A1.23,1.23,0,0,1,425.172,111.488Z" transform="translate(-411.356 -100.676)" fill="#ff9500"/>
            <path id="Trazado_99274" data-name="Trazado 99274" d="M416.726,119a1.257,1.257,0,1,1-1.257-1.2A1.23,1.23,0,0,1,416.726,119Z" transform="translate(-414.214 -98.574)" fill="#ff9500"/>
            <path id="Trazado_99275" data-name="Trazado 99275" d="M425.172,119a1.257,1.257,0,1,1-1.255-1.2A1.23,1.23,0,0,1,425.172,119Z" transform="translate(-411.356 -98.574)" fill="#ff9500"/>
            <ellipse id="Elipse_3980" data-name="Elipse 3980" cx="1.256" cy="1.201" rx="1.256" ry="1.201" transform="translate(0 28.83)" fill="#ff9500"/>
            <path id="Trazado_99285" data-name="Trazado 99285" d="M425.172,126.5a1.257,1.257,0,1,1-1.255-1.2A1.229,1.229,0,0,1,425.172,126.5Z" transform="translate(-411.356 -96.473)" fill="#ff9500"/>
            <ellipse id="Elipse_3985" data-name="Elipse 3985" cx="1.256" cy="1.201" rx="1.256" ry="1.201" transform="translate(0 38.44)" fill="#ff9500"/>
            <path id="Trazado_99291" data-name="Trazado 99291" d="M425.172,134.012a1.257,1.257,0,1,1-1.255-1.2A1.229,1.229,0,0,1,425.172,134.012Z" transform="translate(-411.356 -94.37)" fill="#ff9500"/>
          </g>
          <circle id="Elipse_4859" data-name="Elipse 4859" cx="28.391" cy="28.391" r="28.391" transform="translate(33.028 241.686)" fill="#0ca4ca" opacity="0.5"/>
          <ellipse id="Elipse_4860" data-name="Elipse 4860" cx="16.015" cy="15.651" rx="16.015" ry="15.651" transform="translate(409.81 0)" fill="#ff9500" opacity="0.5"/>
        </g>
        <g id="Grupo_134370" data-name="Grupo 134370" transform="translate(-5983.165 10837.744)">
          <g id="Grupo_133568" data-name="Grupo 133568" transform="translate(6902.134 -9594.883)">
            <path id="Trazado_197399" data-name="Trazado 197399" d="M53.929,274.988c8.293,0,15.915-6.61,22.453-10.961q3.361-2.226,6.711-4.467Q86.921,257,90.73,254.41c3.551-2.409,3.243-1.629,6.842-.215,18.083,7.1,39.662,12.527,58.248,4.459,8.191-3.555,16.844-8.043,23.522-14.053a38.639,38.639,0,0,0,8.145-10.714c2.428-4.569,10.477-5.931,15.265-7.544,8.945-3.014,17.936-5.889,26.932-8.746q7.974-2.531,15.945-5.079,4.191-1.349,8.372-2.728c4.15-1.374,3.217-.833,4.685,2.564-14.16,5.658-35.811,11.059-44.761,24.515-3.483,5.235-7.31,15.22-12.767,17.274q-10.65,4.008-21.313,7.978c-13.1,4.85-20.45,16.091-13.63,29.89,9.327,18.874,26.638,9.72,39.653,1.04q3.893-2.6,7.778-5.208,1.942-1.3,3.881-2.61c2.794-1.882,4.243.029,7.431.487,8.741,1.256,16.239,3.753,24.939-.186,14.872-6.733,28.738-16.251,42.055-25.6,13.188-9.264,28.758-19.234,23.134-37.758a27.88,27.88,0,0,0-14.01-16.767,27.389,27.389,0,0,0-5.658-2.078c-4.211-1.04-3.959-2.748-5.866-6.566-1.966-3.938-.1-4.953,1.023-9.023,19,9.084,25.241-16.654,25.758-30.24.315-8.271-2.416-15.76-9.654-20.306-3.844-2.416-9.622-1.116-9.549-5.728.074-4.654-1.672-9.828,2.241-12.575,6.778-4.756,13.612-11.6,13.037-20.558-.565-8.8-8.315-15.828-15.26-20.28C280.232,67.21,260.02,70.86,255.714,92.475A76.04,76.04,0,0,0,216.98,90.5c-11.967,2.592-25.079-1.41-37.432-.121a82.931,82.931,0,0,0-24.332,6.627c-5.9.8-12.306-.841-18.318-.533-14.932.765-30.117,7.4-43.547,13.486-4.156,1.882-8.86,3.515-11.875,7.123-2.086,2.5-3.006,5.67-3.592,8.81-.724,3.879-5.595,4.238-9.119,5.557C58.655,135.233,42.59,138.187,38.3,149.62,33.649,161.992,43.107,178.9,56.975,178.9c9.868,0,19.718-8.985,27.449-14.143-6.4,11.625-11.492,24.122-13.967,37.2a87.074,87.074,0,0,0-1.546,18.933c.113,3.561,1.581,4.763-2.121,6.152q-5.254,1.971-10.514,3.926c-10.16,3.776-21.41,7.153-22.352,19.829-.854,11.472,7.792,24.189,20.005,24.19Z" fill="#fff"/>
            <g id="Grupo_133567" data-name="Grupo 133567" transform="translate(40.967 78.581)">
              <path id="Trazado_197400" data-name="Trazado 197400" d="M62.958,270.344c.151-.079.28-.184.425-.268.023-.012.046-.018.069-.031,5.211-2.917,10.178-6.312,15.153-9.609q9.2-6.095,18.3-12.341c3.09,1.518,6.289,2.825,9.471,4.021a119.581,119.581,0,0,0,22.41,6.07c6.438,1.067,13.246,1.784,19.709.507,5.855-1.156,13.048-4.684,20.653-9.09,4.452-2.579,9.157-5.562,12.424-9.613a43.265,43.265,0,0,0,5.733-9.919c8.264-3.951,17.153-6.72,25.83-9.582,11.431-3.772,22.932-7.334,34.391-11.022,5.833-1.878,11.656-3.786,17.443-5.8,2.454,5.4,4.928,10.8,7.066,16.33-12.3,4.821-24.582,9.838-36.5,15.55-5.992,2.874-11.578,6.314-14.034,13.972a16.745,16.745,0,0,0-3.434,3.3,14.28,14.28,0,0,0-2.724,8.776c-.773.294-20.076,7.574-28.975,10.865-5.553,2.056-10.96,4.492-11.585,11.152a18.132,18.132,0,0,0,3.969,12.325,11.823,11.823,0,0,0,6.668,4.3c4.573,1.014,10.6-2.854,15.532-6.039,3.041-1.962,17.895-11.939,22.3-14.94a13.2,13.2,0,0,0,10.735,3.164c6.25,3.409,13.57,2.686,19.484-.933a71.617,71.617,0,0,0,10.351-5.448c5.416-3.188,10.729-6.553,15.985-10,5.575-3.652,11.087-7.4,16.481-11.315a125.012,125.012,0,0,0,12.026-9.51c3.3-3.081,5.052-6.366,4.915-12a20.76,20.76,0,0,0-9.341-16.685,19.939,19.939,0,0,0-12.026-3.167c-2.559-5.884-5.5-11.6-8.451-17.3a7.472,7.472,0,0,0,3.114-2.908,17.677,17.677,0,0,0,1.09-2.94c.9-3.065,1.421-6.275,2.235-10.653,3.2,2.482,6.424,5.374,10.308,6.4,4.936,1.306,8.086-2.933,9.669-7.051a57.516,57.516,0,0,0,3.485-17.988,18.391,18.391,0,0,0-1.234-8.464,13.374,13.374,0,0,0-5.111-5.575c-4.076-2.561-8.746-1.634-13.271-2.166a164.992,164.992,0,0,0,.326-17.124,33.609,33.609,0,0,0-.82-7.219,42.267,42.267,0,0,0,8.208-5.122,25.882,25.882,0,0,0,6.517-6.938,9.915,9.915,0,0,0,.839-8.66c-1.125-2.908-3.36-5.316-5.6-7.423a38.188,38.188,0,0,0-16.6-9.25c-3.2-.813-6.676-1.113-9.806.15a14.963,14.963,0,0,0-6.465,5.381c-3.561,5-3.94,11.258-4.789,17.159-.249-.092-.5-.186-.75-.277a106.341,106.341,0,0,0-13.579-4.224,70.926,70.926,0,0,0-10.879-1.387,65.426,65.426,0,0,0-17.767,1.335c-4.7,1.017-6.158,1.11-10.445.636a164.816,164.816,0,0,0-19.126-1.083,83.775,83.775,0,0,0-11.21.764,78.078,78.078,0,0,0-19.9,5.868c-1.872.82-5.437.518-7.962.263a83.106,83.106,0,0,0-12.573-.324,58.179,58.179,0,0,0-13.354,2.523c-5.717,1.658-11.343,3.629-16.881,5.8q-6.754,2.652-13.331,5.726c-3.154,1.48-6.681,2.536-7.92,6.051a36.548,36.548,0,0,0-1.611,9.548c-.555.211-1.106.43-1.661.641q-13.431,5.1-26.914,10.067a27.193,27.193,0,0,0-7.483,3.84c-2.831,2.258-4.392,5.84-3.769,10.487a19.153,19.153,0,0,0,3.891,9.055,11.732,11.732,0,0,0,7.238,4.406c4.349.717,8.009-1.838,11.034-3.681,4.408-2.684,8.683-5.612,12.967-8.463q5.711-3.8,11.38-7.663c1.61-1.094,1.955-.908,3.453-.731a64.969,64.969,0,0,0,6.9.383A157.13,157.13,0,0,0,93.3,174.455c-8.76,16.682-14.887,35.936-12.9,54.97a28.9,28.9,0,0,0,.8,4.979q-13.676,5.176-27.4,10.232a12.13,12.13,0,0,0-7.769,6.435c-.015.035-.017.073-.03.108a2.368,2.368,0,0,0-.128.265c-2.052,5.114-.079,11.462,3.191,15.6,3.375,4.273,8.962,5.894,13.9,3.3Z" transform="translate(-45.034 -82.271)" fill="#68182b" stroke="#fff" stroke-miterlimit="4.267" stroke-width="0.107"/>
              <path id="Trazado_197401" data-name="Trazado 197401" d="M272.128,125.7c-5.484-2.8-11.939-4.079-17.916-5.326-4.685-.978-8.57-.4-17.293,4.137A136.864,136.864,0,0,0,213.784,139.8c-6.066,4.936-12.066,10.411-16.49,16.915a83.938,83.938,0,0,1,9.293,2.878c3.31,1.3,4.907,3.635,3.349,6.72-1.09,2.157-3.832,2.943-5.94,3.759-5.444,2.107-11.024,3.876-16.587,5.635q-7.753,2.45-15.561,4.726c-4.033,1.171-8.821,3.137-13.022,2.015-5.491-1.468-6.528-8.49-6.717-13.268a55.511,55.511,0,0,1,.722-10.869c.425-2.668,1.1-5.574,3.289-7.371,2.919-2.4,6.772-1.668,10.169-1.08,1.674.29,3.342.618,5.011.944a.832.832,0,0,1,.148-.464,85.8,85.8,0,0,1,8.337-10.224,114.979,114.979,0,0,1,19.6-16.563,81.269,81.269,0,0,1,13.507-7.47,74.047,74.047,0,0,0-8.464.673,70.907,70.907,0,0,0-11.574,2.744c-17.9,5.821-33.713,17.55-46.87,30.765a167.118,167.118,0,0,0-14.429,16.519,1.575,1.575,0,0,1-.276.357,143.709,143.709,0,0,0-18.842,32.785,99.472,99.472,0,0,0-7.031,26.956,73.2,73.2,0,0,0-.214,13.038c.21,2.76.324,5.771,1.7,7.908,2.7,4.2,8.091,7.132,12.54,9.395a108.107,108.107,0,0,0,20.511,7.719,93.405,93.405,0,0,0,20.958,3.548,37.407,37.407,0,0,0,8.5-.474c5.245-1.01,7.033-3.224,8.2-7.966,1.024-4.158,2.278-8.259,3.684-12.3A217.483,217.483,0,0,1,192.745,221.1a291.963,291.963,0,0,1,34.98-53.6c11.8-14.346,25.36-28.406,41.664-37.632.808-.457,1.626-.889,2.449-1.313,2.409-1.241,1.886-2.032.291-2.847Zm-102.305,106a23.225,23.225,0,0,1-14.4,11.091c-11.762,3.4-21.01,1.771-27.317-1.28a23.926,23.926,0,0,1-12.189-14.5,39.055,39.055,0,0,1-.748-19.657c1.2-5.592,3.712-11.329,8.106-15.144,9.531-7.927,25.1-5.59,35.424-.524q1.091.535,2.138,1.135a26.755,26.755,0,0,1,7.469,6.156,23.992,23.992,0,0,1,4.649,10.05,31.638,31.638,0,0,1-3.135,22.671Z" transform="translate(-66.87 -94.583)" fill="#ff9b0d"/>
              <path id="Trazado_197402" data-name="Trazado 197402" d="M193.34,249.984c4.153,11.938.739,28.138-12.255,32.842a39.864,39.864,0,0,1-9,2.077,21.585,21.585,0,0,0,6.125-4.363,29.392,29.392,0,0,0,7.074-14.034c2.294-10.455.136-23.493-8.6-30.386C184.065,238.349,190.863,242.864,193.34,249.984Z" transform="translate(-91.297 -138.294)" fill="#ffdbaa"/>
              <path id="Trazado_197403" data-name="Trazado 197403" d="M152.789,234.881c-6.257-2.474-14.855-2.235-20.228,2.234-4.494,3.9-6.72,9.87-7.651,15.612-1.033,6.378-.483,13.554,2.372,19.422a19.109,19.109,0,0,0,22.942,10.165,19.434,19.434,0,0,0,10.283-7.29,29.79,29.79,0,0,0,5.038-14.669c.75-10.013-2.686-21.492-12.756-25.475Zm4.807,28.245c-1.468,6.443-5.618,12.47-12.623,13.375-7.385.954-12.746-4.981-14.323-11.673a29.464,29.464,0,0,1-.052-12.936,19.213,19.213,0,0,1,4.81-9.683c4.289-4.022,11.569-4.193,16.289-.843,6.565,4.66,7.558,14.484,5.9,21.76Z" transform="translate(-73.945 -137.271)" fill="#18a9cd"/>
              <path id="Trazado_197404" data-name="Trazado 197404" d="M136.369,257.94c.619-3.615,1.893-7.445,4.564-10.074,3.2-3,8.536-3.4,12.386-1.519,6.354,3.1,7.777,11.327,7.148,17.7-.588,5.961-3.366,12.419-9.458,14.451-6.009,2-11.583-1.813-13.651-7.462A25.937,25.937,0,0,1,136.369,257.94Z" transform="translate(-78.144 -141.603)" fill="#fbf199"/>
              <path id="Trazado_197405" data-name="Trazado 197405" d="M251.664,244.144c-2.212,5.442-4.689,12-9.758,16.614a49.148,49.148,0,0,1-7.33,5.344,90.144,90.144,0,0,1-8.4,4.612c-2.507,1.2-2.965.565-2.328-2.009a157.419,157.419,0,0,1,8.26-24.016,280.144,280.144,0,0,1,32.733-56.317c12.021-16.22,25.885-32.058,42.63-43.557a88.538,88.538,0,0,1,10.636-6.277c.182-.091.366-.191.547-.3a37.808,37.808,0,0,1,1.079,10.432,18.288,18.288,0,0,1-.839,6.3c-.918,2.409-3.243,4.461-5.108,6.156-4.685,4.257-9.764,8.044-14.4,12.372a185.932,185.932,0,0,0-13.263,13.741,195.349,195.349,0,0,0-22,30.877q-4.792,8.33-8.753,17.1c-1.322,2.928-2.493,5.936-3.708,8.924Z" transform="translate(-110.055 -102.652)" fill="#aee0ed"/>
              <path id="Trazado_197406" data-name="Trazado 197406" d="M372.969,224.218c1.031,3.245,1.183,3.732-1.447,2.289-9.351-5.134-10.265-20.26-4.364-28.818a14.649,14.649,0,0,1,12.7-5.941,14.033,14.033,0,0,1,11.882,8.9,25.6,25.6,0,0,1,1.182,15.033c-.97,4.344-1.561,4.281-2.756,1.633-.869-1.923-1.7-3.862-2.466-5.829a52.393,52.393,0,0,0-2.18-5.565c-1.376-2.616-3.931-4.868-7.076-4.1-2.944.719-4.859,3.591-5.913,6.234-2.1,5.274-1.256,10.84.436,16.161Z" transform="translate(-160.983 -122.127)" fill="#ff5671"/>
              <path id="Trazado_197407" data-name="Trazado 197407" d="M355.6,215.152a20.476,20.476,0,0,0,5.558,11.461c-4.889-1.782-9.146-5.028-10.8-10.039-2.881-8.737-.226-20.179,9.133-23.6a30.445,30.445,0,0,1,4.076-1.16,15.675,15.675,0,0,0-3.243,2.959c-4.586,5.594-5.925,13.376-4.725,20.376Z" transform="translate(-155.814 -122.162)" fill="#ffdbaa"/>
              <path id="Trazado_197408" data-name="Trazado 197408" d="M354.284,184.584a17.906,17.906,0,0,0-10.764,8.33,23.983,23.983,0,0,0-2.519,16.8,18.569,18.569,0,0,0,8.977,12.7,29.78,29.78,0,0,0,12.163,3.872c1.936.191,2.588,1.036.511,2.07-6.237,3.109-13.563,2.973-19.36-1.51-6.761-5.227-9.344-14.1-9.454-22.539-.066-5.078,1.964-8.4,6.43-12.671,3.986-3.807,8.242-7.256,12.439-10.8,3.412-2.882,4.592-3.374,9.142-1.721a19.1,19.1,0,0,1,7.017,4.425,31.227,31.227,0,0,0-14.581,1.037Z" transform="translate(-150.2 -117.196)" fill="#ff9b0d"/>
              <path id="Trazado_197409" data-name="Trazado 197409" d="M280.687,270.556c-3.065,1.113-6.13,2.264-9.133,3.548.551-1.366,1.095-2.733,1.654-4.086A194.552,194.552,0,0,1,304.3,219.046c1.24-1.46,2.51-2.894,3.795-4.315-.455,8.344,1.367,17.221,6.555,23.835a21.335,21.335,0,0,0,18.155,8.4,22.978,22.978,0,0,0,10.808-3.762q1.243,2.933,2.554,5.839C324.467,256.589,302.285,262.712,280.687,270.556Z" transform="translate(-127.52 -130.506)" fill="#18a9cd"/>
              <path id="Trazado_197410" data-name="Trazado 197410" d="M268.419,406.9a7.683,7.683,0,0,1-10.326-.819c-3.259-3.331-5.193-9.007-3.514-13.534,2.6-5.636,10.03-6.3,13.453-3.072a14.222,14.222,0,0,1,3.921,7.712C272.579,400.972,271.516,404.56,268.419,406.9Z" transform="translate(-121.114 -193.434)" fill="#ff5671"/>
              <path id="Trazado_197411" data-name="Trazado 197411" d="M282.165,393.762a13.315,13.315,0,0,0,.608-4.793c-.315-5.143-3.192-10.953-8.038-13.228,5.748-2.133,33.647-12.7,35.453-13.409,1.481-.586,2.8-1.051,4.319-.3,2.478,1.226,4.125,4.906,2.831,7.476a6.9,6.9,0,0,1-2.556,2.309c-1.077.743-13.046,8.829-32.617,21.945Z" transform="translate(-128.678 -184.003)" fill="#ffdbaa"/>
              <path id="Trazado_197412" data-name="Trazado 197412" d="M325.278,373.119c1.265-.865,2.534-1.724,3.8-2.59,2.189-1.5,5.25-2.991,6.594-5.356,1.771-3.114.839-7.094-1.333-9.751a8.044,8.044,0,0,0-4.181-2.773,8.279,8.279,0,0,0-5.253.694c-2.334.921-4.681,1.809-7.023,2.709a10.664,10.664,0,0,1,1.693-5.223,13.49,13.49,0,0,1,4.46-3.993c4-2.31,8.953-2.574,12.74.329a18.968,18.968,0,0,1,6.891,13.826,13.594,13.594,0,0,1-4.589,11.213c-3.733,3.3-9.8,4.074-13.8.916Z" transform="translate(-144.39 -177.959)" fill="#18a9cd"/>
              <path id="Trazado_197413" data-name="Trazado 197413" d="M350.4,345a14.138,14.138,0,0,0-5.264-3.488c.4-.038.8-.071,1.195-.086a11.963,11.963,0,0,1,10.3,4.357c4.516,5.435,5.549,14.164.7,19.7a25.867,25.867,0,0,1-2.067,2.085A16.708,16.708,0,0,0,356.7,361.7a22.607,22.607,0,0,0-6.3-16.7Z" transform="translate(-154.317 -176.636)" fill="#ff5671"/>
              <path id="Trazado_197414" data-name="Trazado 197414" d="M359.354,365.345c-4.371,4.336-10.683,6.61-16.553,5.139a28.175,28.175,0,0,0,10.462-6.9,16.387,16.387,0,0,0,4.8-10.441,19.944,19.944,0,0,0-3.459-12.849,15,15,0,0,0-11.676-6.9,25.1,25.1,0,0,0-12.911,2.8,17.561,17.561,0,0,1,10.565-7.946c5.646-1.365,11.171.9,15.1,4.983,7.6,7.9,12.479,23.373,3.673,32.109Z" transform="translate(-148.81 -171.699)" fill="#ff8e5b"/>
              <path id="Trazado_197415" data-name="Trazado 197415" d="M410.266,293.743a16.733,16.733,0,0,1,3.91,1.475,17.519,17.519,0,0,1,8.761,11.277c1.675,6.786.067,10.133-4.545,14.282-2.625,2.362-5.5,4.478-8.327,6.566-5.033,3.722-10.191,7.278-15.4,10.747s-10.462,6.841-15.8,10.082c-1.617.981-3.243,1.961-4.883,2.918a19.651,19.651,0,0,0,2.656-10.642c-.3-11.61-8.159-26.341-20.452-28.142,8.543-3.921,17.3-7.426,26-10.911,5.43-2.175,10.878-4.321,16.392-6.278,5.192-1.845,7.289-2.429,11.686-1.375Z" transform="translate(-158.338 -159.087)" fill="#aee0ed"/>
              <path id="Trazado_197416" data-name="Trazado 197416" d="M409.621,258.373c1.24,2.657.561,3.053-1.933,3.9-3.549,1.206-7.048,2.578-10.537,3.942-2.87-7.368-6.346-14.495-9.515-21.735-1.727-3.948-3.4-7.931-4.794-12.01-1.275-3.723-2.435-7.534-2.112-11.514.226-2.8,1.216-6.344,3.638-8.064,2.3-1.631,4.083.652,5,2.661.772,1.686,1.283,3.509,1.972,5.233.727,1.819,1.5,3.619,2.307,5.405s4.63,9.68,5.648,11.7c3.443,6.818,7.092,13.558,10.321,20.485Z" transform="translate(-167.257 -129.634)" fill="#fbf199"/>
              <path id="Trazado_197417" data-name="Trazado 197417" d="M406.682,198.474c-.574,3.621-1.2,7.251-2.108,10.8-1.445,5.635-2.86,5.756-4.682,2.168-1.054-2.078-2.1-4.16-3.123-6.253,5.717-9.853,4.588-26.4-5.459-32.612a53.832,53.832,0,0,1-5.728-4.605,22.9,22.9,0,0,0-12.229-6.362,15.574,15.574,0,0,0,2.74-3.942,18.5,18.5,0,0,0,1.279-7.028c.046-1.36.043-2.774-.018-4.2,4.252-2.248,9.212-3.254,13.9-4.047a95.643,95.643,0,0,1,14.441-1.382c3.751-.057,4.183,1.078,4.49,3.622.13,1.083.17,2.186.232,3.354a184.455,184.455,0,0,1-.708,23.951C409.023,180.813,408.074,189.682,406.682,198.474Z" transform="translate(-164.59 -103.66)" fill="#18a9cd"/>
              <path id="Trazado_197418" data-name="Trazado 197418" d="M447.052,222.324c-1.066,2.494-2.726,4.733-5.361,4.137-2.1-.475-4-1.893-5.716-3.133s-3.346-2.531-5.045-3.762c.911-5.945,1.621-11.922,2.194-17.909,3.2,1.233,6.082,3.631,8.534,5.881C448.98,214.259,449.329,217,447.052,222.324Z" transform="translate(-185.556 -125.745)" fill="#aee0ed"/>
              <path id="Trazado_197419" data-name="Trazado 197419" d="M435.375,185.31c3.167.273,6.433-.088,9.521.684,4.505,1.126,7.027,5.5,7.193,9.86a47.52,47.52,0,0,1-1.2,11.7,43.72,43.72,0,0,0-6.739-7.473c-2.724-2.472-5.919-5.07-9.483-6.31.084-.921.177-1.841.256-2.762q.243-2.844.455-5.7Z" transform="translate(-186.916 -119.792)" fill="#ff9b0d"/>
              <path id="Trazado_197420" data-name="Trazado 197420" d="M428.328,90.654a36.773,36.773,0,0,1,6.742,4.16c3.815,2.96,9.636,7.987,7.413,13.405-1.155,2.814-3.666,5.018-5.959,6.911a37.211,37.211,0,0,1-5.506,3.746c-2.014,1.13-2.456,1.063-4.055.172-1.535-.855-3.1-1.667-4.684-2.449a21.346,21.346,0,0,1-1.256-4.693,48.413,48.413,0,0,1-.621-8.254,53.468,53.468,0,0,1,.588-8.718c1.221-7.252,4.082-5.82,7.338-4.28Z" transform="translate(-181.723 -84.869)" fill="#aee0ed"/>
              <path id="Trazado_197421" data-name="Trazado 197421" d="M398.969,95.486c2.053-5.2,6.461-8.909,12.24-8.2.373.046.743.125,1.116.189-2.13,4.694-2.511,10.3-2.517,15.369a51.723,51.723,0,0,0,.665,8.616,28.725,28.725,0,0,0,.7,3.187c-4.808-2.253-9.772-4.238-14.723-6.092.629-4.356.895-8.967,2.516-13.074Z" transform="translate(-173.002 -84.067)" fill="#ff9b0d"/>
              <path id="Trazado_197422" data-name="Trazado 197422" d="M353.158,115.746a89.773,89.773,0,0,1,12.457,3.7c5.009,1.776,9.957,3.733,14.838,5.837,2.231.961,4.467,1.939,6.673,2.981a105.848,105.848,0,0,0-10.541,1.126c-5.178.763-10.663,1.765-15.471,4.023a31.846,31.846,0,0,0-.628-3.523c-.851-3.553-1.274-5.547-5.03-7.465a46.2,46.2,0,0,0-7.781-2.94,148.2,148.2,0,0,0-18.177-4.092,66.076,66.076,0,0,1,23.66.351Z" transform="translate(-148.62 -94.005)" fill="#fbf199"/>
              <path id="Trazado_197423" data-name="Trazado 197423" d="M263.323,116.465q1.993.126,3.973.287c5.633.455,11.25,1.157,16.832,2.063a110.861,110.861,0,0,0-19.544,10.261,133.341,133.341,0,0,0-21.643,17.144,68.277,68.277,0,0,0-7.609,8.761c-.656.919-.9,1.34-2.5.935-4.576-1.161-9.178-2.222-13.791-3.221-2.278-.494-4.561-.979-6.848-1.44a94.789,94.789,0,0,1,15.953-17.38,102.234,102.234,0,0,1,20.23-13.947c6.857-3.518,9.98-3.778,14.943-3.463Z" transform="translate(-105.906 -94.687)" fill="#18a9cd"/>
              <path id="Trazado_197424" data-name="Trazado 197424" d="M158.04,130.045c4.371-1.391,8.893-2.909,13.472-3.412a73.648,73.648,0,0,1,11.848-.214c.879.046,1.759.1,2.639.172-11.145,3.989-21.891,9.2-32.867,13.581a14.809,14.809,0,0,0-5.143-1.253,79.628,79.628,0,0,0-11.407-.694,207.053,207.053,0,0,1,21.457-8.18Z" transform="translate(-78.371 -98.297)" fill="#aee0ed"/>
              <path id="Trazado_197425" data-name="Trazado 197425" d="M188.271,137.108c-4.12,2.8-8.072,5.816-11.821,8.953q-4.714,3.944-9.133,8.264-.1-1.206-.252-2.4a21.617,21.617,0,0,0-1.2-5.3c7.5-3.039,14.9-6.423,22.4-9.511Z" transform="translate(-89.035 -102.239)" fill="#18a9cd"/>
              <path id="Trazado_197426" data-name="Trazado 197426" d="M69.53,210.266a7.682,7.682,0,0,1-10.326-.82c-3.259-3.329-5.194-9.006-3.514-13.532a9.382,9.382,0,0,1,8.845-5.213c4.768.329,7.825,5.6,8.529,9.853C73.69,204.337,72.628,207.924,69.53,210.266Z" transform="translate(-48.689 -121.749)" fill="#ff5671"/>
              <path id="Trazado_197427" data-name="Trazado 197427" d="M94.326,189.951c-3.661,2.443-7.324,4.927-11.051,7.3a13.311,13.311,0,0,0,.608-4.792c-.315-5.143-3.192-10.953-8.038-13.229,5.747-2.133,11.5-4.26,17.234-6.421q6.407-2.413,12.795-4.871,2.715-1.048,5.424-2.116c1.482-.586,2.8-1.051,4.32-.3,2.477,1.226,4.124,4.906,2.831,7.476a6.9,6.9,0,0,1-2.557,2.309q-1.616,1.114-3.234,2.224-9.131,6.264-18.332,12.42Z" transform="translate(-56.254 -112.444)" fill="#ffdbaa"/>
              <path id="Trazado_197428" data-name="Trazado 197428" d="M129.013,176.682c-1.865-.075-1.82-.341-.593-1.175q.712-.484,1.42-.969c2.189-1.5,5.25-2.991,6.594-5.356,1.771-3.115.84-7.094-1.332-9.752a8.041,8.041,0,0,0-4.182-2.772,8.277,8.277,0,0,0-5.254.692c-2.535,1-5.084,1.967-7.629,2.943a36.529,36.529,0,0,1,1.028-6.262c.819-3.045,3.2-3.679,5.673-3.9,1.379-.12,2.789-.131,4.024-.158a82.278,82.278,0,0,1,10.382.432,38.6,38.6,0,0,1,4,.6c1.925.408,2.582.8,3.034,3.171.167.871.251,1.758.346,2.437.144,1.021.251,2.054.312,3.09.167,2.791-.018,2.358-1.985,4.453a162.943,162.943,0,0,0-10.682,12.61c-1.719,0-3.437-.017-5.155-.086Z" transform="translate(-71.618 -106.919)" fill="#ff8e5b"/>
              <path id="Trazado_197429" data-name="Trazado 197429" d="M91.854,326c.041.063.073.128.116.19a23.659,23.659,0,0,0,5.529,5.39,51.931,51.931,0,0,0,5.663,3.619q-8.344,5.693-16.753,11.291c-2.721,1.8-5.444,3.628-8.2,5.4a13.32,13.32,0,0,0,.6-4.781c-.315-5.138-3.186-10.941-8.024-13.221Q81.332,329.975,91.854,326Z" transform="translate(-54.412 -171.025)" fill="#ffdbaa"/>
              <path id="Trazado_197430" data-name="Trazado 197430" d="M50.612,347a9.287,9.287,0,0,1,5.063-4.584c.036-.011.069-.014.1-.027l.248-.092a8.709,8.709,0,0,1,3.43-.509c4.768.329,7.824,5.6,8.528,9.853.626,3.782-.436,7.37-3.533,9.712a7.683,7.683,0,0,1-10.327-.82c-3.259-3.329-5.194-9.008-3.514-13.534Z" transform="translate(-46.84 -176.766)" fill="#ff5671"/>
              <path id="Trazado_197431" data-name="Trazado 197431" d="M233.811,183.047a99.625,99.625,0,0,0-10.576-3.1c-5.423-1.4-10.887-2.656-16.364-3.831-4.061-.87-8.133-1.708-12.223-2.428-2.379-.418-5.739-1.445-7.917.488-1.825,1.619-2.045,4.788-2.334,7.039a49.947,49.947,0,0,0-.352,9.886c.175,2.442.61,5.248,2,7.334,1.095,1.645,2.8,2.015,4.68,1.906,3.7-.214,7.566-1.742,11.1-2.783q7.236-2.132,14.426-4.417c4.6-1.462,9.2-2.955,13.736-4.618,1.439-.528,2.9-1.047,4.285-1.7,2.229-1.043,1.826-2.9-.461-3.78Zm-16.966,2.788c-.306,1.146-1.469,1.583-2.459,1.984-2.393.967-4.869,1.742-7.327,2.523q-3.554,1.13-7.136,2.175c-1.811.526-3.906,1.371-5.8.955-2.461-.54-3.1-3.381-3.267-5.538a22.9,22.9,0,0,1,.219-4.9,6.37,6.37,0,0,1,1.277-3.569c1.237-1.324,3.028-1.159,4.647-.891,1.969.325,3.925.733,5.876,1.151a86.678,86.678,0,0,1,11.18,2.795c2.483.892,3.188,1.845,2.794,3.317Z" transform="translate(-95.615 -115.324)" fill="#ffdbaa"/>
              <path id="Trazado_197432" data-name="Trazado 197432" d="M216.839,190.919c-1.943.691-3.9,1.325-5.871,1.946s-3.951,1.227-5.935,1.81a23.192,23.192,0,0,1-4.594,1.168c-1.769.133-2.4-1.253-2.647-2.744a16.3,16.3,0,0,1,.28-6.951c.51-2.1,2.428-1.792,4.371-1.439,1.809.327,3.61.7,5.407,1.091a79.555,79.555,0,0,1,10.63,2.653c2.153.794.905,1.558-1.642,2.466Z" transform="translate(-100.57 -119.48)" fill="#aee0ed"/>
              <g id="Grupo_133566" data-name="Grupo 133566" transform="translate(3.155 70.544)">
                <path id="Trazado_197433" data-name="Trazado 197433" d="M55.448,202.823a15.083,15.083,0,0,0,3.893,7.544,7.682,7.682,0,0,0,10.326.82c3.1-2.342,4.16-5.929,3.533-9.711a13.783,13.783,0,0,0-4.558-8.261,13.151,13.151,0,0,1,2.809,7.211,7.487,7.487,0,0,1-3.764,7.385,8.579,8.579,0,0,1-7.071.732c-2.63-.884-4.129-3.231-5.167-5.719Z" transform="translate(-51.981 -193.215)" fill="#df3f58"/>
                <path id="Trazado_197434" data-name="Trazado 197434" d="M50,351.747a14.815,14.815,0,0,0,4.13,10.02,7.683,7.683,0,0,0,10.327.82c3.1-2.342,4.159-5.93,3.533-9.712a14.212,14.212,0,0,0-3.923-7.715c2.8,5.276,2.91,12.278-3.193,14.823-3.39,1.415-6.942-1.48-8.861-3.979A10.956,10.956,0,0,1,50,351.747Z" transform="translate(-49.996 -248.545)" fill="#df3f58"/>
                <path id="Trazado_197435" data-name="Trazado 197435" d="M403.731,199.761a21.477,21.477,0,0,1,2.187,9.863c-.046,2.071-1.284,5.372-3.285,6.412q.867,2.119,1.806,4.209c1.2,2.648,1.787,2.711,2.757-1.634a25.6,25.6,0,0,0-1.182-15.033,15.19,15.19,0,0,0-2.283-3.817Z" transform="translate(-178.407 -195.599)" fill="#df3f58"/>
                <path id="Trazado_197436" data-name="Trazado 197436" d="M362.5,365.839c0,.318.017.636,0,.954a16.721,16.721,0,0,1-1.441,5.868,25.756,25.756,0,0,0,2.067-2.084c3.657-4.17,3.97-10.149,1.974-15.171a16.277,16.277,0,0,1-.428,5.379,16.933,16.933,0,0,1-2.169,5.054Z" transform="translate(-163.267 -252.276)" fill="#df3f58"/>
                <path id="Trazado_197437" data-name="Trazado 197437" d="M370.444,233.877c-2.036,1.474-3.643.638-4.894-.937a15.054,15.054,0,0,0,6.738,8.289c2.631,1.443,2.479.956,1.447-2.289a35.8,35.8,0,0,1-1.509-6.789,9.119,9.119,0,0,1-1.782,1.726Z" transform="translate(-164.904 -207.393)" fill="#df3f58"/>
                <path id="Trazado_197438" data-name="Trazado 197438" d="M268.419,407.2c3.1-2.342,4.16-5.929,3.533-9.712a14.218,14.218,0,0,0-3.921-7.712,6.831,6.831,0,0,0-2.346-1.415,12.213,12.213,0,0,1,2.1,2.386c2.461,3.668,2.774,9.189-.319,12.516-2.945,3.169-7.775,1.679-10.428-.943-2.21-2.184-2.942-5.46-2.737-8.592-1.149,4.361.74,9.535,3.792,12.653a7.683,7.683,0,0,0,10.326.819Z" transform="translate(-124.269 -264.277)" fill="#df3f58"/>
              </g>
              <path id="Trazado_197439" data-name="Trazado 197439" d="M68.547,197.253c-2.47-3.123-8.586.122-7.265,4.925a4.416,4.416,0,0,0,6.259,2.692C70.619,203.5,70.329,199.508,68.547,197.253Z" transform="translate(-50.883 -123.692)" fill="#ff9780"/>
              <path id="Trazado_197440" data-name="Trazado 197440" d="M63.185,346.751c-2.47-3.123-8.585.121-7.265,4.924a4.416,4.416,0,0,0,6.259,2.692c3.079-1.369,2.789-5.361,1.006-7.616Z" transform="translate(-48.931 -178.132)" fill="#ff9780"/>
              <path id="Trazado_197441" data-name="Trazado 197441" d="M266.8,393.418c-2.47-3.123-8.586.121-7.265,4.924a4.417,4.417,0,0,0,6.259,2.692c3.078-1.37,2.789-5.362,1.006-7.616Z" transform="translate(-123.076 -195.125)" fill="#ff9780"/>
              <path id="Trazado_197442" data-name="Trazado 197442" d="M357.924,347.6a16.318,16.318,0,0,0-1.291-1.813,11.964,11.964,0,0,0-10.3-4.358c-.4.015-.8.048-1.195.086a14.085,14.085,0,0,1,2.207,1.08,17.6,17.6,0,0,1,10.576,5Z" transform="translate(-154.317 -176.636)" fill="#ff9780"/>
              <path id="Trazado_197443" data-name="Trazado 197443" d="M367.219,197.689a22.275,22.275,0,0,0-3.6,10.71c1.787-5.605,5.417-10.731,10.618-13.317a19.037,19.037,0,0,1,10.866-1.876,12.878,12.878,0,0,0-5.176-1.457A14.65,14.65,0,0,0,367.219,197.689Z" transform="translate(-161.045 -122.127)" fill="#ff9780"/>
              <path id="Trazado_197444" data-name="Trazado 197444" d="M411.176,124.308a28.724,28.724,0,0,1-.7-3.187,47.781,47.781,0,0,1-.558-5.118,13.512,13.512,0,0,1-3.271,1.646,8.427,8.427,0,0,1-8.061-1.848,6.037,6.037,0,0,1-1.546-2.082c-.2,1.51-.37,3.018-.584,4.5,4.951,1.854,9.915,3.839,14.723,6.092Z" transform="translate(-173.002 -93.722)" fill="#cf7e0d"/>
              <path id="Trazado_197445" data-name="Trazado 197445" d="M120.707,241.32a25.187,25.187,0,0,0-.991,10.322,40.925,40.925,0,0,1,.76-5.182c1.2-5.593,3.712-11.33,8.106-15.144,9.531-7.927,25.1-5.59,35.424-.525q1.091.536,2.138,1.136a26.733,26.733,0,0,1,7.469,6.156,23.988,23.988,0,0,1,4.649,10.05,31.637,31.637,0,0,1-3.135,22.67,22.883,22.883,0,0,1-6.448,7.27c8.863-5.235,12.542-17.408,11.835-27.371a27.879,27.879,0,0,0-9.343-19.062c-5.246-4.5-12.72-7-19.491-7.845-7.047-.882-14.414-.189-20.532,3.665a25.919,25.919,0,0,0-10.443,13.86Z" transform="translate(-72.175 -133.682)" fill="#cf7e0d"/>
              <path id="Trazado_197446" data-name="Trazado 197446" d="M246.738,151.412c-10.2,9.316-19.238,19.966-27.667,30.882a332.618,332.618,0,0,0-22.99,33.539c-6.556,11.058-11.56,22.94-16.284,34.874-3.165,8-5.238,20.143-15.6,20.96-8.729.689-17.9-1.28-26.266-3.568-8.84-2.42-17.493-6.033-24.73-11.74a23.091,23.091,0,0,1-8.135-12.341c.032.968.076,1.937.15,2.9.21,2.76.324,5.771,1.7,7.908,2.7,4.2,8.092,7.132,12.54,9.395a108.129,108.129,0,0,0,20.512,7.719,93.4,93.4,0,0,0,20.958,3.548,37.407,37.407,0,0,0,8.5-.474c5.245-1.01,7.033-3.224,8.2-7.966,1.024-4.159,2.278-8.259,3.684-12.3A217.578,217.578,0,0,1,192.77,228.1a292.029,292.029,0,0,1,34.98-53.6c11.8-14.346,25.361-28.406,41.664-37.632.808-.457,1.626-.889,2.449-1.313.159-.081.272-.156.406-.235a43.184,43.184,0,0,0-12.446,5.774,93.486,93.486,0,0,0-13.085,10.32Z" transform="translate(-66.896 -101.588)" fill="#cf7e0d"/>
              <path id="Trazado_197447" data-name="Trazado 197447" d="M445.142,202.488a12.2,12.2,0,0,0-7.714-2.7,33.776,33.776,0,0,1,7.725,5.568,43.718,43.718,0,0,1,6.739,7.473,56.027,56.027,0,0,0,1.071-7.181,11.3,11.3,0,0,1-1.155.189C449.215,206.073,447.019,203.934,445.142,202.488Z" transform="translate(-187.923 -125.061)" fill="#cf7e0d"/>
              <path id="Trazado_197448" data-name="Trazado 197448" d="M292.412,126.739a136.864,136.864,0,0,0-23.136,15.288,102.416,102.416,0,0,0-11.887,11.084c9.114-7.955,18.272-15.8,28.873-21.831,7.251-4.122,14.609-6.858,23.017-7.031a60.289,60.289,0,0,1,11.559,1.01c-3.67-1.122-7.49-1.9-11.133-2.657-4.685-.978-8.57-.4-17.293,4.137Z" transform="translate(-122.362 -96.81)" fill="#facb1a"/>
              <path id="Trazado_197449" data-name="Trazado 197449" d="M445.218,185.994c-3.088-.772-6.354-.411-9.521-.684-.046.622-.1,1.242-.149,1.864,4.725-.406,9.286-.4,13.3,2.7a15.208,15.208,0,0,1,3.208,3.489A9.669,9.669,0,0,0,445.218,185.994Z" transform="translate(-187.238 -119.792)" fill="#facb1a"/>
              <path id="Trazado_197450" data-name="Trazado 197450" d="M400.316,95.486c-.061.154-.107.313-.164.468a21.346,21.346,0,0,1,12.569-5.918,22.31,22.31,0,0,1,.951-2.556c-.372-.065-.743-.144-1.115-.189-5.779-.714-10.187,3-12.24,8.2Z" transform="translate(-174.349 -84.067)" fill="#ffdbaa"/>
              <path id="Trazado_197451" data-name="Trazado 197451" d="M182.573,134.008a110.443,110.443,0,0,1,37.048-14.96c1.984-1.08,4.007-2.091,6.083-2.967a74.026,74.026,0,0,0-8.464.673,70.9,70.9,0,0,0-11.574,2.744c-17.9,5.821-33.713,17.55-46.87,30.765a166.961,166.961,0,0,0-14.429,16.519,1.607,1.607,0,0,1-.277.356c-1.347,1.776-2.642,3.59-3.912,5.422,11.939-15.056,25.788-28.28,42.395-38.552Z" transform="translate(-79.68 -94.583)" fill="#facb1a"/>
              <path id="Trazado_197452" data-name="Trazado 197452" d="M86.713,189.117c-.7-.793-1.384-1.668-2.117-2.487a17.973,17.973,0,0,1,2.474,7.941,13.316,13.316,0,0,1-.608,4.793c3.726-2.374,7.389-4.859,11.05-7.3q9.209-6.144,18.332-12.419,1.619-1.11,3.235-2.224a6.893,6.893,0,0,0,2.556-2.309,5.172,5.172,0,0,0,.018-4.179c-1.1,2.9-3.261,4.757-6.441,6.65-4.44,2.642-8.632,5.661-13.028,8.377-4.144,2.56-11.3,7.917-15.472,3.16Z" transform="translate(-59.44 -114.556)" fill="#ee9e2b"/>
              <path id="Trazado_197453" data-name="Trazado 197453" d="M87.836,350.76q8.42-5.58,16.753-11.291-1.494-.835-2.934-1.748c-2.6,3.643-8.089,6.263-11.583,7.633a11.556,11.556,0,0,1-6.24.874c-2.4-.413-3.773-2.558-5.3-4.194a8.543,8.543,0,0,0-3.819-2.267,17.021,17.021,0,0,1,5.531,11.609,13.287,13.287,0,0,1-.6,4.78C82.393,354.388,85.115,352.564,87.836,350.76Z" transform="translate(-55.84 -175.292)" fill="#ee9e2b"/>
              <path id="Trazado_197454" data-name="Trazado 197454" d="M299.007,384.89c-1.937,1.09-3.852,2.217-5.823,3.247a21.447,21.447,0,0,1-3.661,1.48c-2.37.725-3.612-1.234-4.673-2.824a20.308,20.308,0,0,0-3.125-3.813,17.733,17.733,0,0,1,3.593,9.576,13.315,13.315,0,0,1-.608,4.793c19.572-13.116,31.54-21.2,32.617-21.945a6.9,6.9,0,0,0,2.556-2.309,4.281,4.281,0,0,0,.407-1.6c-.011.025-.02.05-.033.075-1.237,2.5-4.968,4.129-7.3,5.484C308.345,379.728,303.655,382.274,299.007,384.89Z" transform="translate(-131.224 -187.589)" fill="#ee9e2b"/>
              <path id="Trazado_197455" data-name="Trazado 197455" d="M350.368,226.331c1.653,5.012,5.91,8.258,10.8,10.039a17.031,17.031,0,0,1-3.387-4.689c-4.369-2.623-7.173-7.623-8.488-13.068a22.482,22.482,0,0,0,1.076,7.717Z" transform="translate(-155.824 -131.92)" fill="#ee9e2b"/>
              <path id="Trazado_197456" data-name="Trazado 197456" d="M186.087,205.878c1.095,1.645,2.8,2.015,4.68,1.906,3.7-.214,7.566-1.742,11.1-2.784q7.236-2.131,14.426-4.417c4.6-1.462,9.2-2.954,13.736-4.618,1.439-.528,2.9-1.047,4.285-1.7a3.089,3.089,0,0,0,1.076-.792c-9.051,3.025-18.2,5.8-27.334,8.555-5.321,1.607-11.742,3.87-17.358,3.008-3.868-.594-5.688-3.754-6.645-7.3.014.268.014.537.034.8.174,2.442.609,5.248,2,7.334Z" transform="translate(-95.658 -122.766)" fill="#ee9e2b"/>
              <path id="Trazado_197457" data-name="Trazado 197457" d="M172.08,300.372a39.9,39.9,0,0,0,9-2.076C189.622,295.2,194,287.148,194.837,278.6c-2.552,6.9-8.517,12.686-15.374,15.98-.4.493-.818.971-1.258,1.427a21.57,21.57,0,0,1-6.125,4.363Z" transform="translate(-91.297 -153.764)" fill="#ee9e2b"/>
              <path id="Trazado_197458" data-name="Trazado 197458" d="M196.613,252.105c-.189-.719-.4-1.429-.641-2.122-2.477-7.12-9.275-11.634-16.663-13.864a21.424,21.424,0,0,1,3.179,3.12C188.488,241.44,193.416,246.33,196.613,252.105Z" transform="translate(-93.93 -138.294)" fill="#fbe134"/>
              <path id="Trazado_197459" data-name="Trazado 197459" d="M276.916,377.107c2.618-1.167,5.179-2.47,7.838-3.551,4.027-1.637,8.193-2.968,12.278-4.452,3.549-1.29,7-2.809,10.534-4.148a16.493,16.493,0,0,1,9.175-.825,5.8,5.8,0,0,0-2.233-2.1c-1.518-.751-2.838-.285-4.319.3-1.805.713-29.705,11.276-35.453,13.409a11.308,11.308,0,0,1,2.182,1.366Z" transform="translate(-128.678 -184.003)" fill="#fbe134"/>
              <path id="Trazado_197460" data-name="Trazado 197460" d="M223.513,179.95c-5.423-1.4-10.887-2.657-16.364-3.832-4.061-.87-8.133-1.708-12.223-2.428-2.379-.418-5.739-1.445-7.917.488-1.771,1.572-2.03,4.6-2.308,6.831a16.28,16.28,0,0,1,2.805-4.137c2.832-3.031,7.962-2.07,11.51-1.309,5.089,1.092,10.159,2.264,15.255,3.325,6.952,1.447,13.906,2.88,20.769,4.67a4.394,4.394,0,0,0-.951-.511,99.43,99.43,0,0,0-10.576-3.1Z" transform="translate(-95.893 -115.325)" fill="#fbe134"/>
              <path id="Trazado_197461" data-name="Trazado 197461" d="M93.08,172.809c-5.737,2.161-11.487,4.288-17.234,6.421a11.506,11.506,0,0,1,2.7,1.8c1.883-2.13,5.13-3.175,7.628-4.275,3.146-1.384,6.35-2.639,9.541-3.913q5.4-2.155,10.845-4.169,2.173-.807,4.363-1.57a14.484,14.484,0,0,1,5.819-.78,5.125,5.125,0,0,0-1.125-.8c-1.518-.751-2.838-.285-4.32.3q-2.708,1.07-5.424,2.116Q99.489,170.4,93.08,172.809Z" transform="translate(-56.254 -112.444)" fill="#fbe134"/>
              <path id="Trazado_197462" data-name="Trazado 197462" d="M97.474,329.429a18.994,18.994,0,0,1-2.9-3.236c-.043-.062-.074-.127-.116-.19q-8.249,3.125-16.521,6.182A70.159,70.159,0,0,1,97.474,329.429Z" transform="translate(-57.015 -171.025)" fill="#fbe134"/>
              <path id="Trazado_197463" data-name="Trazado 197463" d="M353.742,199.048a22.46,22.46,0,0,1,8.881-4.969,15.983,15.983,0,0,1,2.579-2.262,30.454,30.454,0,0,0-4.077,1.16,14.458,14.458,0,0,0-7.383,6.07Z" transform="translate(-157.449 -122.162)" fill="#fbe134"/>
              <path id="Trazado_197464" data-name="Trazado 197464" d="M339.008,117.671c4.088.82,8.146,1.778,12.13,2.972a46.2,46.2,0,0,1,7.781,2.94c3.757,1.918,4.179,3.912,5.03,7.465a31.815,31.815,0,0,1,.628,3.522c4.808-2.257,10.293-3.26,15.471-4.022a105.832,105.832,0,0,1,10.541-1.126c-1.761-.831-3.541-1.616-5.321-2.391-2.768.344-5.522.824-8.234,1.3-3.006.523-10.186,3.091-11.536-.664-.552-1.536-.865-3.466-2.358-4.441-3.029-1.981-7.225-2.765-10.667-3.628A55.062,55.062,0,0,0,339.008,117.671Z" transform="translate(-152.083 -95.161)" fill="#f3af79"/>
              <path id="Trazado_197465" data-name="Trazado 197465" d="M151.868,278.543c6.093-2.031,8.87-8.491,9.458-14.451.629-6.377-.794-14.6-7.148-17.7a11.54,11.54,0,0,0-4.043-1.066c5.423,4.953,6.014,15.958,4.038,22.1-2.178,6.769-9.989,9.778-15.3,4.53-.2-.2-.374-.412-.552-.624,2.139,5.513,7.63,9.194,13.551,7.22Z" transform="translate(-79.002 -141.646)" fill="#f3af79"/>
              <path id="Trazado_197466" data-name="Trazado 197466" d="M396.433,259.805a137.358,137.358,0,0,1-6.064-12.433c-2.259-5.021-4.417-10.1-6.355-15.25-1.885-5.015-2.779-9.7-1.871-14.632a14.75,14.75,0,0,0-1.413,5.344c-.322,3.98.837,7.791,2.112,11.514,1.4,4.079,3.067,8.062,4.794,12.009,3.169,7.24,6.645,14.368,9.515,21.736q3.261-1.275,6.549-2.5a13.337,13.337,0,0,1-7.267-5.786Z" transform="translate(-167.257 -131.51)" fill="#f3af79"/>
              <path id="Trazado_197467" data-name="Trazado 197467" d="M150.532,258.911c-1.6-6.834-5.58-6.583-7.607-.706a18.941,18.941,0,0,0-.649,7.869c.368,3.539,2.411,6.92,6.329,4.766,3.751-2.062,2.7-8.636,1.927-11.929Z" transform="translate(-80.394 -144.729)" fill="#fff7cf"/>
              <path id="Trazado_197468" data-name="Trazado 197468" d="M403.876,251.386c-3.226-6.457-6.713-12.761-9.439-19.458-1.159-2.847-2.245-5.728-3.38-8.585-2.126-5.358-4.4-3.483-3.518,1.674,1.309,7.671,8.353,24.812,13.324,32.045,4.725,6.879,7.46,3.225,3.013-5.676Z" transform="translate(-169.685 -132.471)" fill="#fff7cf"/>
              <path id="Trazado_197469" data-name="Trazado 197469" d="M144.525,171.05a8.908,8.908,0,0,0-4.065-6.343c.028.032.061.061.088.093,2.172,2.658,3.1,6.637,1.332,9.752-1.345,2.365-4.406,3.853-6.594,5.356q-.708.486-1.42.969c-1.227.834-1.272,1.1.593,1.175,1.717.069,3.436.083,5.155.086q2.3-3.014,4.747-5.915a16.976,16.976,0,0,0,.163-5.174Z" transform="translate(-77.064 -112.29)" fill="#ff564d"/>
              <path id="Trazado_197470" data-name="Trazado 197470" d="M334.755,229.348c1.1,6.282,3.814,12.231,8.871,16.141,5.8,4.483,13.123,4.618,19.36,1.509,2.077-1.035,1.425-1.88-.511-2.07a31.645,31.645,0,0,1-3.533-.558,22.631,22.631,0,0,1-12.929-1.279c-4.059-1.774-7-5.32-9.2-9.041A22.429,22.429,0,0,1,334.755,229.348Z" transform="translate(-150.535 -135.828)" fill="#cf7e0d"/>
              <path id="Trazado_197471" data-name="Trazado 197471" d="M366.674,377.976c4.172-4.139,5.269-9.792,4.462-15.434a22.9,22.9,0,0,1-3.8,9.481,19.751,19.751,0,0,1-10.61,7.535,26.16,26.16,0,0,1-6.6,3.557c5.87,1.471,12.182-.8,16.553-5.139Z" transform="translate(-156.13 -184.33)" fill="#ff564d"/>
              <path id="Trazado_197472" data-name="Trazado 197472" d="M143.431,151.008a38.726,38.726,0,0,0-4-.6,82.156,82.156,0,0,0-10.382-.432c-1.235.027-2.645.038-4.024.158-2.476.216-4.854.85-5.673,3.9-.216.8-.382,1.613-.527,2.429,3.525-3.167,7.869-4.718,13.166-5.25a93.961,93.961,0,0,1,11.773-.123c-.111-.026-.212-.053-.334-.079Z" transform="translate(-71.905 -106.919)" fill="#fbc471"/>
              <path id="Trazado_197473" data-name="Trazado 197473" d="M367.364,183.479a29.362,29.362,0,0,1,9.692.068,19.1,19.1,0,0,0-7.017-4.425c-4.551-1.654-5.73-1.162-9.142,1.721q-2.28,1.927-4.566,3.841A27.67,27.67,0,0,1,367.364,183.479Z" transform="translate(-158.391 -117.196)" fill="#ffdbaa"/>
              <path id="Trazado_197474" data-name="Trazado 197474" d="M330.018,336.2a26.884,26.884,0,0,1,4.492-1.8c4.359-3.043,9.741-4.549,14.905-3.2a24.274,24.274,0,0,1,7.738,3.706c-.477-.586-.967-1.145-1.471-1.668-3.927-4.083-9.453-6.349-15.1-4.984a17.563,17.563,0,0,0-10.566,7.946Z" transform="translate(-148.81 -171.699)" fill="#fbc471"/>
              <path id="Trazado_197475" data-name="Trazado 197475" d="M167.353,154.911c.1.8.186,1.6.252,2.4q4.417-4.309,9.132-8.264c1.517-1.269,3.076-2.512,4.656-3.735-1.052.654-2.105,1.306-3.169,1.941-3.172,1.894-7.736,4.851-11.566,3.888a28.829,28.829,0,0,1,.694,3.768Z" transform="translate(-89.323 -105.228)" fill="#1689a7"/>
              <path id="Trazado_197476" data-name="Trazado 197476" d="M345.116,264.917c-12.466,5.086-25.61,9.006-38.516,12.557-6.011,1.655-13.706,3.2-19.571.163-3.787-1.959-4.218-6.086-3.572-10.335-.527.937-1.061,1.871-1.574,2.817a192.008,192.008,0,0,0-8.676,18.173c-.56,1.352-1.1,2.72-1.655,4.086,3-1.284,6.068-2.435,9.133-3.548,21.6-7.845,43.78-13.967,65.479-21.514-.358-.8-.7-1.6-1.049-2.4Z" transform="translate(-127.52 -148.781)" fill="#1689a7"/>
              <path id="Trazado_197477" data-name="Trazado 197477" d="M343.311,374.786a13.594,13.594,0,0,0,4.589-11.213,19.62,19.62,0,0,0-4.44-11.435,23.78,23.78,0,0,1,2,7.528,11.973,11.973,0,0,1-1.234,6.881,5.226,5.226,0,0,1-5.376,2.578c-1.543,1.611-3.807,2.8-5.538,3.987-1.264.867-2.533,1.726-3.8,2.59,3.992,3.158,10.063,2.383,13.8-.916Z" transform="translate(-148.627 -180.542)" fill="#1689a7"/>
              <path id="Trazado_197478" data-name="Trazado 197478" d="M423.828,147.987c-.062-1.168-.1-2.271-.232-3.354-.307-2.544-.739-3.68-4.49-3.622-.887.013-1.776.057-2.664.1,3.343,3.7,3.95,9.543,4.436,14.575a125.346,125.346,0,0,1,.073,21c-.428,5.962-1.174,11.92-2.1,17.824-.458,2.927-.832,6.006-2.224,8.658-1.735,3.3-3.87,2.292-5.584.35-.271.575-.554,1.14-.865,1.677,1.022,2.093,2.069,4.176,3.123,6.254,1.822,3.588,3.237,3.466,4.682-2.168.911-3.554,1.535-7.184,2.108-10.805,1.392-8.792,2.342-17.661,3.027-26.535a184.576,184.576,0,0,0,.708-23.952Z" transform="translate(-178 -103.66)" fill="#1689a7"/>
              <path id="Trazado_197479" data-name="Trazado 197479" d="M213.9,152.811q2.887.591,5.767,1.213c4.613,1,9.215,2.06,13.791,3.221,1.6.405,1.84-.016,2.5-.935a68.278,68.278,0,0,1,7.609-8.761A133.34,133.34,0,0,1,265.2,130.4a110.858,110.858,0,0,1,19.544-10.261c-.284-.046-.567-.085-.85-.13a68.539,68.539,0,0,0-15.117,6.35,121.3,121.3,0,0,0-18.215,12.419c-2.2,1.777-4.282,3.637-6.295,5.624-3.429,3.387-7.424,8.244-12.3,9.423-5.837,1.41-12.208-2.437-18.069-1.019Z" transform="translate(-106.524 -96.014)" fill="#1689a7"/>
              <path id="Trazado_197480" data-name="Trazado 197480" d="M153.771,236.489a22.545,22.545,0,0,1,5.651,6.64,29.17,29.17,0,0,1,3.33,13.956c.048,8.786-4.29,18.037-12.168,22.354-7.729,4.236-17.919.431-21.873-7.107-3.6-6.865-4.23-14.457-3.073-21.853-.292,1.134-.543,2.273-.727,3.406-1.033,6.378-.483,13.554,2.372,19.422a19.109,19.109,0,0,0,22.942,10.165,19.43,19.43,0,0,0,10.283-7.29,29.79,29.79,0,0,0,5.038-14.668c.725-9.675-2.477-20.7-11.775-25.025Z" transform="translate(-73.945 -138.429)" fill="#1689a7"/>
              <path id="Trazado_197481" data-name="Trazado 197481" d="M277.676,120.592c-3.871-.476-7.779-1.022-11.629-.413-5.329.842-10.335,4.108-14.748,7.012a141.973,141.973,0,0,0-13.252,10.04c-2.411,2.031-7.838,5.473-7.12,9.26.5,2.63,5.086,2.546,6.951,2.559,4.57.032,8.494-6.06,11.334-8.879a86.6,86.6,0,0,1,14.917-11.794,65.224,65.224,0,0,1,13.6-6.2c2.111-.731,2.615-1.254-.048-1.583Z" transform="translate(-112.702 -95.976)" fill="#a6f4ff"/>
              <path id="Trazado_197482" data-name="Trazado 197482" d="M335.32,346.751a5.331,5.331,0,0,1,1.6.539c-.051-.039-.094-.088-.144-.127-3.786-2.9-8.736-2.639-12.74-.329a13.483,13.483,0,0,0-4.46,3.993,10.664,10.664,0,0,0-1.693,5.223c.677-.26,1.351-.524,2.028-.782,1.061-4.068,3.931-6.2,8.124-7.694A15.178,15.178,0,0,1,335.32,346.751Z" transform="translate(-144.39 -177.959)" fill="#a6f4ff"/>
              <path id="Trazado_197483" data-name="Trazado 197483" d="M154.256,137.982c-2.538.251-5.075.276-7.6.452,1.674.114,3.344.272,5,.5a14.808,14.808,0,0,1,5.143,1.253c10.976-4.381,21.722-9.592,32.867-13.581-.879-.072-1.759-.127-2.639-.172-.986-.051-1.973-.091-2.962-.114q-7.556,3.4-15.136,6.748c-4.856,2.157-9.315,4.387-14.674,4.915Z" transform="translate(-82.038 -98.311)" fill="#1689a7"/>
              <path id="Trazado_197484" data-name="Trazado 197484" d="M253.519,248.95c-2.879,6.9-5.833,13.34-10.574,19.19-.375.463-.78.895-1.171,1.34a47.249,47.249,0,0,0,6.751-4.976c5.07-4.611,7.547-11.172,9.758-16.614,1.215-2.987,2.385-6,3.708-8.924q3.953-8.76,8.753-17.1a195.465,195.465,0,0,1,22-30.877,185.937,185.937,0,0,1,13.263-13.741c4.633-4.328,9.713-8.115,14.4-12.372,1.866-1.7,4.19-3.747,5.108-6.156a18.3,18.3,0,0,0,.839-6.3c.01-1.246-.005-2.558-.079-3.888a26.165,26.165,0,0,1-6.718,12.536c-5.359,5.816-11.726,10.827-17.553,16.165a178.476,178.476,0,0,0-28.994,33.888,230.928,230.928,0,0,0-19.493,37.828Z" transform="translate(-116.676 -106.399)" fill="#1689a7"/>
              <path id="Trazado_197485" data-name="Trazado 197485" d="M210.983,195.326c1.966-.621,3.928-1.255,5.871-1.946,2.226-.793,3.459-1.476,2.3-2.166a54.039,54.039,0,0,1-10.912,1.829c-2.907.2-7.269.8-10.655-.029a17.715,17.715,0,0,0,.222,2.547c.243,1.492.877,2.877,2.646,2.744a23.192,23.192,0,0,0,4.594-1.168Q208.024,196.261,210.983,195.326Z" transform="translate(-100.585 -121.942)" fill="#1689a7"/>
              <path id="Trazado_197486" data-name="Trazado 197486" d="M422.965,328.684c4.488-4.036,6.121-7.324,4.665-13.749a26.1,26.1,0,0,1-6.536,11.921c-5.725,6.16-13.435,10.348-20.753,14.3-4.087,2.208-10.914,5.884-14.913,1.848-2.429-2.452-3.312-6.383-5.193-9.25a28.625,28.625,0,0,0-11.492-10.261c7.619,5.372,12.236,16.02,12.466,24.864A19.654,19.654,0,0,1,378.552,359c1.641-.957,3.266-1.937,4.883-2.918,5.342-3.242,10.6-6.619,15.8-10.082s10.367-7.025,15.4-10.747c2.823-2.087,5.7-4.2,8.327-6.566Z" transform="translate(-162.911 -166.995)" fill="#1689a7"/>
              <path id="Trazado_197487" data-name="Trazado 197487" d="M439.841,227.7c-5.775-1.329-7.041-6.1-7.765-10.993q-.516,4.178-1.146,8.339c1.7,1.23,3.346,2.531,5.045,3.762s3.616,2.658,5.716,3.133c2.635.6,4.295-1.644,5.361-4.137.247-.577.457-1.12.636-1.646a9.835,9.835,0,0,1-7.847,1.541Z" transform="translate(-185.556 -131.226)" fill="#1689a7"/>
              <path id="Trazado_197488" data-name="Trazado 197488" d="M422.28,118.849c1.583.783,3.148,1.595,4.684,2.449,1.6.891,2.041.958,4.055-.172a37.192,37.192,0,0,0,5.506-3.745c2.292-1.894,4.8-4.1,5.959-6.912a7.035,7.035,0,0,0-.586-6.249,18.938,18.938,0,0,1-1.983,4.76c-2.285,3.907-7.033,7.9-11.818,6.827-4.94-1.106-6.063-8.8-6.506-12.9a67.554,67.554,0,0,1-.261-7.318c-.122.484-.237,1-.338,1.6a53.46,53.46,0,0,0-.588,8.717,48.408,48.408,0,0,0,.621,8.254,21.336,21.336,0,0,0,1.256,4.693Z" transform="translate(-181.723 -87.119)" fill="#1689a7"/>
              <path id="Trazado_197489" data-name="Trazado 197489" d="M439.953,104.861c-.511-2.164-3.545-3.93-5.225-5.088-4.657-3.214-7.593-2.9-7.368,3.055a19.8,19.8,0,0,0,1.717,7.57c2.047,4.265,6.395.8,8.678-1.314,1.108-1.026,2.585-2.582,2.2-4.223Z" transform="translate(-184.252 -87.905)" fill="#18a9cd"/>
              <path id="Trazado_197490" data-name="Trazado 197490" d="M445.427,214.262a26.132,26.132,0,0,0-2.683-2.48c-1.476-1.119-2.484-.11-2.531,1.265a11.749,11.749,0,0,0,2.6,7.8c1.164,1.335,5.354,2.6,6.219.231.881-2.412-2.134-5.306-3.607-6.816Z" transform="translate(-188.935 -129.257)" fill="#18a9cd"/>
              <path id="Trazado_197491" data-name="Trazado 197491" d="M422.554,303.646c-2.953-2.493-7.129-2.426-10.707-1.8-4.9.865-9.772,3.047-14.321,4.984A115.768,115.768,0,0,0,386.6,312.1c-4.613,2.566-2.647,3.9-.005,5.07,3.41,1.506,6.268,4.457,8.782,7.29,2.985,3.364,6.1,5.262,10.64,3.967,4.371-1.246,8.336-4.682,11.976-7.306,2.9-2.089,6.406-4.755,7.693-8.237C427.046,309.208,425.427,306.07,422.554,303.646Z" transform="translate(-168.405 -162.095)" fill="#18a9cd"/>
              <path id="Trazado_197492" data-name="Trazado 197492" d="M172.855,126.659c-.448.038-.9.062-1.344.111-4.578.5-9.1,2.021-13.472,3.412a207.06,207.06,0,0,0-21.457,8.18q1.406-.011,2.814.022c5.742-3.145,12.584-4.691,18.627-7.031a142.265,142.265,0,0,1,14.831-4.695Z" transform="translate(-78.371 -98.435)" fill="#18a9cd"/>
              <path id="Trazado_197493" data-name="Trazado 197493" d="M282.749,173.1c11.072-12.481,22.919-24.168,37.629-32.233a24.056,24.056,0,0,0-.583-2.628c-.181.106-.364.207-.547.3a88.534,88.534,0,0,0-10.635,6.277c-16.745,11.5-30.61,27.337-42.631,43.557a280.128,280.128,0,0,0-32.733,56.317,170.9,170.9,0,0,0-6.528,17.721c8.674-22.5,21.381-43.539,35.109-63.217A285.7,285.7,0,0,1,282.749,173.1Z" transform="translate(-111.194 -102.652)" fill="#18a9cd"/>
            </g>
          </g>
        </g>
      </g>
    </g>
  </g>
</svg>
