<svg xmlns="http://www.w3.org/2000/svg" width="190" height="90.333" viewBox="0 0 190 90.333">
  <g id="Grupo_134511" data-name="Grupo 134511" transform="translate(-7753 12650)">
    <g id="Grupo_134496" data-name="Grupo 134496">
      <g id="Grupo_134495" data-name="Grupo 134495" transform="translate(7573 -14379)">
        <rect id="Rectángulo_34350" data-name="Rectángulo 34350" width="190" height="90" transform="translate(180 1729)" fill="none"/>
        <circle id="Elipse_4967" data-name="Elipse 4967" cx="28" cy="28" r="28" transform="translate(180 1763)" fill="#afe1ed" style="mix-blend-mode: multiply;isolation: isolate"/>
        <ellipse id="Elipse_4968" data-name="Elipse 4968" cx="14" cy="13.5" rx="14" ry="13.5" transform="translate(342 1729)" fill="#ff9500" opacity="0.6" style="mix-blend-mode: multiply;isolation: isolate"/>
        <g id="modelado-3d" transform="translate(225 1706.554)">
          <path id="Trazado_114430" data-name="Trazado 114430" d="M200.893,391.492l5.43-12.6h10.453l5.43,12.6Z" transform="translate(-162.043 -287.51)" fill="#e8edf2"/>
          <path id="Trazado_114431" data-name="Trazado 114431" d="M233.482,383.239l-1.875-4.351H221.154l-1.875,4.351Z" transform="translate(-176.873 -287.51)" fill="#c5d3dd"/>
          <path id="Trazado_114432" data-name="Trazado 114432" d="M98.369,29.946H12.745A5.245,5.245,0,0,0,7.5,35.191V92.182a5.245,5.245,0,0,0,5.245,5.245H98.369a5.245,5.245,0,0,0,5.245-5.245V35.191a5.245,5.245,0,0,0-5.245-5.245Z" transform="translate(-6.05 -6.05)" fill="#0ca4ca"/>
          <path id="Trazado_114433" data-name="Trazado 114433" d="M457.884,29.946H453.21a5.245,5.245,0,0,1,5.245,5.245V92.182a5.245,5.245,0,0,1-5.245,5.245h4.674a5.245,5.245,0,0,0,5.245-5.245V35.191a5.245,5.245,0,0,0-5.245-5.245Z" transform="translate(-365.564 -6.05)" fill="#027cb3"/>
          <path id="Trazado_114434" data-name="Trazado 114434" d="M98.369,29.946H12.745A5.245,5.245,0,0,0,7.5,35.191v46.98a5.245,5.245,0,0,0,5.245,5.245H98.369a5.245,5.245,0,0,0,5.245-5.245V35.191A5.245,5.245,0,0,0,98.369,29.946Z" transform="translate(-6.05 -6.05)" fill="#e8edf2"/>
          <path id="Trazado_114435" data-name="Trazado 114435" d="M462.9,33.631a5.249,5.249,0,0,0-5.009-3.685h-4.673a5.245,5.245,0,0,1,5.243,5.245V87.384a5.245,5.245,0,0,0,4.674-5.213V35.191A5.252,5.252,0,0,0,462.9,33.631Z" transform="translate(-365.571 -6.05)" fill="#c5d3dd"/>
          <path id="Trazado_114436" data-name="Trazado 114436" d="M190.8,444.063H162.326a4.809,4.809,0,0,0-4.809,4.809v.941a1.6,1.6,0,0,0,1.6,1.6h34.9a1.6,1.6,0,0,0,1.6-1.6v-.941A4.809,4.809,0,0,0,190.8,444.063Z" transform="translate(-127.055 -340.081)" fill="#0ca4ca"/>
          <path id="Trazado_114437" data-name="Trazado 114437" d="M310.931,444.063h-4.48a4.809,4.809,0,0,1,4.809,4.809v.941a1.6,1.6,0,0,1-1.6,1.6h4.48a1.6,1.6,0,0,0,1.6-1.6v-.941A4.809,4.809,0,0,0,310.931,444.063Z" transform="translate(-247.187 -340.081)" fill="#027cb3"/>
          <path id="Trazado_114438" data-name="Trazado 114438" d="M49.122,110.226H42.354A1.354,1.354,0,0,1,41,108.872V74.532a1.354,1.354,0,0,1,1.354-1.354h6.769a1.354,1.354,0,0,1,1.354,1.354v34.341A1.354,1.354,0,0,1,49.122,110.226Z" transform="translate(-33.071 -40.921)" fill="#546e7a"/>
          <path id="Trazado_114439" data-name="Trazado 114439" d="M384.929,63.566h-18.6a.967.967,0,0,0-.967.967V80.3a.967.967,0,0,0,.967.967h18.6a.967.967,0,0,0,.967-.967V64.533A.967.967,0,0,0,384.929,63.566Z" transform="translate(-294.704 -33.168)" fill="#ff9500"/>
          <g id="Grupo_108327" data-name="Grupo 108327" transform="translate(0 22.446)">
            <path id="Trazado_114440" data-name="Trazado 114440" d="M92.32,22.446H6.7a6.7,6.7,0,0,0-6.7,6.7V86.133a6.7,6.7,0,0,0,6.7,6.7H18.179a1.45,1.45,0,1,0,0-2.9H6.7A3.8,3.8,0,0,1,2.9,86.133v-4.5A6.656,6.656,0,0,0,6.7,82.816H92.32a6.656,6.656,0,0,0,3.794-1.183v4.5a3.8,3.8,0,0,1-3.794,3.794H23.98a1.45,1.45,0,1,0,0,2.9h18.1l-4.181,9.7H35.271a6.266,6.266,0,0,0-6.259,6.259v.941a3.051,3.051,0,0,0,3.048,3.048h34.9A3.051,3.051,0,0,0,70,109.732v-.941a6.266,6.266,0,0,0-6.259-6.259H61.119l-4.181-9.7H92.32a6.7,6.7,0,0,0,6.7-6.7V29.141a6.7,6.7,0,0,0-6.7-6.7ZM67.1,108.791v.941a.147.147,0,0,1-.147.147h-34.9a.147.147,0,0,1-.147-.147v-.941a3.362,3.362,0,0,1,3.358-3.358H63.744a3.362,3.362,0,0,1,3.358,3.358Zm-9.142-6.259H41.054l4.181-9.7H53.78ZM92.32,79.915H6.7A3.8,3.8,0,0,1,2.9,76.121V29.141A3.8,3.8,0,0,1,6.7,25.347H92.32a3.8,3.8,0,0,1,3.794,3.794v46.98A3.8,3.8,0,0,1,92.32,79.915Z" transform="translate(0 -22.446)"/>
            <path id="Trazado_114441" data-name="Trazado 114441" d="M228.566,75.187l2.107-1.2v5.1a1.45,1.45,0,1,0,2.9,0v-5.1l2.107,1.2a1.45,1.45,0,1,0,1.434-2.522C232.431,70,232.8,70.2,232.653,70.147a1.453,1.453,0,0,0-1.238.085l-.008,0-4.274,2.43a1.45,1.45,0,1,0,1.434,2.521Z" transform="translate(-182.616 -60.841)"/>
            <path id="Trazado_114442" data-name="Trazado 114442" d="M146.45,235.059l-4.415,2.543v-2.407a1.45,1.45,0,1,0-2.9,0c0,5.161-.221,5.647.737,6.18l4.24,2.476a1.45,1.45,0,1,0,1.463-2.5l-2.1-1.225,4.422-2.547a1.45,1.45,0,0,0-1.448-2.514Z" transform="translate(-112.209 -192.881)"/>
            <path id="Trazado_114443" data-name="Trazado 114443" d="M331.741,233.745a1.45,1.45,0,0,0-1.45,1.45V237.6l-4.415-2.543a1.45,1.45,0,0,0-1.448,2.514l4.422,2.547-2.1,1.225a1.45,1.45,0,1,0,1.463,2.5c3.942-2.368,4.7-2.459,4.931-3.381.1-.374.015-.352.046-5.274A1.45,1.45,0,0,0,331.741,233.745Z" transform="translate(-261.101 -192.882)"/>
            <path id="Trazado_114444" data-name="Trazado 114444" d="M217.2,139.38l-10.556-6.1a1.45,1.45,0,0,0-1.451,0l-10.556,6.1a1.451,1.451,0,0,0-.725,1.256c0,.036,0,.072.007.108v12.081a1.45,1.45,0,0,0,.725,1.256l10.445,6.03c.032.022.063.045.1.065a1.449,1.449,0,0,0,.725.194h.015a1.449,1.449,0,0,0,.725-.194c.034-.02.065-.043.1-.065l10.445-6.03a1.45,1.45,0,0,0,.725-1.256V140.744c0-.036.007-.072.007-.108A1.45,1.45,0,0,0,217.2,139.38Zm-11.281-3.164,7.652,4.418-7.652,4.417-7.652-4.417Zm-9.1,6.937,7.64,4.412V156.4l-7.64-4.411ZM207.379,156.4v-8.835l7.64-4.412v8.836Z" transform="translate(-156.413 -111.693)"/>
            <path id="Trazado_114445" data-name="Trazado 114445" d="M43.073,65.678H36.3a2.807,2.807,0,0,0-2.8,2.8v34.341a2.807,2.807,0,0,0,2.8,2.8h6.769a2.807,2.807,0,0,0,2.8-2.8V68.482A2.807,2.807,0,0,0,43.073,65.678Zm-.1,37.048H36.4V68.579h6.575Z" transform="translate(-27.021 -57.317)"/>
            <path id="Trazado_114446" data-name="Trazado 114446" d="M56.617,105.641h1.1a1.45,1.45,0,1,0,0-2.9h-1.1a1.45,1.45,0,1,0,0,2.9Z" transform="translate(-44.498 -87.212)"/>
            <path id="Trazado_114447" data-name="Trazado 114447" d="M56.617,144.791h1.1a1.45,1.45,0,0,0,0-2.9h-1.1a1.45,1.45,0,1,0,0,2.9Z" transform="translate(-44.498 -118.791)"/>
            <path id="Trazado_114448" data-name="Trazado 114448" d="M56.617,183.941h1.1a1.45,1.45,0,0,0,0-2.9h-1.1a1.45,1.45,0,1,0,0,2.9Z" transform="translate(-44.498 -150.37)"/>
            <path id="Trazado_114449" data-name="Trazado 114449" d="M56.617,223.091h1.1a1.45,1.45,0,1,0,0-2.9h-1.1a1.45,1.45,0,1,0,0,2.9Z" transform="translate(-44.498 -181.949)"/>
            <path id="Trazado_114450" data-name="Trazado 114450" d="M378.879,56.066h-18.6a2.42,2.42,0,0,0-2.417,2.417V74.254a2.42,2.42,0,0,0,2.417,2.417h18.6a2.42,2.42,0,0,0,2.417-2.417V58.483A2.42,2.42,0,0,0,378.879,56.066Zm-.483,17.7H360.761v-14.8H378.4Z" transform="translate(-288.654 -49.564)"/>
            <path id="Trazado_114451" data-name="Trazado 114451" d="M388.405,91.742h4.448a1.45,1.45,0,0,0,0-2.9h-4.448a1.45,1.45,0,1,0,0,2.9Z" transform="translate(-312.122 -76.001)"/>
            <path id="Trazado_114452" data-name="Trazado 114452" d="M388.405,117.742h9.283a1.45,1.45,0,0,0,0-2.9h-9.283a1.45,1.45,0,1,0,0,2.9Z" transform="translate(-312.122 -96.973)"/>
          </g>
        </g>
      </g>
    </g>
  </g>
</svg>
